<svg width="262" height="320" viewBox="0 0 262 320" fill="none" xmlns="http://www.w3.org/2000/svg">
<path d="M128.898 70.4509L115.448 0M152.997 51.7772L161.683 16.4103M152.997 228.612L171.491 320M128.898 256.622L123.014 294.819M208.479 117.337L262 89.1247M60.5262 117.337L0 78.939M34.1861 131.565H5.60428M73.9765 202.016L22.1369 245.871M214.364 187.99L255.555 209.109M136.82 117.337L180.155 78.939L167.23 138.84L219.688 153.816L167.23 168.791L180.155 209.109L141.002 187.99L102.989 240.212L107.55 178.007L34.1861 164.951L96.3936 138.84L84.3628 82.0109L136.82 117.337Z" stroke="#1FCCE8" stroke-width="20"/>
</svg>
