<svg width="626" height="125" viewBox="0 0 626 125" fill="none" xmlns="http://www.w3.org/2000/svg">
<path d="M156.243 7.43157C155.175 8.00958 154.108 8.58759 153.205 9.11056C147.457 8.33987 142.613 7.43157 137.441 7.07376C132.515 6.74346 127.999 6.35812 123.647 5.53239C122.005 5.22962 119.214 5.28467 117.407 5.53239C110.018 6.52327 102.465 6.49574 94.7473 6.30307C93.1053 6.27555 90.9704 6.16545 89.9851 6.4407C82.4316 8.50502 74.3033 7.32147 66.5035 6.96366C60.8384 6.68841 55.8302 6.82604 50.9861 8.09216C48.9336 7.10128 47.3737 6.2205 45.3211 5.4223C43.5969 4.76171 41.4622 4.21122 38.3423 3.24787C43.5148 2.91758 47.538 2.66986 51.561 2.42214C55.8304 2.17442 60.3458 1.56889 64.451 1.76156C75.7812 2.33957 86.1264 1.29364 96.6356 0.275243C98.606 0.082573 100.823 0.082573 102.793 0C104.764 2.22947 95.9788 1.0184 96.7177 2.50472C111.496 2.86253 126.521 3.24787 142.778 3.66074C146.554 2.64234 151.234 1.40374 156.243 0.0550487C160.676 0.275243 165.52 0.522962 170.528 0.798206C169.954 1.32117 169.461 1.76156 168.558 2.53224C183.665 1.59641 198.279 0.412865 216.424 1.04592C209.938 2.09185 206.161 2.66986 202.384 3.2754C203.041 3.35797 203.78 3.55064 204.519 3.55064C213.715 3.38549 222.828 2.1469 232.681 3.30292C235.144 2.66986 237.442 1.87166 240.234 1.40374C244.093 0.743157 248.28 0.0825729 251.072 2.11937C252.385 3.08273 255.916 3.33045 258.133 2.72491C262.484 1.56889 266.507 1.45879 271.761 2.06433C275.128 2.47719 279.233 2.20195 283.01 2.22947C296.064 2.33957 308.38 3.55064 320.777 4.73419C322.748 4.92686 325.047 4.98191 327.099 4.84428C347.05 3.68826 366.016 5.17458 384.9 7.2389C389.498 7.73434 394.424 8.33987 399.103 8.22978C413.307 7.95453 425.787 9.82619 438.759 11.2024C442.372 11.5877 445.82 12.2208 449.515 12.496C455.344 12.9089 461.912 12.6612 467.167 13.4319C493.686 17.3128 522.587 19.1294 547.792 24.1664C556.249 25.8729 563.638 28.0198 571.684 29.8639C585.56 33.0567 592.456 38.3139 606.086 41.4517C610.273 45.2775 622.752 47.9474 620.289 52.7366C619.961 53.3972 620.7 54.2505 621.849 54.801C627.515 57.5259 626.775 60.2783 623.245 63.1684C622.26 63.9941 621.521 64.9574 621.685 65.8382C622.506 70.2146 617.169 74.013 611.833 77.7838C609.534 79.4352 606.907 81.0592 601.57 81.94C599.764 82.2427 597.465 82.8483 597.054 83.4538C594.591 86.8118 585.396 87.61 578.335 89.2614L578.499 89.2339C576.61 89.8394 574.558 90.3899 572.834 91.023C570.042 92.0689 567.004 92.6194 562.899 92.0414C559.779 92.8396 554.032 91.601 552.39 93.6653C557.316 94.0782 559.944 92.8671 562.981 92.0139C560.272 93.858 556.577 95.1792 550.502 96.0875C539.089 97.7665 528.005 99.7482 517.414 101.923C512.077 103.024 506.741 103.574 500.911 104.097C495.739 104.565 490.238 105.088 485.887 106.079C480.057 107.455 473.653 108.391 467.496 109.492C444.753 113.593 420.204 116.015 395.163 117.804C390.893 118.107 386.459 118.079 382.19 118.327C374.719 118.768 366.755 118.905 359.858 119.896C351.976 121.025 344.751 121.685 336.295 120.914C333.339 120.639 329.234 120.694 326.689 121.19C314.866 123.529 301.154 122.704 288.593 123.887C279.069 124.795 268.313 124.135 258.05 124.19C252.714 124.217 247.459 123.832 241.958 124.548C238.592 124.988 234.405 124.823 230.628 124.713C218.23 124.327 205.833 123.804 193.435 123.419C190.315 123.309 187.031 123.419 183.911 123.584C174.798 124.052 165.602 124.438 155.996 124.052C155.339 123.254 154.847 122.593 154.272 121.905C153.287 121.795 152.302 121.603 151.316 121.63C136.045 121.795 120.938 121.658 105.831 120.612C101.398 120.309 97.3746 120.089 94.3368 118.85C90.3138 117.199 85.4695 116.263 78.5729 116.786C76.9308 116.896 74.5499 116.373 72.9078 115.933C61.906 112.905 50.2473 110.318 34.6477 110.042C35.4687 108.721 37.3572 107.538 36.4541 106.712C34.6478 105.143 29.3931 104.372 26.4374 102.914C24.7953 102.115 20.5259 101.978 18.2271 101.262C13.6293 99.8308 7.14297 98.5371 10.6734 95.8122C6.40405 93.1148 7.14305 90.1973 6.65043 87.3072C6.48623 86.509 4.26944 85.7383 2.95579 84.8851C7.14305 83.0409 11.1662 81.3344 10.4273 78.8848C10.1809 78.0866 11.8229 77.1782 12.8082 76.3525C14.1218 75.3341 16.4208 74.4258 16.9955 73.3799C18.8018 69.9118 23.7278 67.297 32.8413 65.4804C34.9759 65.04 36.7824 64.1592 37.6035 63.3335C40.1487 60.6912 46.2241 59.2599 52.6282 57.8286C60.1817 56.1221 69.6237 55.0762 71.6763 51.2778C75.6172 51.8559 77.9161 52.2137 81.1181 52.6816C82.4318 51.5531 83.8273 50.4246 85.3873 49.0759C88.0146 48.7456 90.9704 48.0575 94.0903 48.0025C104.271 47.8373 111.825 45.773 120.035 44.2041C121.923 43.8463 123.73 43.4059 125.7 43.2407C130.626 42.8554 137.113 43.9288 139.494 41.4241C144.584 40.7085 148.771 39.635 152.137 38.1212C155.093 36.8 158.787 35.589 164.617 36.2771C165.52 36.222 166.423 36.1945 167.326 36.1395C166.341 36.167 165.356 36.222 164.453 36.2496C168.804 34.4054 174.962 33.4696 181.53 33.387C193.025 33.2769 203.205 31.1851 213.633 31.4053C217.902 30.3043 213.714 29.5061 214.7 28.6804C215.521 28.4877 216.342 28.1849 217.245 28.1299C233.994 27.4142 249.512 25.1572 265.44 23.4783C271.926 22.7902 279.397 23.5608 285.227 21.7442C286.54 21.3314 290.563 21.6617 293.026 21.9094C296.639 22.2672 300.005 22.8727 304.685 23.5333C308.297 22.3498 312.074 21.0836 315.851 19.845L315.605 19.9276C323.733 19.4872 331.779 18.9092 339.907 18.634C350.745 18.2762 361.665 18.1661 372.584 17.9734C374.226 17.9459 376.279 17.8908 377.428 18.1936C385.639 20.313 395.983 19.9827 405.179 21.0561C413.882 22.0745 423.078 22.5424 432.027 23.3131C433.423 23.4232 434.572 23.9187 436.789 24.4967C434.572 24.9646 433.012 25.6252 431.37 25.6527C422.175 25.7353 412.733 26.3958 404.112 24.6893C402.798 24.4416 400.335 24.2214 399.514 24.4691C392.699 26.3683 385.803 24.5792 378.988 24.5242C372.584 24.4691 366.016 23.9737 359.776 23.4507C352.223 22.8177 344.833 22.5975 337.116 23.2581C323.404 24.4416 309.611 25.46 295.736 26.4784C283.502 27.3592 271.269 28.3501 258.461 28.1574C253.699 28.1024 248.937 28.3225 244.339 28.4051C244.093 30.5245 249.183 30.2492 251.072 30.6896C239.167 32.3411 226.851 34.1577 214.289 35.7816C205.75 36.9101 196.801 37.6258 189.084 39.525C186.456 40.1855 181.694 39.9103 177.918 39.9929C171.514 40.103 165.109 40.158 156.078 40.2681C160.758 41.2315 163.139 41.7269 165.931 42.3049C165.027 42.8004 164.535 43.4059 163.467 43.6261C151.48 46.1583 139.822 48.9108 127.26 51.0301C121.102 52.0761 115.848 53.4798 109.772 54.5257C104.353 55.4615 99.1809 56.4249 95.5684 58.1314C94.3368 58.7094 92.5305 59.2874 90.56 59.5351C71.7584 62.0399 61.0028 67.9301 45.3211 71.7284C42.858 72.334 39.8201 73.4625 39.9022 74.3432C40.0664 77.2608 33.8267 78.9398 29.7215 81.0317C30.4604 83.9492 31.035 86.8393 32.0202 89.7293C32.3486 90.8028 33.4161 91.8762 34.5655 92.8946C42.3653 99.8308 58.2932 105.391 78.819 108.088C87.9325 109.299 97.4565 110.152 106.816 111.143C110.429 111.529 114.534 111.694 117.572 112.382C122.498 113.483 127.342 113.841 133.007 113.263C134.485 113.098 136.62 113.07 137.769 113.318C147.622 115.492 158.623 114.584 169.215 114.749C196.966 115.217 224.635 115.657 252.385 116.07C259.446 116.18 266.589 116.043 273.65 116.125C278.74 116.18 283.174 115.795 287.608 114.887C299.184 112.464 312.321 111.886 325.457 111.914C331.204 111.941 335.884 111.529 340.892 110.896C353.618 109.299 367.247 108.666 379.399 106.464C383.34 105.749 388.43 105.693 393.521 105.638C403.045 105.528 413.061 105.281 421.764 103.547C424.063 103.079 426.608 102.638 429.235 102.473C450.008 101.152 467.66 97.4637 485.722 94.1883C493.933 92.702 502.061 91.2982 511.256 90.5826C518.564 90.0046 525.132 89.0963 530.386 86.8118C534.82 84.8575 542.373 83.674 548.613 82.2152C566.512 78.059 580.223 72.8569 589.419 66.1135C602.145 56.8102 591.8 47.9474 574.147 43.2958C567.333 41.5067 561.257 39.3873 554.935 37.3781C546.233 34.5981 537.037 32.0934 526.117 30.2493C519.959 29.2033 514.705 27.5794 509.039 26.2032C501.486 26.8087 495.328 25.2123 488.514 24.6618C476.362 23.6985 463.801 23.1755 452.06 21.5516C449.597 21.2213 446.395 20.891 444.014 21.1112C435.229 21.9644 428.004 20.6433 420.45 19.5698C410.434 18.1661 400.253 16.8449 389.99 15.6063C387.609 15.3035 384.736 15.3586 382.108 15.4136C371.517 15.7164 362.732 15.1384 350.991 13.3768C349.103 13.1016 346.886 12.8814 344.833 12.8539C337.772 12.7438 330.629 12.7162 323.569 12.7162C318.56 12.7162 313.88 12.6612 310.104 11.2575C306.82 10.0464 302.058 10.1014 297.788 10.4317C282.517 11.6703 267.492 10.6794 252.221 10.2115C239.988 9.85371 227.672 8.39492 215.192 9.68857C214.207 9.79866 212.894 9.74362 211.99 9.57847C201.071 7.51414 189.576 8.72522 177.918 9.05551C175.455 6.93613 171.267 6.35812 164.946 7.10128C161.99 7.43157 158.541 7.32147 155.421 7.40405C155.914 6.41317 156.324 5.44982 156.899 4.1837C151.973 5.39477 151.973 5.39477 153.697 6.49574C154.682 6.93613 155.586 7.18385 156.243 7.43157ZM131.776 45.5528C121.513 45.4427 121.431 45.4152 121.677 48.2226C124.469 47.4795 126.849 46.8464 131.776 45.5528ZM187.77 36.745C185.635 36.4973 184.239 36.222 183.09 36.2771C182.023 36.3321 181.12 36.8 180.135 37.0753C181.202 37.268 182.351 37.6808 183.337 37.6258C184.568 37.5707 185.8 37.1854 187.77 36.745ZM66.5857 5.17458C67.4068 4.73419 68.1458 4.34885 68.8027 3.99103C67.4069 3.79836 65.9291 3.41302 64.6975 3.46807C63.6302 3.52312 62.8092 4.10113 61.9061 4.45894C63.2197 4.67914 64.6153 4.87181 66.5857 5.17458ZM91.7916 51.6081C91.4631 51.498 91.0524 51.4155 90.724 51.3054C90.3135 51.5256 89.8208 51.7733 89.4924 52.021C89.4103 52.0485 90.1494 52.2137 90.4778 52.3238C90.8883 52.0761 91.2989 51.8559 91.7916 51.6081ZM23.9743 72.0862C24.549 72.2514 25.206 72.4165 25.7807 72.5817C26.027 72.4716 26.6017 72.2514 26.6017 72.2239C26.1091 72.0312 25.4522 71.8661 24.8775 71.7009C24.5491 71.8385 24.3027 71.9761 23.9743 72.0862ZM121.266 119.896C121.102 120.006 120.692 120.171 120.856 120.226C121.102 120.336 121.595 120.391 122.005 120.474C122.252 120.281 122.498 120.089 122.744 119.896C122.169 119.896 121.759 119.896 121.266 119.896ZM50.6578 65.0951C49.8368 64.985 49.2622 64.9299 48.7696 64.8749C48.8517 65.0125 48.9336 65.1226 49.0157 65.2602C49.4263 65.2052 49.8368 65.1501 50.6578 65.0951ZM378.988 112.437C379.399 112.492 379.891 112.575 380.302 112.575C380.466 112.575 380.63 112.327 380.795 112.217C380.384 112.162 379.891 112.079 379.481 112.079C379.235 112.079 379.07 112.299 378.988 112.437Z" fill="#1FCCE8"/>
<path d="M33.0878 6.4408C22.7428 7.62435 13.2187 7.62435 3.77682 6.85367C1.97056 6.71605 0.903135 5.61507 0 4.65172C7.71769 6.74357 15.8461 6.08299 23.9743 5.5325C27.1763 5.31231 27.1764 5.33983 33.0878 6.4408Z" fill="#1FCCE8"/>
<path d="M266.589 114.116C270.037 113.841 273.486 113.538 277.345 113.235C278.001 114.474 274.881 114.419 273.486 114.694C271.761 114.997 269.545 114.942 267.574 115.024C267.164 114.722 266.917 114.419 266.589 114.116Z" fill="#1FCCE8"/>
</svg>
