<svg width="130" height="58" viewBox="0 0 130 58" fill="none" xmlns="http://www.w3.org/2000/svg">
<path d="M7.51194 17.5018C10.2931 16.1347 12.6701 15.5025 15.4751 15.3145C18.6366 15.1095 21.3464 13.7937 23.9374 12.4779C24.9596 11.9653 25.9579 11.3672 26.885 10.7691C29.0956 9.36794 31.6391 8.54772 34.753 8.32558C35.4662 8.94074 36.2743 9.62425 37.035 10.3078C36.9875 10.5299 37.0588 10.8204 36.8924 10.9229C34.8243 12.3071 34.3014 13.9304 35.1096 15.8784C35.3948 16.6132 35.4424 17.4334 35.3235 18.2024C35.0858 19.8086 34.6104 21.4149 36.7022 22.4231C36.2981 23.3287 36.0129 23.961 35.7514 24.542C38.4137 26.5925 41.4326 26.1311 44.0711 25.0717C46.4244 24.1318 48.6826 23.7559 51.2736 23.8243C52.6761 23.8755 54.1261 23.7559 55.481 23.5338C58.8802 22.987 62.2556 22.9528 65.7737 23.0895C69.3155 23.2262 72.9761 24.0464 76.5655 23.0895C76.9696 22.987 77.5639 23.0041 77.9442 23.1408C79.5131 23.773 80.9868 23.3458 82.5319 23.0895C83.9106 22.8673 85.4082 22.5769 86.7393 22.7648C91.3508 23.3629 95.891 22.8332 100.479 22.6965C103.807 22.5939 107.111 22.406 110.439 22.3034C110.866 22.2864 111.318 22.4743 111.841 22.5939C111.841 23.961 112.15 25.3451 111.77 26.6267C111.128 28.831 110.914 31.0866 109.939 33.291C108.87 35.7345 107.99 38.2977 107.848 40.9292C107.8 41.664 107.182 42.3988 106.873 42.9798C105.019 43.6975 103.569 43.2361 102.071 42.826C98.6722 41.9203 95.273 40.9634 91.8262 40.1603C88.8311 39.4597 85.741 38.947 82.6983 38.3148C77.8491 37.2895 72.9524 36.4009 67.9843 35.6833C66.7483 35.5124 65.4884 35.3757 64.2523 35.2048C62.3982 34.9485 60.5679 34.658 58.69 34.4358C56.8121 34.2137 54.9343 33.9745 53.0564 33.9061C51.8679 33.8548 50.917 34.3162 51.0834 35.6149C51.8679 35.7345 52.7236 35.9566 53.6031 36.0079C55.2433 36.0933 56.7171 36.3155 57.8343 37.2895C58.2146 37.6142 58.8802 37.9218 59.4031 37.9388C62.0892 37.9559 64.5376 38.9812 67.3425 38.7591C68.7687 38.6565 70.4089 39.2033 71.8114 39.6647C78.1819 41.6982 81.9614 42.9456 88.2606 43.5949C89.0213 43.6804 89.9246 43.7145 90.4713 44.0221C92.5631 45.2012 95.0828 45.4404 97.5312 45.8847C98.4344 46.0556 99.3615 46.1923 100.217 46.4486C103.07 47.3201 106.065 47.2688 109.036 47.303C110.32 47.3201 111.08 46.7904 111.366 45.9018C111.746 44.6715 112.126 43.4582 112.435 42.2279C113.101 39.4426 113.719 36.6402 114.361 33.8378C114.456 33.3935 114.551 32.915 114.812 32.522C116.167 30.4373 116.215 28.1304 117.094 25.9773C117.617 24.6957 118.259 23.4142 118.735 22.3547C120.494 21.5687 121.991 21.2782 123.608 21.3294C126.056 21.3978 127.767 20.3725 129.431 19.3131C130.477 18.6466 130.002 17.2967 128.647 17.16C126.46 16.955 124.249 16.9379 122.062 16.9037C121.444 16.8866 120.684 17.2284 120.232 17.0746C117.356 16.0151 114.86 16.9037 112.079 17.4334C109.226 17.9631 106.112 17.8264 103.117 17.8435C100.431 17.8606 97.7926 17.8948 95.1066 18.1511C90.4238 18.5954 85.6696 18.6296 80.9393 18.8346C80.2975 18.8688 79.6557 18.8175 79.0376 18.8688C74.0221 19.3473 68.9827 19.4669 63.9433 19.6719C57.1925 19.9453 50.4654 20.7826 43.7383 21.432C42.6924 21.5345 41.694 21.9617 40.6957 22.218C39.4834 21.5516 40.0063 20.7143 40.1014 19.9795C40.6006 16.4765 41.076 12.9735 41.7416 9.48755C42.0506 7.81294 42.6686 6.13833 43.3342 4.49789C43.7621 3.45553 43.6908 2.48152 43.3342 1.47334C42.9539 0.413894 41.385 -0.320882 40.0776 0.14049C36.8924 1.30246 33.517 2.05433 30.8071 4.0707C28.2399 5.98454 24.5792 7.12943 21.3702 8.5819C20.039 9.17997 18.7079 9.76096 17.3292 10.3078C15.9505 10.8546 14.548 11.333 13.1456 11.8457C9.46112 13.1614 5.77669 14.4601 2.09224 15.7588C-0.0708807 16.5278 -0.356134 17.1942 0.333214 19.0738C1.09387 21.1756 1.83077 23.2604 4.4693 24.6274C4.80209 24.7983 5.15866 25.1913 5.15866 25.4647C5.0398 27.3102 7.20291 28.1304 8.29636 29.4462C10.1505 31.6676 13.5972 33.0005 14.5956 35.6833C14.9759 36.6914 16.6161 37.3066 17.5669 38.2122C20.6808 41.2197 23.462 44.3981 26.2194 47.5593C28.7391 50.4301 31.3063 53.2837 33.8735 56.1374C34.3489 56.6671 34.967 57.1114 35.9891 58C36.4883 56.2399 37.558 54.9754 36.9875 53.6768C36.0604 51.5579 37.0826 49.6782 38.6752 48.2257C41.7654 45.4233 42.6449 42.1083 44.0949 38.9299C43.3104 37.6313 42.0981 36.811 40.4817 36.2301C38.2711 36.9477 37.558 38.2635 37.1301 39.7672C36.4883 42.1083 35.7514 44.4322 34.9907 46.7562C34.7768 47.3884 34.2776 47.9694 33.7309 48.8751C31.7104 47.2346 30.0227 45.7309 28.9292 44.0563C26.7186 40.6216 23.6759 37.5971 20.7759 34.5042C19.5398 33.1884 18.589 31.753 17.3054 30.4544C15.8554 28.9848 14.2865 27.5323 12.5751 26.1995C10.2455 24.4224 9.12834 22.1497 7.51194 20.082C7.06029 19.4498 7.51194 18.3732 7.51194 17.5018ZM36.5358 5.7624C36.8211 5.42064 36.9875 5.14724 37.2489 4.94219C37.2965 4.90801 37.8907 5.07889 37.8907 5.16433C37.8907 5.36938 37.7719 5.62569 37.558 5.74531C37.4153 5.84783 37.0588 5.7624 36.5358 5.7624Z" fill="#1FCCE8"/>
</svg>
