<svg width="94" height="62" viewBox="0 0 94 62" fill="none" xmlns="http://www.w3.org/2000/svg">
<path d="M88.0167 14.0734C87.7969 13.9617 87.5918 13.9277 87.3915 14.122C87.0056 14.4913 86.8103 14.9528 86.6051 15.4726C87.1522 15.6669 87.6406 15.5552 88.1437 15.5844C88.3098 15.8273 88.217 16.0653 88.0704 16.2791C87.9825 16.4054 87.836 16.4977 87.709 16.5949C87.3769 16.8524 87.1864 17.1487 87.2889 17.5957C87.4062 18.0961 87.2694 18.4847 86.7321 18.6742C86.654 18.7034 86.5709 18.888 86.5905 18.9754C86.6149 19.0774 86.7468 19.2183 86.8445 19.2232C87.1961 19.2523 87.5478 19.2329 87.9483 19.2329C88.1144 19.8888 88.2658 20.496 88.4221 21.1228C88.3195 21.526 87.7285 21.5892 87.6895 22.0701C88.1339 22.2256 88.3586 22.2013 88.5882 21.8709C88.7689 21.6134 88.8715 21.3025 89.0131 21.011C89.653 20.6369 90.2977 20.2871 91.0596 20.1608C91.6751 20.0588 92.2368 19.777 92.6031 19.2232C92.647 19.1552 92.7594 19.1309 92.8717 19.0726C93.4383 19.7187 92.8424 20.1123 92.5689 20.5203C92.6177 20.977 93.1013 20.739 93.2674 21.0742C93.1599 21.1665 93.0329 21.2539 92.9352 21.3657C92.647 21.696 92.6568 22.0264 92.9792 22.2936C93.199 22.4782 93.453 22.624 93.7363 22.8183C93.7802 23.5665 93.0525 24.0037 92.945 24.6741C92.1488 24.713 92.1488 24.713 91.8216 25.6361C92.0121 25.8401 92.2026 26.049 92.3735 26.2336C92.31 26.6952 91.9584 26.734 91.6751 26.8895C91.4211 27.0255 91.2111 27.2393 90.9522 27.4433C90.8105 27.3413 90.6689 27.2101 90.5077 27.1276C90.3758 27.0644 90.2147 27.0547 90.0437 27.0158C90.2 26.4425 90.7422 26.3016 91.0499 25.9324C91.0206 25.6749 90.8154 25.7089 90.7031 25.7964C90.4003 26.0393 90.0925 26.2871 89.8581 26.5931C89.5162 27.0401 89.2866 27.5405 89.5308 28.1235C89.5553 28.1818 89.565 28.2498 89.5699 28.313C89.5748 28.3421 89.5504 28.3713 89.5162 28.4636C89.3599 28.4733 89.1792 28.5073 88.9936 28.4976C88.5833 28.483 88.2267 28.6045 87.9044 28.8474C87.7236 28.9834 87.5429 29.134 87.3378 29.2214C86.9959 29.3672 86.7077 29.5227 86.6247 29.9356C86.6051 30.0279 86.4439 30.1105 86.3365 30.1688C86.19 30.2465 85.9799 30.1542 85.936 30.0036C85.8334 29.6733 85.8627 29.3575 86.1167 29.1C86.2535 28.9591 86.4244 28.8571 86.5563 28.721C86.6442 28.6336 86.7565 28.4976 86.7419 28.3955C86.6686 27.9146 86.8689 27.5259 87.0936 27.1276C87.1619 27.0012 87.1326 26.8215 87.1473 26.6514C86.3414 26.7923 86.1802 27.1033 86.2144 28.3567C85.892 28.5559 85.5403 28.721 85.2522 28.964C84.8272 29.3283 84.837 29.5178 85.1936 30.0182C85.4134 30.3243 85.3596 30.5575 85.0275 30.7081C84.9103 30.7615 84.7833 30.8198 84.6612 30.8344C83.9236 30.9024 83.3522 31.3736 82.6781 31.602C82.2776 31.738 82.0822 32.0927 81.9748 32.4813C81.8331 32.9866 81.5157 33.2344 80.954 33.2489C80.9784 33.0546 81.0028 32.8797 81.0321 32.6319C80.8758 32.6659 80.7586 32.6708 80.656 32.7145C80.0357 32.9866 79.4496 33.3412 78.7707 33.4918C78.5362 33.5453 78.2822 33.7153 78.1308 33.9096C77.6521 34.5072 76.9537 34.8133 76.3676 35.2651C75.9573 35.576 75.4933 35.8141 75.039 36.0959C74.9413 35.9841 74.8388 35.8724 74.702 35.7169C74.5652 35.7752 74.4187 35.8287 74.282 35.8967C73.774 36.1542 73.2562 36.2076 72.7092 36.0133C72.5041 35.9404 72.2647 35.853 72.0596 35.8918C71.2634 36.0376 70.4526 36.1202 69.6907 36.4262C69.2999 36.5817 68.8848 36.6837 68.5038 36.8537C68.0154 37.0675 67.5123 37.1064 66.9896 37.1452C66.2472 37.1987 65.5195 37.4124 64.777 37.461C64.1665 37.5047 63.5462 37.461 63.0968 37.6505C62.4374 37.3687 61.9051 37.1452 61.3727 36.9218C61.148 36.8246 60.9331 36.8683 60.7133 36.9606C60.4739 37.0627 60.2346 37.1647 59.9806 37.2132C59.8439 37.2375 59.6436 37.1987 59.541 37.1112C59.3457 36.9412 59.1649 36.8975 58.9207 36.9558C58.7693 36.9946 58.5984 36.9703 58.4372 36.9703C57.7387 36.9849 57.7387 36.9849 57.1673 36.64C57.0451 36.7031 56.8888 36.7614 56.7619 36.8537C56.4639 37.0869 56.1171 37.1647 55.7557 37.1647C54.7495 37.1647 53.7336 37.2035 52.7323 37.1112C52.0045 37.0432 51.2377 37.0529 50.5636 36.6643C50.4073 36.572 50.1875 36.5914 49.997 36.5622C49.8359 36.5428 49.6307 36.5914 49.5233 36.5088C49.0837 36.1639 48.6392 36.2367 48.1459 36.3631C47.8773 36.4311 47.5744 36.3485 47.2862 36.3242C46.8027 36.2805 46.3191 36.2125 45.8356 36.1736C45.6793 36.1639 45.5132 36.2076 45.3618 36.2562C44.7122 36.4554 44.0724 36.6691 43.369 36.8926C43.2713 36.6934 43.1932 36.5331 43.1101 36.3534C42.8562 36.261 42.6754 36.4602 42.5484 36.6157C42.4263 36.7663 42.4166 37.0092 42.3531 37.2375C41.8891 37.3881 41.5813 37.0189 41.2004 36.8586C40.8975 36.9461 40.5898 37.0335 40.2382 37.1355C40.2968 37.3104 40.3603 37.4756 40.4384 37.7039C39.9597 37.8254 39.486 37.9468 38.9047 38.0975C38.47 37.7428 37.625 37.8886 37.3076 37.0627C37.4394 36.878 37.5762 36.6788 37.7227 36.4699C37.6495 36.3679 37.6153 36.261 37.542 36.2173C37.2978 36.0716 37.0389 35.9501 36.8191 35.8384C36.6775 35.4108 37.1708 35.474 37.2148 35.1534C37.0438 35.0173 36.8533 34.8619 36.6433 34.6918C36.6335 34.6141 36.5944 34.5169 36.6091 34.4295C36.6628 34.0845 36.7312 33.7396 36.7947 33.3752C36.3649 33.0449 35.8813 32.9428 35.4222 32.8165C34.5039 32.5639 33.6345 32.2238 32.9068 31.5825C32.7895 31.4805 32.6381 31.4028 32.4867 31.3494C31.9055 31.155 31.3145 30.9704 30.7284 30.7907C30.1422 30.6109 29.5561 30.4409 28.9749 30.266C28.5158 29.5178 28.5158 29.5178 27.6268 29.2992C27.0993 28.7356 26.5523 28.1721 26.7525 27.2781C26.4057 27.1858 26.1371 27.0352 25.971 26.7292C25.6193 26.083 24.9893 25.7089 24.4618 25.2377C24.2566 25.0531 23.944 24.9851 23.6754 24.8879C23.2456 24.7324 22.8988 24.5284 23.0062 23.9843C23.0404 23.8045 22.972 23.6733 22.8255 23.5713C22.7474 23.5179 22.6594 23.4644 22.5959 23.3915C21.917 22.6677 21.8877 22.4102 22.381 21.4774C22.2638 21.2442 22.1319 20.9867 22.0245 20.7681C22.0489 20.6564 22.0391 20.5738 22.0782 20.53C22.4543 20.0977 22.5129 19.6167 22.3468 19.0823C22.1661 18.4993 22.1173 17.8774 21.8047 17.3236C21.6923 17.1196 21.707 16.8281 21.7119 16.5754C21.7168 16.1576 21.751 15.7398 21.7754 15.322C21.79 15.1277 21.79 14.9285 21.8438 14.7439C22.1368 13.7868 22.4641 12.8589 23.0306 12.0038C23.5337 11.2459 24.1638 10.5998 24.7304 9.90022C24.9111 9.67674 25.1602 9.51155 25.3898 9.3318C25.6486 9.13747 25.9319 8.97228 26.181 8.76824C26.5425 8.47188 26.8893 8.28728 27.4119 8.34558C28.0176 8.4136 28.3546 7.89862 28.5158 7.41765C28.6427 7.03871 28.8918 6.8784 29.1361 6.62577C29.6782 6.07193 30.3474 5.79501 31.0312 5.50837C31.2998 5.39664 31.5831 5.27032 31.7883 5.07113C32.3695 4.50758 33.1021 4.42012 33.8739 4.30838C33.9813 4.47356 34.0839 4.62417 34.1865 4.77478C34.3867 4.81364 34.5479 4.70675 34.543 4.54157C34.5284 3.99258 34.8458 3.73996 35.3001 3.54563C35.6273 3.4096 35.9204 3.2007 36.2428 3.04524C36.4137 2.96265 36.6042 2.8752 36.7849 2.88006C37.3027 2.89464 37.6495 2.66628 37.8986 2.2339C37.9621 2.12216 38.0353 2.01528 38.1232 1.91811C38.2893 1.72864 38.514 1.68006 38.7387 1.79666C38.9975 1.93269 39.232 2.1076 39.486 2.24849C39.8328 2.43796 40.1942 2.32622 40.2333 1.95213C40.2821 1.45659 40.5654 1.25254 40.9806 1.2234C41.3518 1.1991 41.6693 1.09222 41.9867 0.90761C42.1137 0.834736 42.2993 0.834736 42.4605 0.834736C42.7487 0.834736 42.8562 0.951343 42.9441 1.306C43.0173 1.60721 43.2616 1.74808 43.4813 1.57804C43.6816 1.42743 43.8281 1.19911 44.0235 1.03879C44.1017 0.975635 44.2873 0.951329 44.3703 0.999912C44.4484 1.04849 44.5119 1.22826 44.4826 1.32542C44.3996 1.59748 44.2677 1.85497 44.1749 2.07845C44.297 2.36509 44.4973 2.3748 44.6927 2.34079C44.8832 2.30678 45.0736 2.25335 45.2495 2.17562C45.6646 1.99586 46.0798 1.81611 46.5438 1.76753C46.705 1.75295 46.8808 1.67036 46.8662 1.47603C46.8564 1.37887 46.7294 1.28656 46.6464 1.20397C46.5634 1.12624 46.4657 1.06307 46.2947 0.931901C46.6317 0.800728 46.8906 0.737566 47.1006 0.611252C47.3058 0.484938 47.467 0.290622 47.6868 0.0914344C47.7454 0.280906 47.7796 0.392636 47.8186 0.51895C48.2533 0.679272 48.395 0.154573 48.7711 0.120565C49.0397 0.130281 49.0153 0.548105 49.3474 0.548105C49.6014 0.548105 49.8554 0.650113 50.1045 0.727845C50.3731 0.810435 50.6076 0.72785 50.8567 0.635543C51.0228 0.577244 51.2816 0.557821 51.4184 0.645269C51.9703 1.01935 52.6151 0.849306 53.2012 0.97562C53.5773 1.05821 53.9778 1.00963 54.3636 1.04849C55.3405 1.15052 56.1953 0.756995 57.0891 0.460642C58.0416 0.139998 59.0233 -0.08833 60.0539 0.033126C60.5179 0.0865667 60.9673 0.193439 61.3189 0.484933C61.6413 0.747278 61.9295 0.815303 62.2958 0.616115C62.6182 0.441218 62.9601 0.39749 63.3313 0.489796C63.5413 0.543237 63.7806 0.509229 64.0053 0.489796C64.4596 0.45093 64.9089 0.397494 65.3632 0.348912C65.4608 0.339195 65.5781 0.30032 65.6513 0.339186C66.5305 0.795861 67.4927 0.446086 68.411 0.625841C69.5979 0.854179 70.7457 1.12138 71.8203 1.69465C72.2403 1.91813 72.7287 2.04444 73.2025 2.14646C73.5884 2.22905 73.9596 2.27763 74.2771 2.55455C74.3845 2.65171 74.5799 2.71003 74.7215 2.69059C75.1025 2.64687 75.3907 2.77317 75.7033 2.99179C76.4164 3.48733 77.1344 4.0023 77.9257 4.34724C78.927 4.77962 79.8208 5.46465 80.9393 5.62983C81.0809 5.64926 81.2031 5.79987 81.33 5.89703C81.7989 6.24197 81.7989 6.24196 82.3265 5.83873C82.3997 5.78529 82.4827 5.74156 82.6146 5.66382C82.9028 6.2711 83.4987 6.49945 83.9969 6.83953C84.2362 7.00471 84.4707 7.15045 84.6807 7.36421C85.0666 7.75287 85.4378 8.15611 85.9409 8.41846C86.3609 8.63708 86.5807 9.05974 86.8005 9.45325C87.074 9.93908 87.3866 10.3715 87.8506 10.7067C88.1339 10.9107 88.3928 11.1925 88.5589 11.4937C88.8617 12.0427 89.2671 12.4994 89.692 12.9463C89.8727 13.1358 90.0095 13.3739 90.2098 13.5245C90.7666 13.9374 90.7129 14.6127 90.9375 15.1666C90.9766 15.2686 90.7715 15.4678 90.664 15.6524C90.0486 15.22 89.438 14.8848 89.5064 13.986C89.228 14.0492 89.0131 14.0346 88.8861 14.1318C88.554 14.4038 88.2902 14.2921 88.0167 14.0589C88.2707 13.9763 88.51 13.8645 88.5833 13.5876C88.6224 13.4516 88.5882 13.2961 88.5882 13.0144C88.3537 13.2038 88.1437 13.2864 88.09 13.4273C87.9874 13.6168 88.0265 13.8548 88.0167 14.0734ZM31.9397 25.7089C32.4183 25.6263 32.4183 25.6263 32.516 25.2425C32.2278 25.3348 32.052 25.4757 31.9641 25.7284C31.8664 25.7381 31.7589 25.7235 31.6808 25.7624C31.6271 25.7915 31.6075 25.8935 31.5782 25.9664C31.6368 25.9518 31.7101 25.9567 31.7541 25.9227C31.8224 25.8644 31.8762 25.7818 31.9397 25.7089ZM48.3901 19.7576C48.1654 19.9082 47.7649 19.879 47.7747 20.3649C48.1605 20.292 48.3461 20.1025 48.3901 19.7576C48.5415 19.7916 48.6978 19.845 48.859 19.8499C48.9665 19.8548 49.1423 19.845 49.0495 19.6361C48.8248 19.6799 48.6099 19.7187 48.3901 19.7576ZM82.0383 30.6838C81.8331 30.7372 81.6231 30.7907 81.4229 30.8392C81.3252 30.6644 81.2519 30.5332 81.1444 30.3486C81.0321 30.5089 80.9247 30.6206 80.8563 30.7566C80.7781 30.917 80.656 31.1162 80.6902 31.2668C80.7586 31.534 81.037 31.4902 81.2568 31.4902C81.5791 31.4902 81.8087 31.3591 81.8966 31.0287C81.9308 30.9073 81.9797 30.7907 82.0187 30.6643C82.0725 30.2563 82.4828 29.9307 82.3216 29.4012C81.9748 29.819 81.8331 30.2174 82.0383 30.6838ZM70.7652 23.4158C70.8287 23.4839 70.8825 23.5616 70.9508 23.6102C70.9753 23.6247 71.0485 23.5665 71.1023 23.5422C71.0681 23.4741 71.029 23.3527 70.9948 23.3527C70.9118 23.3527 70.8239 23.411 70.7408 23.445C70.7457 23.1098 70.5894 22.896 70.2182 22.794C69.9154 22.9689 69.5832 23.1584 69.256 23.3576C69.2316 23.3721 69.2511 23.4644 69.2511 23.5227C69.4269 23.5082 69.6076 23.4936 69.8567 23.4693C69.6565 24.028 69.0948 24.0086 68.7529 24.3292C68.8115 24.6839 68.7089 25.0093 68.4208 25.2668C68.2791 25.3931 68.1668 25.5583 68.0642 25.7235C67.9323 25.9373 67.9958 26.0684 68.367 26.3551C68.704 26.0879 69.129 25.8693 69.3927 25.5243C69.8958 24.8588 70.311 24.1251 70.7652 23.4158ZM56.3809 23.6296C56.1122 23.7365 55.8436 23.8531 55.5701 23.9502C55.3894 24.0134 55.1891 24.1154 55.0133 24.0863C54.4809 24.0037 53.9924 24.1883 53.4649 24.2466C53.4356 24.4506 53.4063 24.6304 53.3721 24.8685C52.9228 25.0045 52.4539 25.1259 51.9996 25.2911C51.5698 25.4466 51.0521 25.4417 50.6516 25.9276C51.267 25.8644 51.775 25.811 52.278 25.7575C52.8202 25.6992 53.3721 25.6895 53.8361 25.3154C54.0169 25.1697 54.2562 25.1842 54.476 25.3106C54.6079 25.3834 54.7642 25.4126 54.9302 25.466C55.4235 24.8247 55.8924 24.2175 56.3565 23.6053C56.6544 23.3576 56.9572 23.0903 57.3529 23.0612C57.7241 23.0369 58.1002 23.0952 58.4762 23.1146C58.6912 22.7746 58.8084 22.4636 58.8035 22.0944C58.6961 22.0944 58.613 22.0701 58.5837 22.0993C58.1539 22.5074 57.6703 22.7551 57.0598 22.8231C56.6593 22.8669 56.376 23.1681 56.3809 23.6296ZM80.8905 26.1656C80.9442 25.9178 81.0028 25.6701 80.7537 25.4855C80.7146 25.4563 80.6267 25.4563 80.5876 25.4806C80.5486 25.5049 80.5046 25.602 80.5192 25.6263C80.6365 25.8061 80.7732 25.9713 80.9051 26.1462C80.5876 26.3599 80.2164 26.53 79.9576 26.802C79.5766 27.2004 79.137 27.283 78.6339 27.2587C78.4385 27.249 78.2383 27.2344 78.0527 27.2684C77.9013 27.2976 77.7645 27.3947 77.6277 27.4773C77.5887 27.5016 77.5691 27.5939 77.5838 27.6474C77.5984 27.696 77.657 27.7591 77.7059 27.7737C77.7987 27.798 77.9012 27.8125 77.9892 27.7883C78.6241 27.6425 79.2542 27.6231 79.9185 27.7737C80.0455 27.6134 80.1529 27.4579 80.2848 27.3219C80.4411 27.1616 80.5974 26.9138 80.783 26.8846C81.2324 26.8069 81.3838 26.428 81.6622 26.1462C82.1067 26.1267 82.5951 26.1656 82.9321 25.7964C83.357 25.3251 83.7527 24.8296 84.1581 24.3389C84.1678 24.3243 84.1434 24.2806 84.1239 24.198C83.9236 24.2126 83.7185 24.2272 83.4547 24.2417C83.4303 23.8239 83.4059 23.4498 83.3864 23.0758C83.445 23.0806 83.4987 23.0855 83.5573 23.0952C83.5036 23.0904 83.4499 23.0855 83.3961 23.0758C83.0689 23.3284 82.7465 23.5859 82.4095 23.8288C82.1555 24.0085 82.0041 24.2223 82.0285 24.5478C82.0383 24.6693 82.0139 24.7956 82.0041 24.9462C81.6085 25.1259 81.3056 25.3737 81.2079 25.8255C81.1835 25.9616 80.9979 26.0539 80.8905 26.1656ZM59.5215 12.0573C59.4971 12.1156 59.4482 12.169 59.4482 12.2273C59.4482 12.2808 59.4775 12.3585 59.5166 12.3779C59.5557 12.3974 59.6485 12.3731 59.6729 12.339C59.6973 12.305 59.6827 12.2225 59.6534 12.1787C59.6192 12.1301 59.5508 12.1107 59.4971 12.0767C59.7608 11.8921 60.0246 11.7075 60.3274 11.5034C60.2737 10.9156 60.5081 10.4589 61.0063 10.1237C61.1285 10.0411 61.1968 9.87107 61.275 9.73018C61.2994 9.68646 61.275 9.57472 61.2408 9.56014C61.1626 9.531 61.0308 9.49699 60.9917 9.53585C60.5081 10.012 60.0197 10.4832 59.5655 10.9836C59.3066 11.2702 59.0526 11.5472 58.613 11.7852C58.613 11.4791 58.6326 11.2654 58.6081 11.0565C58.5837 10.8476 58.3102 10.7504 58.1539 10.8767C57.9048 11.0759 57.685 11.3237 57.4115 11.4792C56.8986 11.7706 56.5714 12.1884 56.42 12.7326C56.3565 12.9609 56.2734 13.1455 56.0878 13.301C55.9755 13.3982 55.8973 13.5342 55.8289 13.6265C55.9511 13.9763 56.1513 14.1366 56.4444 14.0637C56.9572 13.9325 57.5531 13.9957 57.9097 13.4516C57.9829 13.3399 58.193 13.3107 58.3444 13.2621C58.6814 13.1552 58.9305 12.9658 58.9452 12.5917C58.9598 12.2079 59.2382 12.1301 59.5215 12.0573ZM45.7135 6.79581C45.6012 6.85897 45.4497 6.89781 45.3862 6.99498C45.0492 7.49052 44.5412 7.78689 44.0919 8.15125C43.9209 8.29214 43.7402 8.42332 43.5937 8.53991C43.5448 9.33667 43.4618 9.45812 42.8659 9.65731C42.8366 9.66703 42.8024 9.67675 42.7731 9.68646C41.8793 9.9148 41.0929 10.3375 40.4042 10.9447C40.077 11.2314 39.7058 11.4111 39.2711 11.4597C39.0806 11.484 38.8852 11.5083 38.6947 11.552C38.6507 11.5617 38.6166 11.6298 38.5775 11.6735C38.768 11.7561 38.9585 11.8338 39.0903 11.8921C39.2222 12.1544 38.8754 12.3925 39.232 12.5771C39.4615 12.4217 39.6911 12.2419 39.9402 12.1059C40.1307 12.0038 40.3603 11.8969 40.5654 11.9067C41.0294 11.931 41.2834 11.7561 41.4592 11.3383C41.5667 11.0808 41.7767 10.8621 41.9526 10.6387C42.0698 10.4929 42.1821 10.2986 42.3384 10.2452C42.4947 10.1917 42.7047 10.2889 42.8659 10.3132C42.9392 10.2452 42.9929 10.2063 43.032 10.1577C43.4081 9.70588 43.8379 9.56014 44.3947 9.85164C44.7562 10.0411 45.0932 9.92937 45.3569 9.63302C45.7916 9.14234 46.2166 8.64192 46.7343 8.0395C46.158 8.2144 45.7086 8.34557 45.1958 8.50103C45.3765 7.86946 45.5328 7.32535 45.694 6.78608C45.8503 6.81037 46.0114 6.83953 46.1531 6.60148C45.9772 6.68407 45.8454 6.73751 45.7135 6.79581ZM72.6213 24.6207L72.6066 24.6013C72.5334 25.0239 72.3478 25.33 71.8593 25.3446C71.7177 25.3494 71.5809 25.4174 71.4344 25.4563C71.5467 25.7186 71.7274 25.6652 71.8789 25.6798C72.3624 25.7186 72.8557 25.7186 73.3344 25.8012C73.8326 25.8887 74.2185 25.7721 74.5604 25.398C74.8192 25.1114 75.1025 24.8296 75.4249 24.6256C76.2455 24.1106 77.1735 23.7705 77.9159 23.1195C78.082 22.9738 78.2676 23.0903 78.292 23.343C78.3018 23.4304 78.292 23.5179 78.292 23.6393C78.4776 23.5907 78.6339 23.5616 78.7853 23.513C78.8439 23.4936 78.8879 23.4401 78.9367 23.4013C78.9221 23.343 78.9221 23.2701 78.883 23.2312C78.4825 22.76 78.4776 22.6677 78.9318 22.3276C79.2933 22.0555 79.6743 21.8126 80.0455 21.5551C80.2604 21.7835 80.4216 22.0507 80.7977 21.9341C80.7439 21.798 80.6951 21.6669 80.6316 21.5114C81.0712 20.9381 81.6866 20.5592 82.2239 20.1025C82.3704 19.9762 82.5218 19.8256 82.6977 19.7722C83.0982 19.6507 83.5182 19.5876 83.9285 19.4904C84.0213 19.471 84.1239 19.4418 84.1972 19.3835C84.3095 19.296 84.3974 19.1746 84.5195 19.0386C84.2704 18.9414 84.0995 18.8685 83.9041 18.7908C84.1092 18.4993 84.2802 18.2272 84.4804 17.9892C84.6758 17.756 84.9103 17.5568 85.1691 17.2993C84.6612 17.0807 84.1434 17.2507 83.6843 17.0807C83.4547 17.343 83.2642 17.5617 83.0884 17.7608C82.8247 17.7754 82.5951 17.7657 82.3704 17.8046C82.219 17.8337 82.009 17.8823 81.9406 17.9941C81.457 18.7374 80.4167 18.7471 79.9527 19.505C79.9136 19.5681 79.7768 19.5876 79.684 19.5924C79.4691 19.6021 79.3275 19.709 79.1858 19.8548C78.9416 20.1122 78.6583 20.3357 78.4239 20.6029C78.165 20.8896 77.8622 21.0062 77.4812 21.0402C77.1295 21.0693 76.7876 21.2053 76.436 21.2345C75.8694 21.2782 75.3028 21.4968 74.7264 21.1859C74.4187 21.0207 74.194 21.147 74.0231 21.4823C73.984 21.56 73.9743 21.7155 74.0182 21.7495C74.1061 21.8126 74.2478 21.8564 74.3503 21.8321C74.5652 21.7786 74.7655 21.6426 74.9804 21.5989C75.1514 21.5697 75.3809 21.5309 75.503 21.9292C74.746 21.9632 74.5017 22.5997 74.1305 23.1098C74.111 23.1341 74.0915 23.1632 74.0719 23.1875C73.9205 23.3818 73.73 23.4936 73.4809 23.4353C72.6262 23.2458 71.9717 23.7171 71.3074 24.1057C71.0681 24.2466 70.8825 24.5041 70.7164 24.7373C70.648 24.8345 70.7066 25.0191 70.7066 25.2085C71.4002 24.9996 72.0107 24.8102 72.6213 24.6207ZM47.5402 24.3584L47.5158 24.3341C47.3497 24.475 47.1886 24.6304 47.0127 24.7616C46.8369 24.8976 46.7636 25.0531 46.8564 25.262C46.959 25.4903 47.169 25.5729 47.4181 25.5097C47.6916 25.4417 47.8821 25.2814 48.0091 25.0433C48.1117 24.849 48.1996 24.645 48.3022 24.4264C48.8004 24.3341 49.2742 24.2369 49.7528 24.164C50.295 24.0814 50.6271 23.7851 50.7688 23.2604C50.803 23.1389 50.8225 23.0126 50.8372 22.9592C51.3354 22.6628 51.7847 22.415 52.2048 22.1333C52.3806 22.0167 52.5564 21.8321 52.6297 21.6426C52.7665 21.2782 53.0253 21.0547 53.3331 20.8701C53.7189 20.6369 54.1243 20.4329 54.5199 20.2143L54.4955 20.1948C54.7055 20.2726 54.9156 20.36 55.1305 20.4232C55.3161 20.4766 55.5261 20.4669 55.702 20.5398C55.8924 20.6224 56.0585 20.7681 56.2588 20.8993C56.2881 20.6078 56.2441 20.3114 56.3613 20.1171C56.503 19.8888 56.7863 19.7479 56.9572 19.607C56.7667 18.9123 56.8254 18.6888 57.3333 18.4993C57.6899 18.3633 58.1002 18.3827 58.4616 18.2661C58.823 18.1495 59.0331 17.7463 59.458 17.6928C60.1272 17.6102 60.6742 17.2799 61.1578 16.8184C61.3092 16.6726 61.5045 16.4977 61.7634 16.6435C61.7048 16.9495 61.6462 17.2507 61.5925 17.5325C61.4215 17.7949 60.9966 17.6297 60.8745 17.9649C61.0845 18.3293 61.3824 18.373 61.7243 18.271C62.0027 18.1835 62.1297 17.9649 62.1639 17.688C62.1737 17.6248 62.1835 17.5617 62.1932 17.4985C62.2763 17.003 62.5254 16.6823 63.0529 16.5803C63.2971 16.5317 63.5608 16.4248 63.7465 16.2645C64.0688 15.9925 64.3912 15.8661 64.8161 15.9293C65.2606 15.9925 65.6318 15.7593 65.9884 15.5309C66.3254 15.3172 66.1886 14.9431 66.2765 14.6856C66.4719 14.3649 66.931 14.2969 66.9457 13.7965C66.5256 13.5828 66.1007 13.3641 65.622 13.1212C65.5537 12.9075 65.4755 12.6403 65.3632 12.2856C65.1092 12.5334 64.9138 12.6937 64.7575 12.888C64.4351 13.2913 64.1421 13.7237 63.8148 14.122C63.6781 14.2872 63.4778 14.4038 63.3069 14.5447L63.3215 14.5641C63.3215 14.3747 63.2922 14.1755 63.3313 13.9908C63.3801 13.7819 63.4876 13.5876 63.5999 13.3156C63.5218 13.2475 63.4241 13.165 63.3117 13.0629C62.5791 13.2767 61.866 13.471 61.1089 13.4807C60.5277 13.4904 60.3909 13.6265 60.2932 14.2241C60.2248 14.6419 60.0392 14.9382 59.7071 15.1811C59.2138 15.5455 58.7351 15.9293 58.2516 16.3082C58.0757 16.4443 57.8706 16.5657 57.7387 16.7406C57.3138 17.2993 56.8107 17.4013 56.2002 17.0807C56.1513 17.0564 56.0732 17.0856 55.9608 17.0904C55.8338 17.173 55.6726 17.2799 55.5066 17.3771C55.1256 17.586 55.0865 17.5714 54.7397 17.1536C54.7104 17.1147 54.6225 17.1244 54.5639 17.1098C54.1292 17.4937 54.1292 17.4937 54.4271 18.5285C54.7202 18.6062 54.7202 18.0864 55.0426 18.2127C55.0865 18.6305 55.0768 18.7616 54.9351 18.8248C54.349 19.0823 53.7922 19.4321 53.1474 19.4127C53.0791 19.3689 53.0498 19.3543 53.0253 19.3349C52.4881 18.8151 52.195 18.8102 51.7749 19.3495C51.4184 19.8159 50.9983 20.2045 50.4953 20.6272C49.9336 20.3649 49.3377 20.1754 48.9127 20.9916C49.1862 20.9721 49.4012 20.9333 49.6112 20.9527C49.7089 20.9624 49.8701 21.0839 49.8749 21.1616C49.8798 21.2588 49.7724 21.4142 49.6796 21.4531C49.5428 21.5114 49.3719 21.5163 49.2156 21.5017C48.9274 21.4725 48.6392 21.3705 48.3559 21.6086C48.3852 21.6863 48.3999 21.7738 48.4438 21.8515C48.8248 22.5317 48.7418 22.93 48.1264 23.309C47.9359 23.4256 47.7161 23.5033 47.5158 23.6102C47.4035 23.6733 47.296 23.7511 47.213 23.8434C47.0811 23.9891 47.1153 24.1446 47.2716 24.2563C47.3546 24.3001 47.4523 24.3195 47.5402 24.3584ZM85.6625 12.2759C85.6185 12.4508 85.5794 12.6305 85.5257 12.854C85.765 12.7714 85.9262 12.7131 86.0874 12.6548C86.3707 13.2038 86.4146 13.6751 85.9604 14.1026C85.9213 14.1415 85.9457 14.2484 85.936 14.3504C86.5319 14.2484 86.8542 13.8208 87.2792 13.5293C87.2547 13.0483 87.3134 12.5674 87.0789 12.1204C86.5612 12.033 86.1118 12.2662 85.638 12.3099C85.9946 11.8289 85.7699 11.3383 85.7308 10.8719C85.3792 10.7018 85.1008 10.799 84.8223 10.8913C84.1092 11.1245 83.3766 11.1925 82.6293 11.2411C81.965 11.28 81.2617 11.0856 80.5779 11.5034C80.4948 12.0573 80.0308 12.271 79.518 12.4459C79.0881 12.5917 78.6485 12.7277 78.2529 12.9415C76.9146 13.6654 75.674 14.5641 74.2331 15.0937C74.1452 15.1277 74.0622 15.1909 73.984 15.2492C73.4223 15.6524 72.7825 15.8856 72.128 16.0896C71.7274 16.2159 71.3318 16.352 70.8874 16.2354C70.5601 16.1528 70.2524 16.2742 69.974 16.4783C69.5002 16.8232 68.8506 16.7989 68.4012 17.207C68.3279 17.275 68.1521 17.2362 68.0251 17.241C67.8298 17.2459 67.6344 17.2313 67.4439 17.241C67.4097 17.241 67.3804 17.3285 67.3364 17.3868C67.5465 17.5082 67.7614 17.6297 67.9519 17.7414C67.9274 17.8677 67.9372 17.9455 67.903 17.9892C67.7321 18.1787 67.5513 18.3536 67.3657 18.5479C67.2778 18.3681 67.2143 18.2418 67.058 17.9406C66.7601 18.8151 66.1056 18.9997 65.4462 19.2038C65.0359 19.3301 64.6891 19.5875 64.4449 19.9471C64.1518 20.3843 63.683 20.5203 63.2287 20.6904C63.1945 20.705 63.1017 20.6418 63.0871 20.5981C63.0675 20.5495 63.0871 20.4378 63.1213 20.4232C63.3557 20.3212 63.5999 20.2483 63.8295 20.1365C63.8979 20.1025 63.9662 19.9811 63.9614 19.9033C63.9565 19.8305 63.8734 19.7285 63.8002 19.6944C63.6878 19.6459 63.5169 19.5973 63.429 19.6459C62.8087 19.9957 62.0662 20.1268 61.5436 20.6321C61.0943 21.0645 60.6693 21.5066 59.9904 21.5308C59.9611 21.5308 59.9318 21.5551 59.9025 21.5746C59.7071 21.7057 59.5459 21.8709 59.541 22.1187C59.5362 22.3713 59.6827 22.5656 59.8927 22.6628C60.3128 22.862 60.7426 22.998 61.1773 22.6725C61.3189 22.5657 61.4313 22.3519 61.6755 22.4685C61.7439 23.032 61.7439 23.0369 61.5485 23.5227C61.7927 23.4984 62.0125 23.4644 62.2323 23.4644C62.3105 23.4644 62.4179 23.5422 62.4521 23.6102C62.4863 23.683 62.4765 23.8336 62.4228 23.8774C62.1249 24.1154 61.8074 24.3389 61.4899 24.5527C61.3678 24.6304 61.1626 24.5867 61.1333 24.8539C61.5827 24.815 62.0272 24.7762 62.4423 24.7373C62.6426 24.7907 62.6817 25.0968 62.9991 24.9753C63.2824 24.2417 64.1225 24.3146 64.7233 24.0037C64.5035 23.5519 64.0591 24.0377 63.8295 23.6588C64.2935 23.0029 64.8503 22.5219 65.7441 22.7114C66.0567 22.7794 66.3205 22.7017 66.5745 22.5414C66.7405 22.4393 66.9164 22.3519 67.0727 22.2402C67.2241 22.1333 67.4341 22.0361 67.4927 21.8807C67.5513 21.73 67.4634 21.5163 67.4439 21.3705C67.7076 21.0645 67.9323 20.7875 68.1765 20.5252C68.4256 20.2531 68.6308 19.8936 69.1729 19.9374C69.1143 20.1997 69.0899 20.4183 69.0069 20.6126C68.9043 20.8458 68.7089 21.0547 68.7871 21.3317C68.8506 21.5454 68.5282 21.7349 68.7969 21.9924C68.8897 21.9195 69.0166 21.8612 69.0752 21.7689C69.1925 21.5794 69.3048 21.3754 69.3732 21.1616C69.5295 20.6758 69.7933 20.3795 70.3598 20.4232C70.5406 20.4378 70.7604 20.3795 70.9118 20.2774C71.493 19.8839 72.1524 19.7187 72.8167 19.5584C73.2123 19.4612 73.5395 19.2766 73.7642 18.9317C73.7984 18.8831 73.7935 18.8102 73.8082 18.7519C73.6958 18.6548 73.5884 18.5527 73.437 18.4167C73.6079 18.271 73.73 18.1009 73.8961 18.0281C74.575 17.7414 75.1172 17.2993 75.5861 16.7455C75.8743 16.4054 76.2503 16.2111 76.6899 16.2013C77.2565 16.1868 77.701 15.9973 78.0136 15.5212C78.1748 15.2783 78.419 15.2103 78.6925 15.2151C78.8537 15.2151 79.0198 15.2103 79.1809 15.2103C79.684 15.2151 80.148 15.1666 80.4802 14.705C80.5827 14.5593 80.8074 14.501 80.9735 14.4038C81.5303 14.0686 82.1164 13.7819 82.5609 13.2913C82.8344 12.9901 83.2105 12.8249 83.6061 12.8346C84.3583 12.8443 85.0079 12.5528 85.6625 12.2759ZM28.5744 17.892C28.799 17.9358 28.5597 18.3438 28.9309 18.2807C29.0237 18.1787 29.1361 18.0621 29.2435 17.9406C29.3607 17.8046 29.6098 17.7657 29.5561 17.4499C29.1214 17.3139 28.9798 16.8718 28.7942 16.5026C28.5548 16.5366 28.379 16.5657 28.1836 16.5949C28.2032 16.4783 28.1934 16.3908 28.2276 16.3617C28.6672 16.0022 28.8137 15.5455 28.7844 14.9917C28.7697 14.7439 28.8577 14.4913 28.8967 14.2532C28.252 13.8403 28.252 13.8403 27.788 14.1949C27.6366 14.3115 27.49 14.4864 27.3191 14.5204C26.6206 14.6613 26.1224 15.1228 25.5558 15.4872C24.9502 15.8759 24.8379 16.4394 24.7792 17.0564C24.7597 17.275 24.7988 17.5034 24.8232 17.7269C24.8818 18.1884 25.2237 18.4021 25.6584 18.1689C25.9564 18.0086 26.1469 17.9989 26.4399 18.1689C26.5913 18.2564 26.8795 18.169 27.0749 18.0912C27.5682 17.8969 28.0664 17.824 28.5744 17.892ZM66.1837 33.7979C65.9395 33.589 65.5781 33.6036 65.4071 33.2586C65.2459 32.938 64.8699 32.9331 64.5377 33.0206C63.7562 33.2246 62.9698 33.4238 62.1981 33.6522C61.9588 33.725 61.6804 33.8319 61.5339 34.0117C61.1724 34.4586 60.684 34.6918 60.1955 34.9396C59.966 35.0562 59.7266 35.1582 59.4922 35.2651C59.3359 35.3331 59.1845 35.4206 59.2187 35.61C59.2626 35.8627 59.4727 35.8578 59.6729 35.8432C59.966 35.8189 60.259 35.8141 60.5472 35.7752C60.8452 35.7364 61.104 35.7363 61.3629 35.955C61.485 36.0618 61.7243 36.0716 61.9099 36.0667C62.3691 36.057 62.8135 35.9598 63.2092 35.7169C63.5608 35.4983 63.8734 35.5566 64.1958 35.8578C64.9089 35.2991 65.7246 35.0222 66.5989 34.7453C66.4182 34.5849 66.301 34.4829 66.1935 34.3906C66.1837 34.1866 66.1837 33.9971 66.1837 33.7979ZM34.3672 31.6166C35.2464 31.9712 35.9888 32.2724 36.7361 32.5736C36.9754 32.6708 37.2196 32.8214 37.4639 32.8263C37.8302 32.8408 38.1428 32.8748 38.4456 33.1226C38.7094 33.3412 39.061 33.2489 39.3785 33.1469C39.6618 33.0546 39.7888 32.8797 39.7644 32.5639C39.7546 32.4765 39.9011 32.3599 39.9939 32.2773C40.2821 32.0247 40.5605 31.7623 40.7754 31.3979C40.6533 31.2619 40.5507 31.1453 40.4433 31.0287C40.3456 30.9267 40.3993 30.6838 40.1258 30.7227C40.0574 30.8101 39.9744 30.9073 39.9011 31.0093C39.7106 31.2716 39.4371 31.4028 39.1392 31.2959C38.4993 31.0724 37.9327 31.2376 37.371 31.534C37.1561 31.6506 36.9559 31.6311 36.7263 31.534C36.3698 31.3882 35.9986 31.2522 35.6225 31.2036C35.2171 31.1599 34.7921 31.1793 34.3672 31.6166ZM33.1656 28.9737C33.4343 28.7794 33.5759 28.4636 33.9178 28.4393C34.8117 28.3713 35.388 27.8611 35.8178 27.1373C36.0767 26.7049 36.4235 26.3891 36.9266 26.2628C37.0487 26.2336 37.1561 26.1656 37.3124 26.0976C37.2685 25.6749 37.2441 25.2523 37.6104 24.9462C37.6397 24.9219 37.5762 24.7859 37.5518 24.7081C36.614 24.7956 35.9497 25.2474 35.4759 26.0004C35.3929 26.1365 35.2903 26.2774 35.1633 26.3648C34.8507 26.5883 34.5235 26.802 34.1083 26.6028C34.1083 26.4231 34.1083 26.2773 34.1083 26.0441C33.5759 26.4182 33.1608 26.8069 32.7993 27.2441C32.6137 27.4676 32.5698 27.7688 32.6821 28.0798C32.8775 28.1478 33.0728 28.2109 33.2682 28.2789C33.2291 28.551 33.1949 28.7599 33.1656 28.9737ZM51.8336 10.629C51.0911 10.7407 50.505 10.6435 50.0166 11.0905C49.8945 11.2022 49.6649 11.2022 49.4793 11.2362C48.7857 11.3723 48.0873 11.45 47.4621 11.8532C47.1153 12.0767 46.7587 12.4557 46.241 12.1787C46.1824 12.1447 46.0554 12.2176 45.9724 12.2613C45.7428 12.3779 45.523 12.5091 45.3276 12.6208C45.1811 12.9561 45.0395 13.2427 44.932 13.5439C44.8978 13.6459 44.9173 13.816 44.9857 13.8888C45.0541 13.9666 45.2348 14.0152 45.3325 13.9811C45.7574 13.8354 46.2019 13.6994 46.4364 13.2573C46.5731 12.9998 46.8222 12.9172 47.0909 12.9123C47.3156 12.9075 47.5451 12.9172 47.7649 12.9512C48.0433 12.9998 48.2826 12.956 48.4634 12.7277C48.6734 12.4605 48.9567 12.3342 49.2839 12.2516C49.8456 12.1107 50.3976 11.9358 50.9397 11.7755C51.1986 11.45 51.4477 11.1294 51.8336 10.629ZM72.8215 33.9291C72.8802 33.8416 72.9827 33.7445 73.0169 33.6279C73.2123 32.9769 73.7544 32.6271 74.282 32.3453C74.5701 32.1898 74.8485 32.1024 75.0048 31.7915C75.1611 31.4854 75.5861 31.3785 75.6691 30.9704C75.4053 30.7615 75.1611 30.5672 74.9023 30.3583C74.3406 30.6498 73.8033 30.9413 73.2562 31.2182C73.012 31.3396 72.8118 31.4708 72.7287 31.7477C72.6164 32.1315 72.3087 32.3016 71.9619 32.4327C71.7226 32.525 71.4783 32.6174 71.2586 32.7485C71.1316 32.8263 71.0143 32.972 71.2586 33.1323C71.5712 32.9914 71.8544 32.6319 72.3478 32.8554C71.8203 33.3558 71.2097 33.6133 70.4819 33.8028C70.5748 33.9631 70.6236 34.1331 70.692 34.1429C70.9753 34.1866 71.2781 34.2206 71.5614 34.1866C71.9814 34.138 72.382 34.0263 72.8215 33.9291ZM59.6583 20.9138C60.0197 20.8118 60.2688 20.4912 60.6889 20.4426C61.5045 20.3454 62.0125 19.7139 62.1639 18.8151C61.5778 18.8054 61.5729 18.8005 61.3775 18.9948C61.2408 19.1309 61.1284 19.2912 60.9868 19.4224C60.9233 19.4807 60.8159 19.4953 60.7377 19.5244C60.5374 19.3932 60.3567 19.2766 60.1907 19.1697C59.2236 19.8402 59.1552 20.0637 59.6583 20.9138ZM45.9919 31.8303C45.8258 31.5874 45.7526 31.3542 45.9919 31.1404C46.2019 30.951 46.2508 30.7226 46.1433 30.436C46.07 30.232 46.114 29.9842 46.0505 29.7704C46.0017 29.6053 45.8698 29.4595 45.7379 29.2457C45.3325 29.5178 44.9906 29.7558 44.6927 30.0473C44.6634 30.0765 44.6878 30.1591 44.6878 30.2563C44.8099 30.266 44.9369 30.2611 45.059 30.2805C45.1713 30.3 45.2788 30.3437 45.5132 30.4166C45.2397 30.6158 45.059 30.7324 44.9027 30.8732C44.8148 30.9558 44.7317 31.087 44.7269 31.1988C44.6975 31.6506 45.059 31.9712 45.5279 31.9275C45.6598 31.9226 45.7819 31.8789 45.9919 31.8303ZM41.1906 33.7299C41.723 33.5307 42.1528 33.3947 42.5631 33.2101C42.8268 33.0935 43.1053 32.9526 43.2957 32.7485C43.5546 32.4667 43.8428 32.3161 44.2042 32.2384C44.3752 32.1995 44.4729 32.0684 44.4191 31.8449C44.2433 31.7477 44.0235 31.6651 43.8574 31.5291C43.667 31.3736 43.5155 31.1647 43.3104 30.9315C42.8659 31.4902 43.159 32.2044 42.7585 32.7048C42.4556 32.9283 42.0795 32.87 41.7328 32.9234C41.3371 32.9769 41.1759 33.2004 41.1906 33.7299ZM53.5089 16.3908C53.7922 16.1771 54.0657 16.007 54.2904 15.7884C54.4955 15.5941 54.6665 15.3512 54.8228 15.1131C54.9302 14.9479 54.7397 14.6516 54.5639 14.7196C54.0657 14.9091 53.6456 14.7488 53.2207 14.4475C53.0205 14.8071 52.8495 15.1083 52.6932 15.3949C52.913 15.7787 52.9472 16.25 53.5089 16.3908ZM66.0567 27.8611C65.8369 28.3372 65.6709 28.7405 65.7441 29.1826C65.8223 29.2117 65.8516 29.2312 65.8809 29.2312C65.9786 29.2312 66.0714 29.2263 66.1691 29.2214C66.9017 29.168 67.1411 28.9639 67.2339 28.2498C67.2681 28.0069 67.2339 27.7591 67.2241 27.4045C66.975 27.5356 66.8187 27.6377 66.6526 27.7008C66.4768 27.7737 66.2863 27.8028 66.0567 27.8611ZM69.4416 14.9674C69.1241 14.8556 68.8994 14.8119 68.704 14.705C68.3573 14.5155 68.0007 14.569 67.6637 14.6613C67.3609 14.7439 67.1899 14.9722 67.2681 15.3074C68.157 15.6427 68.157 15.6427 69.4416 14.9674ZM58.7889 20.0199C58.0757 20.3017 57.602 20.7341 57.4017 21.424C57.3431 21.6183 57.3382 21.8126 57.6068 21.8807C58.4323 21.5552 58.8719 20.9867 58.7889 20.0199ZM78.6388 6.05248C78.2334 6.33426 77.911 6.2128 77.6033 5.95046C77.5545 5.91159 77.3444 5.98448 77.2761 6.06221C77.2077 6.13994 77.1637 6.31483 77.2077 6.39742C77.3982 6.76179 77.6277 7.10186 78.0575 7.26218C78.4336 6.97069 78.7902 6.7132 78.6388 6.05248ZM25.7659 21.9924C25.7415 22.1624 25.717 22.313 25.6877 22.5122C25.9466 22.6094 26.2055 22.7017 26.4936 22.8086C26.6548 22.6191 26.7916 22.4539 26.9479 22.2742C26.6988 21.9827 26.4741 21.7252 26.2299 21.4434C25.9368 21.5309 25.6633 21.6086 25.3995 21.7009C25.3654 21.7106 25.3556 21.7981 25.3361 21.8515C25.4728 21.8952 25.6193 21.9438 25.7659 21.9924ZM79.474 15.7641C79.1858 15.5115 78.8977 15.5309 78.6241 15.6281C78.4825 15.6767 78.3555 15.7981 78.2578 15.9196C78.0087 16.2354 78.121 16.556 78.502 16.6532C78.9905 16.7795 79.2054 16.6726 79.3861 16.1916C79.4349 16.0459 79.4496 15.8904 79.474 15.7641ZM42.4947 24.7907C42.5875 24.8005 42.6657 24.8345 42.7047 24.8102C43.0857 24.5721 43.452 24.334 43.9063 24.2174C44.2726 24.1203 44.5364 23.8142 44.8538 23.4887C44.4533 23.3381 44.1358 23.3916 43.8721 23.5664C43.4179 23.8677 42.9929 24.2126 42.5631 24.5478C42.5094 24.5867 42.5143 24.7033 42.4947 24.7907ZM48.7906 18.1884C48.9567 18.1252 49.1423 18.0718 49.3035 17.9843C49.4695 17.892 49.6503 17.7851 49.7479 17.6345C49.8163 17.5276 49.8066 17.3236 49.7528 17.1973C49.7186 17.1147 49.533 17.0321 49.4305 17.0515C48.8834 17.1438 48.5024 17.2848 48.6636 17.9941C48.6832 18.0475 48.732 18.0961 48.7906 18.1884ZM42.5436 26.462C43.1736 26.4037 43.6474 26.0101 44.1896 25.7527C44.2384 25.7284 44.2873 25.6555 44.3019 25.602C44.3215 25.5146 44.3459 25.3737 44.3019 25.33C44.2189 25.2523 44.043 25.1648 43.9795 25.2037C43.6816 25.3932 43.3934 25.6021 43.1297 25.8353C42.9148 26.0199 42.7389 26.2531 42.5436 26.462ZM87.9337 25.5097C88.2463 25.432 88.4319 25.4077 88.5979 25.3397C88.9154 25.2085 88.9838 25.0094 88.7445 24.7616C88.5686 24.577 88.5051 24.4069 88.51 24.1689C88.5149 24.0377 88.6517 23.8725 88.4514 23.7656C87.7627 24.1883 88.2511 24.8782 87.9337 25.5097ZM63.2873 18.3001C63.8393 18.1592 64.2788 17.9795 64.611 17.6102C64.6403 17.5762 64.6159 17.4985 64.6159 17.4402C63.6292 17.3042 63.3166 17.4888 63.2873 18.3001ZM73.0218 14.569C72.9681 14.535 72.9095 14.501 72.8557 14.4621C72.5334 14.8605 72.1964 15.2394 71.6835 15.3754C71.6542 15.3803 71.6249 15.4095 71.6151 15.4386C71.5956 15.4969 71.5663 15.5601 71.5809 15.6135C71.5956 15.6621 71.6493 15.7301 71.6982 15.7398C72.0791 15.8321 72.4113 15.7301 72.6213 15.4046C72.7874 15.1471 72.8899 14.8459 73.0218 14.569ZM67.3755 12.4265C67.7956 12.3051 68.0691 12.2322 68.3328 12.1496C68.4208 12.1204 68.5233 12.0767 68.5722 12.0087C68.6357 11.9164 68.6796 11.7852 68.6699 11.6783C68.665 11.6249 68.538 11.5423 68.4598 11.5326C67.9372 11.4889 67.7125 11.6638 67.3755 12.4265ZM55.2331 21.5794C55.2331 21.8126 55.2135 21.9438 55.2379 22.0653C55.2526 22.143 55.3601 22.2742 55.3845 22.2693C55.4919 22.2304 55.6433 22.1721 55.6726 22.0847C55.7899 21.7592 55.6824 21.4288 55.4235 21.3511C55.2184 21.2879 54.984 21.2879 54.7642 21.3025C54.6714 21.3074 54.5834 21.4288 54.3783 21.5892C54.7495 21.5794 54.9595 21.5794 55.2331 21.5794ZM90.2488 21.3511C90.1218 21.5211 89.9949 21.662 89.9118 21.8223C89.863 21.9195 89.8434 22.109 89.8972 22.1624C89.9949 22.2596 90.1609 22.3276 90.3026 22.3276C90.6201 22.3276 90.7275 22.109 90.7373 21.7835C90.664 21.7203 90.5761 21.6377 90.4833 21.5551C90.4198 21.4968 90.3514 21.4385 90.2488 21.3511ZM52.2927 34.9688C51.8336 34.8667 51.521 34.8716 51.2279 34.993C51.1009 35.0465 50.9788 35.1922 50.9251 35.3234C50.8909 35.406 50.9593 35.5615 51.0276 35.6489C51.0618 35.6926 51.2181 35.6829 51.2816 35.644C51.5796 35.4691 51.858 35.2651 52.2927 34.9688ZM23.6803 13.4564C23.3579 13.4419 23.3628 13.6605 23.3042 13.8403C23.2456 14.02 23.1576 14.19 23.0697 14.3601C22.9867 14.5204 22.7229 14.5544 22.7571 14.8216C22.933 14.9674 23.1088 14.9188 23.2553 14.7682C23.6119 14.3941 23.7291 13.952 23.6803 13.4564ZM59.6729 25.5486C60.2737 25.432 60.2932 25.432 60.4837 25.194C60.5326 25.1357 60.5228 25.0191 60.5081 24.9365C60.4984 24.8928 60.43 24.8344 60.3763 24.8247C59.8829 24.713 59.5801 25.0337 59.6729 25.5486ZM76.3334 17.3576C77.11 17.586 77.32 17.003 77.7352 16.3957C77.0318 16.5657 76.7681 17.071 76.3334 17.3576ZM57.2894 15.2831C57.2747 15.22 57.2649 15.152 57.2503 15.0888C57.0061 15.0888 56.757 15.0597 56.5225 15.0985C56.3858 15.1228 56.2588 15.2491 56.1562 15.3609C56.1074 15.4143 56.0878 15.5552 56.1269 15.6135C56.1611 15.6718 56.3027 15.7252 56.3613 15.701C56.6788 15.5746 56.9816 15.424 57.2894 15.2831ZM51.14 23.8142C51.858 23.9017 51.9459 23.8434 51.985 23.2555C51.3354 23.2264 51.3354 23.2264 51.14 23.8142ZM60.5619 29.202C60.938 29.4303 61.1724 29.3964 61.3287 29.1437C61.4752 28.9057 61.568 28.6384 61.5241 28.2741C61.0943 28.4781 60.9135 28.8474 60.5619 29.202ZM69.4269 4.33267C69.7298 4.22093 70.0228 4.11891 70.3061 3.99746C70.4282 3.94402 70.5064 3.84685 70.394 3.70596C69.4758 3.74483 69.4269 3.77397 69.4269 4.33267ZM56.8009 2.92378C57.0549 2.7003 57.2552 2.52055 57.514 2.29707C56.7472 2.25335 56.3418 2.32623 56.2637 2.52056C56.4053 2.62744 56.5567 2.73917 56.8009 2.92378ZM58.4518 2.36995C59.1161 2.39424 59.121 2.39423 59.3505 2.23876C59.3945 2.20961 59.4287 2.13189 59.4238 2.07845C59.4189 2.02501 59.3701 1.94242 59.3261 1.9327C58.9256 1.81611 58.6863 1.93756 58.4518 2.36995ZM58.7644 14.8945C58.5397 14.7536 58.4176 14.8799 58.3102 14.9917C58.0513 15.2491 57.9781 15.5649 57.9781 16.0702C58.3932 15.6475 58.7058 15.3512 58.7644 14.8945ZM38.4554 3.79826C38.0793 3.94887 37.6788 4.04117 37.371 4.37153C37.9425 4.47841 38.2307 4.33753 38.4554 3.79826ZM68.6259 33.5016C69.0704 33.7445 69.1388 33.7493 69.2511 33.487C69.3341 33.2975 69.3781 33.0886 69.4709 32.7874C69.002 32.9477 68.7675 33.1663 68.6259 33.5016ZM54.4906 5.07113C55.0914 4.89138 55.0914 4.89137 55.3552 4.08976C54.8667 4.2015 54.7153 4.56588 54.4906 5.07113ZM67.146 11.3091C66.7601 11.4063 66.5403 11.5666 66.3889 11.8144C66.3498 11.8727 66.3693 12.0087 66.4133 12.067C66.4621 12.1204 66.594 12.1593 66.6575 12.135C66.9848 12.0087 67.1411 11.7609 67.146 11.3091ZM54.432 13.6799C54.4076 13.6265 54.393 13.539 54.349 13.5196C54.0901 13.3982 53.8459 13.4613 53.631 13.6362C53.5919 13.6654 53.5724 13.7528 53.5822 13.8062C53.5919 13.8597 53.6457 13.9326 53.6945 13.9471C53.9631 14.0394 54.2025 13.9763 54.3978 13.7674C54.4174 13.7431 54.4174 13.7091 54.432 13.6799ZM45.5914 25.16C46.241 25.1405 46.2898 25.1454 46.3875 24.9268C46.4413 24.8053 46.3973 24.6401 46.3973 24.4215C45.9772 24.5867 45.7428 24.8005 45.5914 25.16ZM62.3447 30.2854C62.8477 30.4069 63.0968 30.3 63.3069 30.0862C63.3997 29.9939 63.468 29.8822 63.3069 29.7218C63.2141 29.7607 63.092 29.7996 62.9894 29.8579C62.8282 29.955 62.6768 30.0668 62.3447 30.2854ZM91.3185 25.0579C90.7226 24.7033 90.3661 24.8393 89.9509 25.2328C90.4735 25.4466 90.8008 25.1357 91.3185 25.0579ZM91.1182 23.7316C90.9522 23.6053 90.8692 23.4936 90.7715 23.479C90.581 23.4499 90.41 23.6102 90.3905 23.8191C90.3807 23.9648 90.4735 24.0911 90.6103 24.0474C90.7715 23.9988 90.9033 23.8725 91.1182 23.7316ZM51.5161 15.8953C51.7359 16.0702 51.985 16.0848 52.2194 15.9779C52.2976 15.9439 52.3708 15.7641 52.3464 15.6718C52.3269 15.5844 52.1755 15.4726 52.0827 15.4775C51.8189 15.4823 51.6235 15.6232 51.5161 15.8953ZM59.8878 23.4158C59.8927 23.3673 59.8439 23.2798 59.7999 23.2604C59.5997 23.1778 59.2968 23.3915 59.2431 23.6588C59.2333 23.6976 59.2919 23.7899 59.3359 23.7997C59.5899 23.8774 59.8585 23.6879 59.8878 23.4158ZM40.3456 19.743C40.0477 19.4175 39.823 19.471 39.6178 19.6361C39.5592 19.6847 39.5104 19.8013 39.525 19.8693C39.5397 19.9228 39.6716 19.9908 39.7351 19.9762C39.906 19.9325 40.0721 19.8499 40.3456 19.743ZM38.4114 23.9163C38.2649 23.8045 38.1965 23.7316 38.1135 23.7025C37.9425 23.6393 37.7911 23.6879 37.7227 23.8579C37.6934 23.926 37.7178 24.0814 37.7667 24.1057C37.8644 24.1543 38.0011 24.1689 38.1135 24.1494C38.1916 24.13 38.26 24.0377 38.4114 23.9163ZM40.2088 23.5082C39.7497 23.5325 39.6178 23.7899 39.3541 24.0523C39.8279 24.1154 40.0721 24.0037 40.2088 23.5082ZM76.7876 20.4766C77.1491 20.4475 77.4617 20.4183 77.7108 20.0782C76.983 19.9811 76.983 19.9811 76.7876 20.4766ZM75.2344 19.6604C74.5653 19.6944 74.5701 19.6944 74.1257 20.1268C74.5994 19.9811 74.9804 19.9859 75.2344 19.6604ZM35.1438 14.3795C35.4369 14.4718 35.686 14.4767 35.9253 14.3552C35.9888 14.3212 36.0523 14.1901 36.0327 14.1318C36.0132 14.0686 35.8862 13.9957 35.8178 14.0054C35.5687 14.0443 35.3294 14.1123 35.1438 14.3795ZM77.1295 31.4465C76.9928 31.3542 76.9244 31.2716 76.8462 31.2668C76.6557 31.2473 76.5043 31.4271 76.5434 31.6409C76.5532 31.7089 76.7046 31.8157 76.7192 31.8012C76.8511 31.704 76.9732 31.5874 77.1295 31.4465ZM76.4311 24.5041C76.2894 24.4992 76.2162 24.6693 76.265 24.8928C76.2943 25.0191 76.3334 25.1648 76.5043 25.1017C76.5678 25.0774 76.6264 24.9559 76.6313 24.8733C76.646 24.7178 76.6264 24.5527 76.4311 24.5041ZM46.7148 23.4499C46.4559 23.3187 46.2361 23.3576 46.0407 23.581C46.5096 23.9454 46.5634 23.9357 46.7148 23.4499ZM78.1943 18.9074C78.082 19.0046 77.9599 19.0871 77.8573 19.194C77.7108 19.3495 77.701 19.5827 77.8231 19.5778C77.9354 19.573 78.0722 19.5293 78.1504 19.4515C78.2773 19.3204 78.3946 19.1552 78.1943 18.9074ZM60.0197 18.0475C59.966 18.0135 59.9171 17.96 59.8634 17.9552C59.6583 17.9503 59.4922 18.0378 59.4238 18.2418C59.4092 18.2855 59.4434 18.3876 59.4824 18.407C59.6973 18.5042 59.839 18.3633 59.9709 18.2224C60.0099 18.1835 60.0051 18.1106 60.0197 18.0475ZM68.1668 13.816C68.2645 13.6119 68.3524 13.5099 68.3621 13.403C68.3768 13.2621 68.2645 13.1407 68.1277 13.1892C68.0349 13.2184 67.9372 13.3641 67.9323 13.4613C67.9274 13.5488 68.0447 13.6411 68.1668 13.816ZM54.2513 29.8482C53.9241 29.9162 53.5968 29.9988 53.2012 30.4117C53.7433 30.2708 54.0755 30.2223 54.2513 29.8482ZM41.723 2.08331C41.2394 2.03473 41.2394 2.03471 40.9708 2.20961C41.215 2.37479 41.4299 2.36995 41.723 2.08331ZM35.5541 13.199C34.9973 13.3933 34.9973 13.3981 34.88 13.7965C35.1536 13.5536 35.3538 13.3787 35.5541 13.199ZM65.0652 3.31244C65.1531 3.18613 65.2411 3.11325 65.2411 3.04037C65.2411 2.88005 65.1141 2.81205 64.9724 2.85577C64.8991 2.88006 64.7819 3.02094 64.7917 3.03551C64.8552 3.12782 64.9529 3.20556 65.0652 3.31244ZM54.6909 12.3488C54.7202 12.3925 54.7544 12.4314 54.7837 12.4751C54.8912 12.4216 55.0084 12.3828 55.1012 12.3099C55.1891 12.237 55.277 12.1399 55.3112 12.033C55.3454 11.931 55.0621 11.9261 54.9156 12.0621C54.8277 12.1399 54.7642 12.2516 54.6909 12.3488ZM55.9657 12.6305C55.8289 12.5188 55.7459 12.4119 55.702 12.4216C55.5945 12.4557 55.4919 12.5334 55.4138 12.616C55.3991 12.6354 55.4968 12.8103 55.5163 12.8054C55.6482 12.7763 55.7703 12.7131 55.9657 12.6305ZM80.0406 18.4118C80.5241 18.1106 80.5241 18.1107 80.6511 17.7754C80.4509 17.9066 80.2897 17.9989 80.1383 18.1107C80.0992 18.1398 80.0992 18.2224 80.0406 18.4118ZM45.1811 21.2296C45.2886 21.079 45.3667 20.9722 45.4351 20.8556C45.44 20.8507 45.3325 20.7487 45.313 20.7584C45.1958 20.8313 45.0883 20.9187 44.976 21.0013C45.0297 21.0645 45.0785 21.1227 45.1811 21.2296ZM87.5331 28.0846C87.9386 27.7737 87.9386 27.7737 87.9679 27.4725C87.7432 27.5939 87.5771 27.7543 87.5331 28.0846ZM64.0932 29.4643C64.0981 29.5178 64.0932 29.5615 64.1079 29.581C64.2544 29.751 64.4351 29.7753 64.6305 29.6781C64.6696 29.6587 64.6794 29.5712 64.6989 29.5129C64.5866 29.4692 64.4742 29.4061 64.357 29.3963C64.2691 29.3866 64.1763 29.4401 64.0932 29.4643ZM55.5066 35.3623C55.3259 35.2214 55.2379 35.0951 55.1598 35.1048C55.067 35.1145 54.9644 35.2165 54.9009 35.304C54.8765 35.338 54.9742 35.508 55.0035 35.5032C55.1354 35.4934 55.2624 35.44 55.5066 35.3623ZM45.5572 35.8286C45.6744 35.678 45.7575 35.5663 45.8356 35.4497C45.8405 35.4449 45.7526 35.3477 45.7086 35.3477C45.5425 35.3477 45.3814 35.3963 45.3521 35.5809C45.3423 35.6295 45.4497 35.7023 45.5572 35.8286ZM27.4314 10.0897C27.5145 10.0071 27.5926 9.92937 27.6756 9.84678C27.617 9.78848 27.5584 9.73504 27.4998 9.67674C27.4217 9.76419 27.3386 9.85163 27.2702 9.94394C27.2702 9.94394 27.3484 10.012 27.4314 10.0897ZM45.3472 33.9728C45.3862 34.036 45.4253 34.0991 45.4644 34.1623C45.6109 34.0554 45.7575 33.9436 45.904 33.8368C45.8796 33.7979 45.8551 33.759 45.8258 33.7202C45.6695 33.8028 45.5084 33.8854 45.3472 33.9728ZM90.7129 21.113C91.0108 20.9867 91.1231 20.9527 91.2159 20.8896C91.3185 20.8167 91.4357 20.7098 91.2892 20.5884C91.2452 20.5543 91.0987 20.5981 91.0352 20.6515C90.9522 20.7244 90.8985 20.841 90.7129 21.113ZM62.4863 29.0271C62.374 28.9494 62.3105 28.8668 62.247 28.8717C62.1688 28.8765 62.0662 28.93 62.0174 28.9931C61.9783 29.0466 61.9832 29.1486 61.9979 29.2263C62.0027 29.2506 62.1151 29.2798 62.1542 29.2603C62.2567 29.2069 62.3446 29.1291 62.4863 29.0271ZM47.3351 27.2101C47.4279 27.1373 47.5451 27.0498 47.6623 26.9527C47.677 26.9381 47.6819 26.8943 47.6721 26.8701C47.6623 26.8458 47.6233 26.8166 47.6086 26.8215C47.467 26.8798 47.3302 26.9381 47.1983 27.0158C47.1788 27.0304 47.1934 27.1178 47.2032 27.1713C47.2032 27.1761 47.2521 27.181 47.3351 27.2101ZM71.0827 26.4231C71.2048 26.3211 71.2976 26.2531 71.3709 26.1607C71.3807 26.1462 71.2488 25.9761 71.2195 25.9859C71.112 26.0199 71.0143 26.0927 70.9362 26.1753C70.9215 26.1899 71.0095 26.3114 71.0827 26.4231ZM52.7616 17.7171C52.6541 17.8094 52.576 17.8823 52.4978 17.9503C52.576 17.994 52.6541 18.0718 52.7323 18.0718C52.8104 18.0718 52.8837 17.9892 52.9618 17.9455C52.9081 17.8823 52.8544 17.8192 52.7616 17.7171ZM50.7395 34.104C50.6613 34.0651 50.5881 34.0068 50.5636 34.0214C50.4953 34.07 50.4415 34.1477 50.3878 34.2157C50.4562 34.2497 50.549 34.3323 50.5832 34.3129C50.6516 34.274 50.6906 34.1768 50.7395 34.104ZM66.9652 33.8708C66.8822 33.8416 66.804 33.793 66.7259 33.793C66.6966 33.793 66.6624 33.8853 66.6331 33.9339C66.7064 33.9777 66.7747 34.0263 66.848 34.0505C66.8626 34.0554 66.9115 33.9534 66.9652 33.8708ZM63.0968 31.087C63.048 30.985 63.004 30.8878 62.9991 30.8878C62.8966 30.9267 62.794 30.9753 62.6914 31.0238C62.7256 31.0919 62.7794 31.223 62.794 31.2182C62.9015 31.1939 62.9991 31.1356 63.0968 31.087ZM77.8817 28.8814C77.7889 28.8182 77.7108 28.7599 77.7059 28.7599C77.6326 28.8474 77.5545 28.9348 77.5056 29.032C77.491 29.0563 77.5593 29.1194 77.5935 29.168C77.6863 29.0806 77.7791 28.9834 77.8817 28.8814ZM57.9634 19.5438C58.0171 19.6459 58.0415 19.6993 58.066 19.7479C58.1588 19.6896 58.2565 19.6361 58.3395 19.5633C58.3493 19.5535 58.2809 19.4224 58.2662 19.4224C58.1685 19.4515 58.0709 19.5001 57.9634 19.5438ZM50.041 14.156C49.8749 14.0297 49.7431 14.122 49.621 14.2241C49.5819 14.2532 49.5575 14.3455 49.577 14.3892C49.5965 14.4281 49.6893 14.467 49.7333 14.4524C49.8798 14.4038 50.0508 14.3747 50.041 14.156ZM49.45 13.2718C49.6893 13.4127 49.9091 13.4516 49.9531 13.0484C49.7577 13.1358 49.6014 13.2038 49.45 13.2718ZM53.9827 3.7837C53.9241 3.83228 53.8654 3.8857 53.8068 3.93429C53.8459 3.97315 53.8996 4.04603 53.9241 4.04118C53.9973 4.01689 54.0608 3.95858 54.1243 3.90999C54.0852 3.87599 54.0462 3.842 53.9827 3.7837ZM72.9192 3.6088C72.4992 3.67681 72.4748 3.72052 72.5969 4.15291C72.7141 3.95858 72.8069 3.79827 72.9192 3.6088ZM65.5243 16.386C65.4755 16.3228 65.4315 16.2402 65.4071 16.2451C65.3241 16.2645 65.2508 16.3131 65.1727 16.352C65.2166 16.4103 65.2704 16.5172 65.3094 16.5123C65.3876 16.5074 65.4511 16.4346 65.5243 16.386ZM35.134 30.6643C35.095 30.5866 35.0608 30.4846 35.0412 30.4894C34.9631 30.504 34.8849 30.5478 34.8117 30.5769C34.8507 30.6449 34.8849 30.7129 34.924 30.7858C34.9924 30.7469 35.0656 30.7081 35.134 30.6643ZM41.6204 31.3396C41.5667 31.2328 41.5423 31.1793 41.5178 31.1259C41.4153 31.1745 41.3127 31.2231 41.2199 31.2814C41.215 31.2862 41.2736 31.432 41.2883 31.4271C41.4006 31.4125 41.5081 31.3736 41.6204 31.3396ZM43.1883 35.0756C43.0076 35.0125 42.9245 34.9542 42.8562 34.9736C42.778 34.993 42.7194 35.0756 42.651 35.1339C42.7096 35.1874 42.778 35.2943 42.8269 35.2845C42.9245 35.2602 43.0125 35.1825 43.1883 35.0756ZM26.7818 20.8215C26.8551 20.7341 26.9186 20.6612 26.9821 20.5835C26.9332 20.5592 26.8746 20.5058 26.8404 20.5155C26.7672 20.5446 26.7085 20.6078 26.6451 20.6564C26.6792 20.6952 26.7085 20.7341 26.7818 20.8215ZM48.4389 25.6895C48.3852 25.7527 48.3364 25.8158 48.2875 25.8741C48.3315 25.8984 48.3852 25.947 48.4243 25.9373C48.4731 25.9227 48.522 25.8741 48.5513 25.8255C48.5513 25.8061 48.4878 25.7527 48.4389 25.6895ZM53.084 27.6522C53.04 27.6279 52.9863 27.5696 52.9521 27.5794C52.9081 27.5939 52.8788 27.6571 52.8446 27.696C52.8886 27.7202 52.9423 27.7737 52.9765 27.764C53.0205 27.7542 53.0498 27.6911 53.084 27.6522ZM32.2034 27.8854C32.1204 27.8708 32.0569 27.8369 32.0129 27.8563C31.969 27.8757 31.925 27.9437 31.9201 27.9923C31.9153 28.0215 32.0178 28.0895 32.0227 28.0846C32.0911 28.0263 32.1399 27.9583 32.2034 27.8854ZM65.0506 28.4927C65.0701 28.5413 65.0799 28.6142 65.1141 28.6287C65.1531 28.6433 65.2117 28.6045 65.2655 28.585C65.2411 28.5219 65.2117 28.4587 65.1873 28.3955C65.1385 28.4247 65.0945 28.4587 65.0506 28.4927ZM83.8846 29.1194C83.8357 29.0951 83.7771 29.0417 83.7429 29.0514C83.699 29.066 83.6696 29.134 83.6355 29.1777C83.6843 29.202 83.7429 29.2603 83.7722 29.2506C83.8211 29.2312 83.8504 29.1632 83.8846 29.1194ZM60.4251 31.1162C60.3909 31.0773 60.3616 31.0336 60.3177 31.0044C60.3079 30.9947 60.2444 31.0287 60.2444 31.0433C60.2444 31.0919 60.2639 31.1453 60.2737 31.1939C60.3274 31.1647 60.3763 31.1404 60.4251 31.1162ZM71.1511 31.6603C71.0925 31.6457 71.0388 31.6311 70.9801 31.6263C70.9655 31.6263 70.9313 31.6894 70.9362 31.6991C70.9704 31.738 71.0143 31.7672 71.0583 31.8012C71.0925 31.7526 71.1218 31.7089 71.1511 31.6603ZM48.8834 35.2262C48.8346 35.2068 48.7857 35.1874 48.7369 35.1776C48.7271 35.1776 48.6929 35.236 48.7027 35.2408C48.732 35.2797 48.7711 35.3088 48.8102 35.3428C48.8346 35.3088 48.859 35.27 48.8834 35.2262ZM42.104 35.6732C42.0893 35.6246 42.0747 35.5809 42.06 35.5323C42.0112 35.5469 41.9477 35.5517 41.9184 35.5857C41.8988 35.6052 41.9379 35.6732 41.9526 35.7218C42.0014 35.7072 42.0502 35.6878 42.104 35.6732ZM66.7894 4.18206C66.8089 4.12862 66.8334 4.08005 66.8529 4.02661C66.7992 4.02661 66.7405 4.01689 66.6868 4.02661C66.6722 4.03147 66.6477 4.09947 66.6526 4.10432C66.6966 4.13347 66.7454 4.15777 66.7894 4.18206ZM47.5451 6.61604C47.5158 6.57718 47.4816 6.50916 47.4572 6.51402C47.4084 6.51888 47.3693 6.56747 47.3253 6.59662C47.3546 6.63548 47.3888 6.70834 47.4132 6.70348C47.4621 6.69863 47.5012 6.65005 47.5451 6.61604ZM28.8039 8.86056C28.7893 8.81684 28.7795 8.76825 28.76 8.72938C28.7551 8.71966 28.6867 8.72939 28.6818 8.73911C28.6623 8.78283 28.6574 8.83627 28.6476 8.87999C28.7014 8.87513 28.7502 8.87028 28.8039 8.86056ZM51.7994 13.1941C51.7554 13.2281 51.7163 13.267 51.6724 13.301C51.7163 13.3301 51.7603 13.3593 51.8091 13.3787C51.8238 13.3836 51.8824 13.335 51.8775 13.3301C51.858 13.2816 51.8238 13.2427 51.7994 13.1941ZM38.1525 17.0613C38.1037 17.0856 38.0304 17.0953 38.006 17.1341C37.9865 17.1681 38.0304 17.2313 38.0451 17.2847C38.1135 17.2507 38.1867 17.2167 38.2551 17.1876C38.2209 17.1439 38.1867 17.105 38.1525 17.0613ZM51.7994 17.0953C51.7456 17.0807 51.6822 17.0418 51.6431 17.0564C51.5942 17.0807 51.5649 17.1487 51.5307 17.1973C51.5845 17.2119 51.6528 17.2507 51.6919 17.2313C51.7408 17.2167 51.7652 17.1439 51.7994 17.0953ZM46.1726 18.1641C46.1677 18.1349 46.158 18.1106 46.1531 18.0815C46.0847 18.1155 46.0114 18.1495 45.9431 18.1835C45.9772 18.2175 46.0212 18.2807 46.0359 18.2758C46.0896 18.2515 46.1287 18.203 46.1726 18.1641ZM44.0235 19.1357C44.0675 19.1017 44.1114 19.0629 44.1554 19.0289C44.1163 18.9948 44.0772 18.9511 44.0333 18.922C44.0284 18.9171 43.9649 18.9608 43.9698 18.9803C43.9747 19.0337 44.004 19.0823 44.0235 19.1357ZM23.8561 23.7073C23.9001 23.6005 23.9391 23.5082 23.9782 23.411C23.9245 23.4013 23.8463 23.3576 23.8219 23.3818C23.7633 23.4353 23.7193 23.513 23.6851 23.5859C23.6803 23.5956 23.7633 23.6442 23.8561 23.7073ZM30.2741 25.8207C30.2595 25.7915 30.2497 25.7672 30.235 25.7381C30.1911 25.7672 30.1422 25.7915 30.0983 25.8255C30.0934 25.8304 30.1227 25.879 30.1325 25.9033C30.1862 25.8741 30.2302 25.8498 30.2741 25.8207ZM26.2103 25.8984C26.2006 25.8498 26.1859 25.7964 26.1762 25.7478C26.1224 25.7672 26.0492 25.7721 26.0199 25.8061C26.0003 25.8304 26.0394 25.9033 26.0541 25.9518C26.1029 25.9373 26.1566 25.9178 26.2103 25.8984ZM70.5406 4.8768C70.5406 4.90109 70.5454 4.92539 70.5454 4.94968C70.5845 4.9351 70.6187 4.92051 70.6578 4.90593C70.6431 4.8865 70.6334 4.85737 70.6138 4.85251C70.5894 4.84765 70.565 4.86709 70.5406 4.8768ZM79.5717 7.21846C79.5668 7.19417 79.5619 7.15045 79.5619 7.15045C79.5131 7.15045 79.4642 7.16016 79.4203 7.16502C79.4252 7.18931 79.43 7.23789 79.4349 7.23789C79.4789 7.23303 79.5228 7.22332 79.5717 7.21846ZM83.4108 9.48241C83.3717 9.51642 83.3375 9.55043 83.2984 9.58444C83.3375 9.60873 83.3717 9.63787 83.4157 9.64758C83.4303 9.65244 83.4743 9.60872 83.4743 9.599C83.4596 9.56013 83.4303 9.52127 83.4108 9.48241ZM52.5516 11.0079C52.5858 11.0419 52.6199 11.0759 52.6541 11.1099C52.6688 11.0905 52.703 11.0565 52.6981 11.0516C52.6688 11.0127 52.6346 10.9836 52.6004 10.9496C52.576 10.969 52.5613 10.9885 52.5516 11.0079ZM44.7806 12.6888C44.7708 12.6646 44.7659 12.6403 44.7562 12.6111C44.7122 12.6354 44.6634 12.6597 44.6243 12.6937C44.6194 12.6986 44.6389 12.7423 44.6487 12.7666C44.6927 12.7423 44.7366 12.7131 44.7806 12.6888ZM67.5562 13.5488C67.5416 13.5245 67.5269 13.5002 67.5123 13.4759C67.4732 13.5099 67.4292 13.539 67.3951 13.5779C67.3902 13.5828 67.4195 13.6216 67.439 13.6459C67.4732 13.6119 67.5123 13.5828 67.5562 13.5488ZM34.4551 21.9827C34.4063 21.9729 34.3574 21.9632 34.3135 21.9632C34.2988 21.9632 34.2695 22.0215 34.2744 22.0312C34.3037 22.0652 34.3428 22.0896 34.377 22.1187C34.4063 22.075 34.4307 22.0264 34.4551 21.9827ZM40.624 21.8952C40.5947 21.9341 40.5605 21.9778 40.5312 22.0167C40.5801 22.0312 40.624 22.0507 40.6729 22.0507C40.6875 22.0507 40.7217 21.9972 40.7168 21.9924C40.6924 21.9584 40.6582 21.9292 40.624 21.8952ZM41.4934 22.2693C41.5178 22.2207 41.5374 22.177 41.5618 22.1284C41.5325 22.1187 41.4837 22.0944 41.4837 22.0993C41.4544 22.143 41.4348 22.1916 41.4104 22.2353C41.4397 22.2499 41.4641 22.2596 41.4934 22.2693ZM28.2911 24.2029C28.2422 24.1883 28.1983 24.164 28.1494 24.1592C28.1348 24.1592 28.0908 24.2175 28.0957 24.2272C28.1201 24.2709 28.1592 24.3049 28.1934 24.3438C28.2276 24.2952 28.2618 24.2515 28.2911 24.2029ZM26.8746 24.7761C26.8844 24.7519 26.9039 24.7227 26.899 24.7033C26.8942 24.6887 26.86 24.679 26.8355 24.6644C26.8209 24.7033 26.8111 24.7421 26.7965 24.781C26.8258 24.781 26.8502 24.7761 26.8746 24.7761ZM36.7849 27.5696C36.7703 27.5891 36.7556 27.6036 36.7361 27.6231C36.7703 27.6377 36.8045 27.6571 36.8435 27.6717C36.8484 27.6474 36.8582 27.6182 36.8484 27.6037C36.8387 27.5842 36.8093 27.5793 36.7849 27.5696ZM81.5694 29.4109C81.5401 29.4547 81.5059 29.5032 81.4766 29.5469C81.5059 29.5567 81.5498 29.5858 81.5547 29.581C81.5889 29.5421 81.6182 29.4935 81.6475 29.4449C81.6182 29.4352 81.5938 29.4206 81.5694 29.4109ZM78.8342 31.189C78.8439 31.1647 78.8635 31.1404 78.8586 31.121C78.8537 31.1016 78.8195 31.0967 78.8 31.0822C78.7902 31.121 78.7755 31.155 78.7658 31.1939C78.7902 31.1939 78.8146 31.189 78.8342 31.189ZM39.6276 36.7129C39.6325 36.6837 39.6325 36.6546 39.6374 36.6254C39.5837 36.6254 39.525 36.6206 39.4713 36.6206C39.4713 36.6691 39.4713 36.7177 39.4713 36.7712C39.5202 36.7469 39.5739 36.7323 39.6276 36.7129ZM51.6968 1.8744L51.7115 1.80152L51.6431 1.83068L51.6968 1.8744ZM50.9104 4.31324C50.8616 4.29867 50.8274 4.28894 50.7932 4.27923C50.803 4.30352 50.8078 4.32781 50.8176 4.3521C50.842 4.34238 50.8665 4.33268 50.9104 4.31324ZM35.388 4.65818C35.3392 4.62418 35.3099 4.60474 35.2806 4.58531C35.2806 4.6096 35.2757 4.64846 35.2854 4.65332C35.305 4.66789 35.3343 4.65818 35.388 4.65818ZM34.8556 5.86302C34.8458 5.83873 34.841 5.80957 34.8312 5.78528C34.8068 5.795 34.7677 5.79986 34.7579 5.8193C34.7482 5.83387 34.7726 5.86789 34.7775 5.89703C34.8019 5.88732 34.8263 5.87273 34.8556 5.86302ZM38.05 12.3925C38.0597 12.3682 38.0842 12.3439 38.0793 12.3245C38.0744 12.305 38.0402 12.3002 38.0158 12.2856C38.0011 12.3245 37.9865 12.3634 37.9718 12.4022C37.9962 12.3974 38.0207 12.3925 38.05 12.3925ZM46.4315 14.2095C46.3875 14.2435 46.3436 14.2775 46.2996 14.3115C46.3191 14.3358 46.3485 14.3747 46.3533 14.3747C46.4022 14.3504 46.4413 14.3163 46.4852 14.2823C46.4706 14.2581 46.451 14.2338 46.4315 14.2095ZM64.3668 18.8977C64.3472 18.9171 64.3326 18.9365 64.313 18.956C64.3521 18.9706 64.3863 18.9851 64.4254 18.9948C64.4303 18.9705 64.4449 18.9365 64.4351 18.922C64.4254 18.9074 64.3912 18.9074 64.3668 18.8977ZM77.2809 18.8345C77.3054 18.8345 77.3347 18.8394 77.3542 18.8297C77.364 18.8248 77.3591 18.7908 77.364 18.7714C77.3395 18.7714 77.3102 18.7665 77.2907 18.7714C77.2809 18.7762 77.2809 18.8102 77.2809 18.8345ZM84.7051 21.3317C84.7295 21.3171 84.7491 21.3074 84.7735 21.2928C84.7442 21.2685 84.7149 21.2442 84.6856 21.2199C84.6758 21.2442 84.6514 21.2636 84.6514 21.2879C84.6514 21.3025 84.6856 21.3122 84.7051 21.3317ZM32.3988 23.8239C32.3988 23.7997 32.4086 23.7657 32.3939 23.7511C32.3793 23.7365 32.3451 23.7365 32.3206 23.7316C32.3206 23.7705 32.3255 23.8142 32.3255 23.8531C32.3548 23.8434 32.3793 23.8337 32.3988 23.8239ZM58.3444 25.0822C58.3297 25.0579 58.32 25.0142 58.3004 25.0094C58.276 25.0045 58.2418 25.0239 58.2125 25.0336C58.2369 25.0725 58.2565 25.1114 58.2809 25.1502C58.3053 25.1259 58.3248 25.1065 58.3444 25.0822ZM57.9487 27.1373L57.9634 27.0692L57.8999 27.0935L57.9487 27.1373ZM66.0519 26.9429C66.0226 26.9429 65.9884 26.9332 65.9639 26.9478C65.9542 26.9526 65.9591 26.9964 65.9542 27.0207C65.9835 27.0207 66.0177 27.0304 66.0421 27.0207C66.0519 27.0158 66.047 26.9721 66.0519 26.9429ZM30.9384 28.0117L30.8993 27.9583L30.8651 28.0215L30.9384 28.0117ZM39.4518 27.9583L39.4371 27.8951L39.3736 27.934L39.4518 27.9583ZM58.5837 29.2409C58.5788 29.2117 58.5691 29.1874 58.5642 29.1583C58.5397 29.168 58.5007 29.1777 58.4909 29.1971C58.4811 29.2117 58.5007 29.2457 58.5104 29.2749C58.53 29.2603 58.5544 29.2506 58.5837 29.2409ZM71.9814 31.8692L71.9033 31.8546L71.9228 31.9275L71.9814 31.8692ZM81.7648 10.6144L81.6964 10.6484L81.7599 10.6824L81.7648 10.6144ZM82.7221 20.1268L82.6684 20.156L82.7221 20.1851V20.1268Z" fill="#1FCCE8"/>
<path d="M18.0486 49.6941C17.1108 49.7864 17.1108 49.7864 16.8812 48.9411C16.7005 48.9557 16.5149 48.9654 16.3049 48.9799C16.2414 48.9216 16.173 48.8585 16.1046 48.7953C15.6162 48.3581 15.4453 47.7994 15.3915 47.163C15.3622 46.8229 15.1571 46.4974 15.1034 46.1524C15.0496 45.8075 15.0594 45.4771 14.8738 45.1371C14.6638 44.7581 14.6931 44.3209 15.0594 43.9857C15.2352 43.8254 15.3476 43.6699 15.2841 43.3978C15.2059 43.0675 15.4111 42.8002 15.709 42.7322C16.5393 42.5428 17.1352 41.9792 17.7507 41.4739C18.3661 40.9687 19.1036 40.7112 19.7923 40.3614C20.1684 40.1719 20.5347 40.3177 20.862 40.6043C21.2185 40.9201 21.3651 41.3282 21.4334 41.8432C21.6777 41.6634 21.8535 41.5371 22.0635 41.3816C22.2589 41.4351 22.4738 41.4982 22.6936 41.5517C23.309 41.7023 23.8512 41.5954 24.2859 41.1047C24.3689 41.0076 24.4569 40.9104 24.5545 40.8278C24.6669 40.7306 24.9062 40.7938 24.9795 40.9347C25.0234 41.0221 25.0674 41.1096 25.0869 41.2019C25.1504 41.5468 25.3409 41.7849 25.6389 41.9598C25.8049 42.0569 25.9466 42.1978 26.0931 42.3241C26.518 42.6837 26.7525 43.1112 26.645 43.6893C26.6157 43.8448 26.6401 44.0099 26.6401 44.2091C26.8599 44.3014 27.0846 44.3937 27.3484 44.5006C27.2702 44.8844 27.197 45.2245 27.1286 45.5694C27.2165 45.652 27.2751 45.7395 27.3581 45.7686C27.5633 45.8367 27.8759 45.7686 27.8759 46.0796C27.8759 46.2399 27.7245 46.4196 27.5975 46.5508C27.3728 46.784 27.0993 46.9638 26.8892 47.2067C26.8062 47.3038 26.7964 47.5128 26.8258 47.6536C26.8697 47.8577 27.0407 47.9889 27.2507 47.9889C27.5389 47.984 27.8222 47.9451 28.1006 47.9208C28.252 48.154 28.0761 48.2901 27.954 48.2949C27.3972 48.3144 27.07 48.635 26.8062 49.0625C26.7574 49.1403 26.6695 49.2228 26.5864 49.2423C26.0931 49.354 25.7512 49.7378 25.3165 49.937C24.9599 50.1022 24.6327 50.2674 24.364 50.5589C24.281 50.6463 24.1443 50.7143 24.0221 50.7289C23.1576 50.8309 22.3615 51.3167 21.453 51.137C21.3651 51.1176 21.2478 51.137 21.1697 51.1807C20.525 51.5111 19.9633 51.2001 19.4113 50.9427C19.1183 50.8066 18.8594 50.6172 18.5273 50.5589C18.1707 50.5006 18.0486 50.2625 18.1219 49.9176C18.1072 49.8787 18.073 49.8156 18.0486 49.6941ZM24.5838 43.665C24.0808 44.2286 23.4849 44.6221 23.1185 45.2391C22.9232 45.5695 22.9329 45.8269 23.0257 46.1379C23.0844 46.3322 23.3432 46.4536 23.4946 46.3322C23.9147 45.9824 24.4373 45.9484 24.9257 45.8124C24.9648 45.8026 24.9795 45.7103 25.0088 45.6569C24.7206 45.5403 24.4227 45.4286 24.1394 45.2974C24.071 45.2634 24.0368 45.1517 23.988 45.0788C24.2126 44.9282 24.4178 44.7873 24.5838 44.6755C24.5838 44.2869 24.5838 43.976 24.5838 43.665ZM18.6787 42.0764C18.5322 41.9258 18.4687 41.8092 18.371 41.7703C18.1609 41.6877 17.8923 41.8772 17.9167 42.1007C17.9265 42.1881 18.0828 42.3387 18.1463 42.329C18.3075 42.295 18.454 42.1881 18.6787 42.0764ZM25.971 46.4099C26.0003 46.4391 26.0345 46.4682 26.0638 46.4925C26.1468 46.4196 26.2347 46.3516 26.3031 46.269C26.3227 46.2448 26.2836 46.1719 26.2689 46.1233C26.2396 46.133 26.1957 46.1282 26.181 46.1476C26.1078 46.235 26.0394 46.3273 25.971 46.4099ZM26.3715 48.533C26.3324 48.5718 26.2885 48.6107 26.2494 48.6496C26.2934 48.6739 26.3324 48.7079 26.3764 48.7225C26.391 48.7273 26.4448 48.6787 26.4399 48.669C26.4252 48.6156 26.3959 48.5767 26.3715 48.533ZM22.3615 49.7038C22.3224 49.7378 22.2784 49.767 22.2394 49.801C22.2345 49.8058 22.2687 49.8496 22.2833 49.8738C22.3224 49.8398 22.3664 49.8107 22.4054 49.7718C22.4152 49.767 22.381 49.7281 22.3615 49.7038Z" fill="#1FCCE8"/>
<path d="M0.0498246 59.1628C0.406381 58.9539 0.670135 58.6721 0.650598 58.2349C0.611523 57.511 0.948542 57.0786 1.63235 56.8697C1.75446 56.8357 1.86191 56.7628 1.96937 56.7142C2.12567 56.8163 2.25754 56.8988 2.40896 56.996C2.7069 56.7871 2.82413 56.5199 2.74598 56.1604C2.63852 55.6697 2.82901 55.2811 3.18068 54.941C3.4542 54.6786 3.75215 54.528 4.1429 54.5718C4.33338 54.5912 4.52876 54.5572 4.71925 54.5523C4.04521 55.4608 3.89379 55.8349 3.91822 56.5296C4.0794 56.3013 4.20639 56.0778 4.37246 55.8932C4.72413 55.4997 4.83647 55.0576 4.70459 54.5523C4.95858 54.5329 5.22722 54.5669 5.42259 54.3385C5.75473 53.9499 6.23828 53.8236 6.6974 53.6681C7.15653 53.5126 7.62542 53.3863 8.14316 53.2357C8.49972 53.4155 8.71463 54.1782 9.41798 53.6244C9.44728 53.3669 9.48147 53.0608 9.52543 52.6722C9.75011 52.9734 9.92595 53.2163 10.1262 53.4883C10.6244 53.4883 11.147 53.4155 11.6941 53.6244C11.6697 53.843 11.6403 54.0568 11.611 54.3143C11.7869 54.3726 11.9627 54.4357 12.1434 54.4892C12.5 54.5912 12.6758 54.8049 12.6758 55.1887C12.6758 55.6891 12.6368 55.8155 12.1679 56.0098C11.8064 56.1604 11.5134 56.3401 11.2545 56.6705C10.7954 57.2535 10.6049 57.8365 10.8051 58.5458C10.8247 58.6089 10.8491 58.6673 10.8589 58.7304C10.9419 59.1336 10.9126 59.2842 10.5609 59.4494C10.136 59.6535 9.81361 60.1004 9.24702 59.9838C9.15422 59.9644 9.02235 60.0859 8.91977 60.1587C8.44111 60.4939 7.95756 60.8 7.38609 60.9798C7.05396 61.0818 6.76578 61.315 6.44342 61.4996C6.33108 61.3733 6.23339 61.1595 6.09174 61.1304C5.93545 61.0964 5.72054 61.1984 5.56424 61.3004C5.32002 61.4559 5.10999 61.6696 4.87555 61.8397C4.78274 61.9077 4.65575 61.932 4.48968 62C4.44572 61.7668 4.41153 61.5871 4.37734 61.4024C4.10871 61.179 3.90845 61.5336 3.57631 61.485C3.25883 61.3053 2.87785 61.0818 2.46757 60.8438C2.19893 60.8438 1.84726 60.936 1.57374 60.8243C1.12926 60.6445 0.7434 60.3288 0.333116 60.0761C-0.0380934 59.8429 -0.0576307 59.5126 0.0742462 59.1434L0.0498246 59.1628ZM7.50332 57.4478C7.53751 57.3409 7.5717 57.2341 7.61566 57.098C7.11257 57.2001 7.11257 57.2 6.99535 57.5693C7.20049 57.511 7.37144 57.4624 7.54239 57.409C7.5082 57.613 7.32748 57.8219 7.54728 58.0211C7.99663 57.9337 8.14805 57.8365 8.08455 57.6519C8.0064 57.4187 7.79149 57.4478 7.601 57.4381C7.56681 57.4381 7.53262 57.443 7.50332 57.4478ZM9.61335 55.0041C9.90153 54.9847 10.1897 54.9604 10.4779 54.9555C10.7221 54.9507 10.9077 55.0964 10.9663 55.3393C10.9956 55.4608 10.9858 55.592 10.9956 55.7183C11.0054 55.8203 10.893 55.9709 11.147 56.0049C11.2252 55.6017 11.445 55.3151 11.8601 55.1985C11.909 55.1839 11.9236 55.0576 11.9578 54.9604C11.6745 54.9021 11.3864 54.9118 11.1861 54.7855C10.5804 54.4017 10.0969 54.6009 9.63777 55.0236C9.46194 55.1159 9.30564 55.2228 9.3154 55.4414C9.32029 55.5142 9.39355 55.5823 9.43751 55.6551C9.48636 55.6211 9.56939 55.592 9.57428 55.5531C9.5987 55.3782 9.60358 55.1887 9.61335 55.0041ZM2.19893 59.2648C2.42849 59.5612 2.64829 59.8721 2.89739 60.149C3.19045 60.4745 3.53724 60.5134 3.95241 60.3093C4.17709 60.2025 4.23081 60.0373 4.13313 59.7506C4.10382 59.668 4.04521 59.5903 3.9866 59.4834C4.25524 59.294 4.50922 59.1142 4.79251 58.9199C4.44572 58.1328 3.75215 58.1377 3.12207 58.0017C2.81924 58.7256 2.81924 58.7256 2.19893 59.2648ZM6.90254 55.7134C6.00383 55.8252 5.57889 56.5442 5.04161 57.1077C4.90485 57.2535 4.99277 57.477 5.18326 57.5887C5.36398 57.6956 5.5447 57.7102 5.74007 57.6373C6.28223 57.4284 6.63879 57.0057 6.90743 56.5296C7.02954 56.311 7.09792 55.9855 6.90254 55.7134ZM6.36038 58.1377C6.2627 58.0697 6.16989 57.9774 6.05755 57.9434C6.00383 57.9288 5.84753 58.0357 5.85241 58.0794C5.87195 58.3903 5.81334 58.6527 5.51051 58.813C5.46167 58.8373 5.43236 58.9199 5.42259 58.9782C5.38352 59.1628 5.4812 59.2891 5.63262 59.3717C5.7938 59.464 5.99894 59.4446 6.05755 59.2842C6.18455 58.9345 6.25781 58.5555 6.36038 58.1377ZM3.63493 57.715C3.81076 57.5401 3.93775 57.4187 4.05986 57.2875C4.07451 57.2729 4.06475 57.2146 4.05009 57.2001C4.00613 57.1612 3.9231 57.1029 3.89868 57.1175C3.77169 57.2001 3.64469 57.2924 3.54212 57.409C3.5177 57.4381 3.5812 57.5498 3.63493 57.715ZM6.16501 54.9604C6.10151 54.873 6.04779 54.7904 6.03802 54.7952C5.93056 54.8438 5.82799 54.907 5.72053 54.9701C5.75473 55.0138 5.79868 55.0964 5.81822 55.0916C5.93545 55.0624 6.0429 55.009 6.16501 54.9604ZM2.51153 57.3895C2.5213 57.4478 2.53595 57.5061 2.54572 57.5644C2.68248 57.5207 2.81924 57.4818 2.95112 57.4333C2.97066 57.4284 2.99019 57.3604 2.98531 57.3507C2.94623 57.3118 2.88762 57.2438 2.85343 57.2535C2.74109 57.2875 2.62875 57.341 2.51153 57.3895ZM8.02106 58.9879C7.98198 59.0268 7.93802 59.0608 7.89895 59.0996C7.94291 59.1239 7.98198 59.1579 8.02594 59.1725C8.04059 59.1774 8.09432 59.1288 8.08944 59.1191C8.07967 59.0705 8.04548 59.0268 8.02106 58.9879ZM7.31283 54.975L7.31771 54.9167L7.2591 54.941L7.31283 54.975ZM5.19791 58.0988L5.2028 58.0211L5.12465 58.0551L5.19791 58.0988Z" fill="#1FCCE8"/>
<path d="M91.7532 19.1308C91.5529 18.6644 91.6995 18.0912 91.3087 17.6782C91.3576 17.2167 91.2062 16.8086 91.0254 16.3956C90.9277 16.177 91.0792 15.9632 91.2697 15.8126C91.4113 15.7009 91.5969 15.6766 91.7141 15.7932C91.9144 15.9972 92.1293 16.2207 92.227 16.4734C92.3637 16.828 92.4321 17.2167 92.4761 17.5956C92.5542 18.2466 92.4126 18.815 91.7239 19.1017L91.7532 19.1308Z" fill="#1FCCE8"/>
<path d="M93.9756 27.798C93.6239 28.4781 93.0378 28.7988 92.3247 28.9105C92.1244 28.7696 92.1635 28.6239 92.227 28.4684C92.4272 27.9486 92.6959 27.5016 93.199 27.2053C93.4334 27.0693 93.6239 26.8506 93.8535 26.6514C94.0879 26.9721 93.8632 27.1956 93.8242 27.4239C93.7949 27.6037 93.8193 27.7397 94 27.8174L93.9756 27.798Z" fill="#1FCCE8"/>
<path d="M83.3521 32.7534C83.1763 32.6271 83.02 32.5639 82.9467 32.4473C82.8588 32.3113 83.0737 32.0684 83.2691 32.0684C83.4547 32.0684 83.5964 32.185 83.5915 32.3502C83.5866 32.4716 83.4596 32.5882 83.3521 32.7534Z" fill="#1FCCE8"/>
<path d="M90.2733 28.274C90.6054 28.0846 90.8887 28.2303 91.4357 28.2886C91.1622 28.4489 91.0792 28.5024 90.9961 28.5461C90.8252 28.6384 90.6542 28.721 90.4735 28.8182C90.3954 28.7064 90.3221 28.6384 90.2928 28.551C90.2684 28.4684 90.283 28.3712 90.2733 28.274Z" fill="#1FCCE8"/>
</svg>
