<svg width="282" height="241" viewBox="0 0 282 241" fill="none" xmlns="http://www.w3.org/2000/svg">
<path d="M29.7253 54.8196C32.1291 52.7702 35.3526 50.7295 37.2807 52.013C37.5138 52.1681 37.7303 52.348 37.9186 52.6165C44.7313 61.4448 52.0344 69.4903 59.7738 76.7887C62.9209 79.7779 66.1669 82.6184 68.7176 86.3199C58.0745 85.497 48.3721 79.8617 41.7128 70.5272C40.8523 71.6362 41.2918 73.1809 41.7762 74.2905C47.6204 87.376 53.316 100.685 58.9479 114.273C56.598 113.209 54.6326 111.293 53.287 108.859C53.6501 108.313 53.8767 107.605 53.8983 106.976C53.3352 107.316 52.7555 107.682 52.1924 108.023C49.2248 104.259 46.5307 100.175 44.1359 95.8263C45.0332 95.9942 45.9516 96.1762 46.8654 96.3193C41.7187 93.3943 38.9933 86.7858 36.7835 80.4131C37.1195 92.2651 38.018 104.742 33.8719 116.437C29.8772 109.485 29.1414 100.3 28.7846 91.5116C28.5156 85.0712 28.4022 78.6269 28.4277 72.2035C30.0617 76.5471 30.4798 81.7988 29.5437 86.972C31.4345 84.2232 31.6609 80.1162 30.0892 77.7462C30.8477 77.5712 31.5219 76.6961 31.645 75.7762C30.8796 75.7319 30.5387 74.6821 30.497 73.6883C30.46 72.7333 30.5431 71.6438 30.1055 70.9231C29.6679 70.2025 28.3723 70.4493 28.2751 71.4222C28.342 70.0355 28.4466 68.6381 28.5346 67.2655C29.1493 67.3527 29.764 67.4398 30.3952 67.5021C31.8665 65.154 31.3621 62.099 30.4144 59.8939C29.4667 57.6888 28.1137 55.679 28.0048 52.9946C28.9518 52.7662 29.8038 53.6912 29.7677 54.8479L29.7253 54.8196ZM61.7154 82.5535C62.0052 82.5317 62.2995 82.5488 62.5893 82.5269C62.7026 82.173 62.5379 81.7772 62.2435 81.7601C61.9491 81.7431 61.605 82.1222 61.5506 82.4796L61.6989 82.5783L61.7154 82.5535ZM50.2661 100.443C50.4733 100.546 50.7418 100.51 50.9704 100.304C50.9213 99.7346 50.3044 99.4671 49.8637 99.8536C49.8965 100.126 50.0589 100.341 50.2661 100.443ZM41.2986 87.6404L41.4944 87.1625C41.28 87.163 41.061 87.1245 40.8467 87.125C41.0044 87.3015 41.1621 87.478 41.3198 87.6545L41.2986 87.6404ZM32.5449 103.639C32.4671 103.802 32.427 103.954 32.3703 104.131C32.6058 104.145 32.8202 104.145 33.0392 104.183C32.8815 104.006 32.7238 103.83 32.5449 103.639ZM31.1838 106.741C31.1743 106.985 31.2943 107.172 31.4591 107.246C31.8523 107.436 32.5049 107.191 32.5477 106.575C32.5624 105.726 31.215 105.867 31.2003 106.716L31.1838 106.741ZM40.7359 62.578C40.4368 62.522 40.1045 62.8375 40.0336 63.2197L40.1819 63.3184C40.4598 63.3603 40.7377 63.4021 41.0321 63.4192C41.1831 63.0545 41.035 62.634 40.7359 62.578ZM39.7728 69.3075C39.4151 68.9263 38.9041 68.7292 38.3717 68.84C38.3809 69.2397 38.5738 69.547 38.8446 69.6915C39.1624 69.903 39.6241 69.8525 39.9729 69.5122L39.7728 69.3075ZM46.4165 70.2591C46.6282 70.722 47.467 70.2428 47.3637 69.7089L47.2812 69.8329C47.2013 69.4935 47.1427 69.1682 47.084 68.8429C46.6034 69.0597 46.2048 69.7962 46.4165 70.2591ZM43.1755 66.8138C43.4086 66.9689 43.722 66.8197 44.0353 66.6705C43.8471 66.4021 43.6377 66.1195 43.4494 65.8511L43.3834 65.9503C43.0631 65.8802 42.8954 66.5915 43.1332 66.7856C43.1332 66.7856 43.1755 66.8138 43.1967 66.8279L43.1755 66.8138ZM39.6177 75.7877L39.5517 75.8869C39.6715 76.396 39.7748 76.9299 39.8945 77.439C40.5877 76.3976 40.6524 74.8306 40.0122 74.0467C39.4397 74.3096 39.1799 75.389 39.6012 75.8125L39.6177 75.7877ZM37.7082 78.3809C37.4682 78.0065 37.3649 77.4726 37.4171 76.9348C37.0828 76.7481 36.9479 77.7317 37.3388 77.7415L37.3482 77.8193C37.1149 77.986 37.2372 78.3536 37.4067 78.4664C37.4914 78.5228 37.6045 78.4908 37.687 78.3668L37.7082 78.3809ZM34.5772 86.5298L34.5984 86.5439C34.325 86.8628 34.2304 87.3724 34.3739 87.7541C34.6613 87.5519 35.003 87.3142 35.0951 86.9461C35.1872 86.5781 34.7706 86.1934 34.5772 86.5298ZM34.9913 90.777C34.7464 90.6855 34.5011 91.2378 34.713 91.3789C34.9579 91.4703 35.2032 90.918 34.9913 90.777ZM34.0878 92.8233C34.3327 92.9147 34.578 92.3625 34.345 92.2073C34.1001 92.1159 33.8548 92.6681 34.0878 92.8233ZM31.1117 101.934C31.3236 102.075 31.5921 102.039 31.8254 101.872C31.7928 101.278 31.15 100.958 30.7258 101.319C30.7421 101.616 30.9045 101.832 31.1164 101.973L31.1117 101.934ZM30.6685 99.0628C31.0902 98.8426 31.5331 98.6365 31.9549 98.4163C31.892 97.4084 31.3627 96.4121 30.5007 96.375L30.2228 96.3331C30.2009 97.2847 30.3723 98.2216 30.6473 99.0487L30.6685 99.0628ZM29.8317 92.9242C29.8478 93.5432 30.097 94.3172 30.469 94.4933C30.6173 94.592 30.7892 94.5634 30.9848 94.4073L30.9661 94.2518C31.2516 93.5473 31.5323 92.8039 31.4103 92.1144C31.2883 91.425 30.5349 90.995 30.0964 91.5619C29.8065 91.9056 29.7967 92.4716 29.8105 92.9101L29.8317 92.9242ZM30.59 89.6721C30.4323 89.4955 30.2911 89.2942 30.1334 89.1177L29.9211 89.6204C30.1401 89.6589 30.3544 89.6584 30.5734 89.6969L30.59 89.6721ZM34.474 78.8758L34.6083 78.8578C34.5818 79.7705 34.5599 80.722 34.5546 81.6487C35.8885 80.4256 35.6973 77.5433 34.2349 77.2139C34.3005 77.7585 34.3873 78.3172 34.4905 78.851L34.474 78.8758ZM38.3603 57.7408L38.5416 57.7899C39.0437 57.2653 38.2505 56.3439 37.8591 56.9778C38.0262 57.2321 38.1932 57.4864 38.3768 57.7159L38.3603 57.7408ZM31.3953 68.8477C31.8193 68.8079 32.1942 68.1987 32.1379 67.7319C32.0605 67.251 31.5496 67.0541 31.1749 67.3414C31.2523 67.8222 31.3344 68.342 31.4165 68.8618L31.3953 68.8477Z" fill="#1FCCE8"/>
<path d="M67.1319 118.288C67.4357 118.383 67.7653 118.53 68.0031 118.724C70.6775 120.54 73.3637 122.293 76.0995 123.971C79.3179 125.934 82.5858 127.823 85.6391 130.034C90.4817 133.508 94.7961 137.775 99.2307 141.908C100.707 143.319 102.342 145.088 101.936 147.537C101.436 150.675 97.9894 152.638 96.9722 155.682C94.3721 155.454 91.7673 155.188 89.3891 154.213C87.0532 153.266 85.0499 151.682 83.1998 149.914C76.2349 143.382 71.0732 134.507 68.3384 124.422C67.7487 122.276 67.1991 119.978 65.7538 118.658C66.1216 118.152 66.6421 118.105 67.1649 118.238L67.1319 118.288ZM69.1411 125.099C69.1786 125.411 69.3834 125.654 69.6236 125.707C69.7837 125.742 69.9768 125.727 70.1394 125.621C69.5932 125.293 69.8838 123.984 70.5669 123.83C70.6802 123.476 70.0771 123.647 70.0439 124.019C69.5941 124.006 69.1179 124.583 69.1623 125.113L69.1411 125.099ZM69.2111 122.606L69.2606 122.531C69.5126 122.52 69.5648 121.982 69.3364 121.866C69.108 121.75 68.837 121.927 68.6038 122.094C68.8156 122.235 68.9945 122.426 69.2276 122.581L69.2111 122.606Z" fill="#1FCCE8"/>
<path d="M156.43 168.103C157.351 168.466 158.297 168.881 158.867 169.725C159.436 170.569 159.475 172.027 158.634 172.969C157.503 174.256 156.703 175.87 156.412 177.501C144.434 179.511 133.603 175.02 123.883 169.732C119.217 167.234 114.353 164.068 113.038 158.326C112.451 158.473 111.839 158.244 111.526 157.749C123.691 157.94 135.164 160.639 146.23 164.319C149.661 165.458 153.068 166.724 156.426 168.064L156.43 168.103ZM115.806 161.242C115.575 161.267 115.513 161.727 115.749 161.741C115.959 161.702 116.041 161.256 115.806 161.242ZM119.659 164.916C119.649 165.16 120.04 165.17 120.104 164.89C120.114 164.646 119.723 164.637 119.659 164.916Z" fill="#1FCCE8"/>
<path d="M185.749 173.343C186.338 173.377 186.99 173.132 187.605 172.897C190.479 171.84 193.353 171.106 196.223 170.332C197.014 170.108 197.789 169.908 198.581 169.683C203.2 168.393 207.844 166.976 212.42 166.301C213.645 166.115 214.917 165.995 215.944 166.428C216.97 166.861 217.712 167.998 217.409 169.371C217.083 170.872 215.605 172.357 215.715 173.754C215.839 175.267 213.926 176.534 212.453 177.093C200.205 181.713 187.517 181.711 177.411 177.096C176.73 176.786 175.984 176.253 176.192 175.39C175.702 175.851 174.918 175.651 174.864 175.043C175.705 174.744 176.529 174.47 177.396 174.224C180.19 173.471 182.998 173.158 185.69 173.34L185.749 173.343ZM190.394 175.827C190.469 176.127 190.815 176.25 191.133 176.14C191.301 176.073 191.463 175.966 191.579 175.792C191.495 175.092 190.406 175.119 190.02 175.792L190.411 175.802L190.394 175.827ZM183.369 178.02C183.749 177.45 183.714 176.676 183.318 176.305L183.297 176.291C182.944 176.914 182.957 177.675 183.369 178.02Z" fill="#1FCCE8"/>
<path d="M264.335 151.195C265.141 150.765 266.022 150.314 266.793 150.397C266.64 149.616 267.698 148.853 268.492 148.487C271.43 147.151 274.385 145.79 277.313 144.376C278.161 143.975 279.165 143.569 279.713 144.077C280.683 145.009 278.91 147.443 279.244 148.917C279.439 149.727 278.425 150.698 277.596 151.255C264.848 159.98 250.783 165.216 237.711 166.068C242.593 163.235 247.442 160.451 252.321 157.76C256.341 155.534 260.344 153.332 264.352 151.17L264.335 151.195Z" fill="#1FCCE8"/>
</svg>
