<svg width="136" height="149" viewBox="0 0 136 149" fill="none" xmlns="http://www.w3.org/2000/svg">
<path d="M5.61054 136.013C9.78371 142.398 16.3324 147.564 23.8762 148.719C26.0912 149.04 28.3383 149.04 30.5533 148.815C48.1127 147.147 63.1361 131.04 63.5534 113.392C68.3365 118.013 73.4728 122.665 79.8609 124.59C83.4563 125.649 87.2442 125.81 91.0001 125.649C105.446 125.007 120.501 119.104 128.302 106.943C130.902 102.868 132.603 98.2797 133.952 93.6593C135.781 87.5309 137.066 80.7286 134.465 74.8569C133.245 72.0975 131.223 69.7552 129.201 67.4771C124.257 61.9583 118.607 56.3753 111.352 54.8031C105.799 53.5838 100.053 54.8672 94.5312 56.1507C96.3931 48.835 98.2871 41.3911 98.0945 33.8187C97.9019 26.2785 95.3979 18.4495 89.716 13.4441C87.8541 11.8077 85.7355 10.4922 84.0983 8.66325C83.1673 7.6044 82.3006 6.35305 81.3697 5.26212C80.9524 5.03752 80.503 4.845 80.0535 4.65248C79.4115 4.36371 78.8016 4.04285 78.1917 3.72199C77.5496 3.40113 76.8755 3.04818 76.2335 2.69523C75.5914 2.34228 74.9494 1.98934 74.3074 1.63639C73.5691 1.21927 72.7986 0.834238 72.0282 0.449205C71.8998 0.385033 71.7714 0.352947 71.643 0.288775C71.1294 0.0962583 70.5837 0 70.0379 0C68.8823 0 67.6945 0.352947 66.6031 0.770066C57.39 4.26745 50.2635 11.9681 45.6088 20.6314C40.9541 29.2946 38.5465 38.9846 36.3957 48.5784C32.993 43.0916 25.8023 40.5568 19.5104 41.9686C13.2186 43.3804 8.01816 48.2896 5.48215 54.2255C2.97825 60.1614 2.94615 66.9637 4.58332 73.1884C5.77107 77.6804 7.82554 81.9479 10.5863 85.6699C11.3567 86.7287 12.1592 88.2689 11.2283 89.1673C-1.19495 100.847 -3.69884 121.703 5.67475 135.981L5.61054 136.013ZM134.947 85.8624C133.534 87.7234 132.636 89.9373 132.347 92.2475C131.608 90.6753 131.544 88.7822 132.122 87.1779C132.347 86.5683 132.668 85.9907 133.213 85.6378C133.759 85.3169 134.562 85.349 134.947 85.8624ZM131.48 75.0173C132.09 75.6269 132.282 76.5574 132.411 77.4237C132.7 79.0281 132.989 80.6324 133.245 82.2367L131.03 80.2473C131.929 79.8623 131.705 78.5468 131.319 77.6484C130.902 76.7499 130.613 75.4665 131.48 75.0173ZM128.88 68.568C129.714 69.9798 130.164 71.6162 130.164 73.2526C129.008 72.9317 128.302 71.5841 128.655 70.4611H128.494C128.013 69.6268 127.499 68.7605 127.018 67.8942C127.467 67.2525 128.462 67.8942 128.88 68.568ZM56.8121 126.612C56.5874 126.868 56.2022 126.997 55.8812 126.997C55.6244 126.997 55.3676 126.901 55.2071 126.708L56.0738 125.842H56.1701C55.7207 125.136 57.069 124.237 57.5184 124.943C57.39 125.521 57.2616 126.163 56.8443 126.612H56.8121ZM58.9629 122.216C58.674 121.927 58.3851 121.67 58.0962 121.382L57.9357 121.446C57.4863 120.547 57.9999 119.264 58.9951 119.007C59.5408 120.002 59.5087 121.253 58.9309 122.216H58.9629ZM61.8521 116.087C61.8521 116.89 61.3385 117.66 60.6001 118.013C60.0223 117.692 59.8297 116.858 60.1828 116.28C60.5359 115.735 61.3706 115.542 61.9163 115.927L61.8521 116.087ZM61.4347 110.761C61.7879 111.339 62.0447 112.077 61.7558 112.686C61.5953 113.039 61.21 113.232 60.8248 113.232C60.5359 113.232 60.2791 113.103 60.1828 112.815C60.4396 112.558 60.7285 112.269 60.9853 112.013H61.0175C60.857 111.563 61.0174 111.018 61.4347 110.761ZM98.9291 58.5571C99.3143 58.6855 99.6996 58.8138 100.085 58.9422C100.053 59.2951 99.6995 59.5839 99.3464 59.5839C99.2822 59.5839 99.2502 59.5839 99.186 59.5839C98.8007 59.4876 98.5439 59.0063 98.7044 58.6213H98.9291V58.5571ZM95.2374 22.3961H95.2054C95.3659 22.8132 95.2054 23.3587 94.8202 23.6154C94.5634 23.2945 94.3065 22.9095 94.4028 22.5244C94.4991 22.1394 95.2054 22.0111 95.2696 22.4282L95.2374 22.3961ZM93.8571 38.8242C93.7287 42.3536 93.5361 46.0435 91.8026 49.1559C91.5779 49.5409 91.3532 49.958 91.3211 50.3752C91.289 50.9527 91.6421 51.4982 91.8668 52.0436C92.0915 52.5891 92.0594 53.3592 91.5458 53.6159C91.4495 53.68 91.3211 53.68 91.1927 53.68C90.8396 53.68 90.4864 53.4554 90.2617 53.1987C89.3629 52.2041 89.5876 50.6319 90.1654 49.4126C90.7112 48.1933 91.5779 47.1024 91.8668 45.8189C92.252 44.1184 91.6742 42.3536 91.9632 40.6531C92.1558 39.5622 92.7336 38.5033 92.7336 37.3803C92.7336 36.514 92.3484 35.7118 92.2521 34.8455C92.1557 33.9792 92.5089 32.9524 93.3114 32.7278C94.0176 34.653 93.9534 36.7707 93.8571 38.8242ZM92.7657 18.3212H92.7015C92.862 18.7383 92.7015 19.2837 92.3163 19.5404C92.0595 19.2196 91.8026 18.8345 91.8989 18.4495C91.9952 18.0324 92.7015 17.9361 92.7657 18.3212ZM91.3211 21.0806C92.573 22.3961 93.0867 24.3533 92.6052 26.086C91.4816 24.7063 91.0001 22.8132 91.3211 21.0806ZM87.3726 12.9307C88.3357 13.9254 89.2666 14.92 90.2297 15.9147C90.037 16.3318 89.2666 15.8184 89.5555 15.4655L89.4271 15.3372C89.2666 15.4013 89.1061 15.4334 88.9135 15.4334C87.7899 15.4334 86.7306 13.9575 87.3726 12.9307ZM58.0962 10.6205C58.4172 10.6205 58.4493 11.2943 58.0962 11.3264C57.7431 11.3264 57.7431 10.6526 58.0962 10.6205ZM58.0962 17.134C58.4493 17.134 58.4493 17.8078 58.0962 17.8399C57.7752 17.8078 57.7752 17.1661 58.0962 17.134ZM55.7528 19.6688C55.8812 19.8292 55.9454 20.0538 55.9454 20.2463C55.9454 20.5351 55.7528 20.8239 55.5923 21.0806C54.3083 23.0378 52.7353 24.8026 50.9697 26.3106C51.4513 23.5512 53.281 21.0164 55.7528 19.7009V19.6688ZM49.9425 17.904C50.424 18.1607 50.5203 18.9308 50.1351 19.3158C49.7499 19.7009 49.0116 19.6046 48.7227 19.1233C49.14 18.7383 49.5252 18.3212 49.9425 17.904ZM49.3647 29.3267C49.5252 30.4818 49.1079 31.7011 48.2732 32.5032V32.5674C47.5028 31.4765 48.0806 29.7117 49.3647 29.2946V29.3267ZM43.8753 42.4499C45.5767 39.6905 44.0359 35.1984 46.7645 33.4016C47.567 34.5567 46.9892 36.1289 46.4434 37.4445C45.031 40.9739 44.1963 44.728 43.9716 48.5142C43.9395 49.2842 43.8111 50.2147 43.0728 50.5035C42.7197 48.6746 42.9123 46.7494 43.5864 45.0168C42.6234 44.6959 43.2975 43.2841 43.8432 42.4178L43.8753 42.4499ZM44.4853 65.1669C43.5543 64.6856 42.8802 63.723 42.7839 62.6962H42.6234C42.0776 62.3754 42.0777 61.4449 42.5913 61.124C43.8432 62.0545 44.5816 63.6267 44.4853 65.1989V65.1669ZM42.495 55.3485C43.9074 56.5357 43.9074 59.0063 42.495 60.1935C42.1419 59.616 42.0456 58.8459 42.2061 58.2042C42.0456 57.2416 42.1418 56.2469 42.4629 55.3485H42.495ZM12.416 48.6746C12.9938 48.065 13.989 48.0329 14.8557 48.0329L15.2409 48.1612C14.8557 48.8671 14.3742 49.5088 13.7964 50.0543C13.6038 50.2468 13.3791 50.4393 13.0902 50.5035C13.058 50.5035 12.9939 50.5035 12.9618 50.5035C12.1913 50.5035 11.8703 49.2522 12.4481 48.6425L12.416 48.6746ZM14.8878 53.7121C14.4705 53.295 14.0532 52.8779 13.6359 52.4608C14.0211 52.3003 14.4384 52.1078 14.8236 51.9474L14.8878 52.1078C15.4335 52.4608 15.4335 53.3913 14.8878 53.7442V53.7121ZM14.1495 92.44C13.6038 94.2369 13.026 96.0337 12.4481 97.8305C15.3694 92.3117 23.0416 92.3438 29.0766 90.7074C26.6369 87.21 22.5921 84.8356 18.3548 84.3864C12.8654 83.8089 9.94424 77.7446 8.59598 72.4183C7.24773 67.0599 6.7341 60.5465 10.8431 56.8245L11.5172 59.4876C15.2088 53.0704 23.7478 49.926 30.7138 52.4287C32.2547 52.9741 33.7634 53.8084 34.7906 55.0918C37.0056 57.8833 36.5241 62.1829 38.8033 64.9102C39.9268 66.2578 41.6925 66.9958 43.458 66.9958C44.5495 66.9958 45.6409 66.707 46.604 66.1294C42.2703 48.7388 48.2732 29.1983 61.5953 17.2623C65.0943 14.1179 70.0379 11.3585 74.2753 13.3157C78.7374 15.3692 79.7004 21.241 79.7646 26.1502C79.893 41.8403 76.7471 57.5945 70.6157 72.0333C72.3171 73.1563 73.4727 75.1135 73.569 77.1671C77.7101 78.7393 82.2043 75.8194 85.0935 72.4504C87.9826 69.0814 90.326 65.0064 94.3386 63.0813C96.0721 62.247 97.9982 61.8941 99.9243 61.6695C107.564 60.8352 116.135 62.6321 120.79 68.7605C125.028 74.3435 124.931 82.365 121.946 88.686C118.96 95.0069 113.503 99.8519 107.629 103.67C100.727 108.162 93.0546 111.467 85.0293 113.456C80.5672 114.547 75.8803 115.221 71.4183 114.13C66.9562 113.039 62.783 109.927 61.531 105.499C61.0816 103.927 61.0175 102.258 60.3112 100.782C59.605 99.3065 57.9036 98.1193 56.3627 98.6968C55.2713 103.766 53.4094 108.676 50.8734 113.2C47.1176 119.906 41.7566 125.906 34.8549 129.339C29.0124 132.259 22.239 133.221 15.7867 132.034C17.2312 132.419 18.5474 133.221 19.5104 134.377C15.4014 134.409 11.3567 132.098 9.30222 128.537C9.20591 129.917 6.9909 129.05 6.31677 127.863C3.20294 122.441 2.27199 115.767 3.84495 109.702C4.32647 107.777 5.0648 105.724 4.29437 103.895C7.60081 100.077 10.8751 96.2583 14.1816 92.44H14.1495ZM13.7322 90.7716C13.7643 90.4507 14.4063 90.4507 14.4384 90.7716C14.4063 91.1245 13.7643 91.1245 13.7322 90.7716Z" fill="#1FCCE8"/>
<path d="M42.6875 90.1619C43.1048 90.4186 43.6184 90.6432 43.7468 91.0924C45.3198 95.5203 50.4239 97.8626 55.1107 97.7663C60.8568 97.6701 66.4746 94.4294 69.4921 89.5202C70.0057 88.686 70.423 87.8196 70.6798 86.9212C71.354 84.2902 70.4551 81.4987 69.2674 79.0601C69.0106 78.5468 68.5932 77.9692 68.0475 78.0975C67.2771 78.2901 67.5339 79.4452 67.9512 80.0869C68.3685 80.7607 68.6254 81.8516 67.887 82.1083C67.245 81.7233 66.5708 81.3062 66.1856 80.6644C65.8004 79.9906 65.8646 79.028 66.5067 78.643C65.5436 77.3275 64.5485 76.012 63.5854 74.6643C62.9113 73.7338 62.2051 72.8033 61.3383 72.0012C60.5679 71.2953 59.6691 70.7177 58.6739 70.3327C56.78 69.5626 54.6934 69.4985 52.6389 69.4985C52.4463 69.4985 52.2537 69.4985 52.029 69.4985C50.2955 69.4985 48.4336 69.5626 47.0212 70.5573C44.8383 72.1295 43.0406 74.183 41.7886 76.5574C40.0231 79.9265 39.4773 84.0335 40.8256 87.5629C41.2108 88.5576 41.7566 89.5202 42.6554 90.0977L42.6875 90.1619ZM67.6623 85.349L67.7586 84.8035C68.7217 86.0228 68.2722 88.0763 66.8919 88.7822C66.3461 87.6592 66.6672 86.1512 67.6302 85.349H67.6623ZM44.9988 75.7232C45.2877 75.4665 45.5445 75.2098 45.8334 74.921C46.6038 75.9478 46.1223 77.6483 44.9346 78.1617C44.3888 77.4879 44.421 76.397 44.9667 75.7232H44.9988ZM45.6729 82.012C46.0902 81.4987 46.5075 80.9532 46.9248 80.4398C46.668 82.3971 46.4433 84.3543 46.2828 86.3437C47.8879 85.5736 47.4706 83.0388 48.6262 81.6912C49.172 81.0174 50.0387 80.6965 50.8733 80.4077C52.6389 79.7981 54.4045 79.1564 56.17 78.5468C56.5552 78.4184 56.9726 78.258 57.3899 78.2901C58.5455 78.2901 59.3802 79.5735 59.3481 80.7286C59.316 81.8837 58.6418 82.9105 57.8714 83.8089C56.5873 85.2848 54.9823 86.5362 53.2167 87.4346C50.8733 88.6218 47.92 89.1352 45.6408 87.8517C45.063 87.5309 44.5494 87.0816 44.2925 86.5041C43.6184 85.0281 44.6778 83.3597 45.705 82.1083L45.6729 82.012Z" fill="#1FCCE8"/>
<path d="M63.9384 103.542C63.9384 103.542 63.6816 103.381 63.489 103.381C63.2001 103.381 62.8791 103.542 62.7186 103.799C62.4618 104.184 62.4618 104.697 62.4618 105.146C62.4618 106.397 62.7185 107.97 63.9384 108.323C64.2273 106.975 64.3236 105.595 64.1631 104.248C64.131 104.023 64.0989 103.766 63.9384 103.574V103.542Z" fill="#1FCCE8"/>
</svg>
