<svg width="80" height="127" viewBox="0 0 80 127" fill="none" xmlns="http://www.w3.org/2000/svg">
<path d="M30.7952 124.119C31.0096 124.027 31.1627 123.813 31.2852 123.598C39.8585 110.757 45.6149 96.0162 47.9419 80.7235C48.2787 78.5782 51.0038 77.904 53.1777 77.7507C57.6481 77.4136 62.1185 77.0765 66.5583 76.77C71.5491 76.4023 77.2749 75.6361 80 71.4375C73.6925 64.6339 67.385 57.8304 61.1081 51.0574C60.6488 50.5671 60.1895 50.0461 60.067 49.4025C59.9446 48.667 60.2508 47.9621 60.5569 47.2879L69.314 28.5321C67.8443 28.3482 66.4052 28.195 64.9354 28.0111C63.0983 25.161 61.2305 22.3415 59.3934 19.4913C55.5354 23.3834 51.6774 27.3062 47.8194 31.229C47.2989 31.75 46.6865 32.3323 45.9517 32.271C45.1862 32.2403 44.635 31.5048 44.1757 30.8612L36.0005 19.0316C35.6637 18.5106 35.0207 19.3074 34.6839 19.8284C34.3471 20.3494 33.2754 19.6139 33.8878 19.5526C35.2962 18.0509 33.7347 15.6911 32.2649 14.2507C31.8363 13.8523 31.3158 13.4233 30.734 13.5458C30.5197 13.6071 30.3666 13.8217 30.336 14.0362C26.8454 8.64237 22.4056 3.89213 17.2922 0C14.1079 2.63562 14.7203 7.60039 15.547 11.6458C18.0884 23.7819 20.048 36.0405 21.4871 48.3299C21.8851 51.701 21.9157 55.8077 19.0988 57.7078C13.5261 61.508 8.25966 65.7066 3.29937 70.2729C1.79904 71.6827 0.206829 73.3069 0.0231147 75.3603C-0.283076 78.3024 2.50326 80.8154 5.38144 81.4283C8.29025 82.0106 11.2603 81.2444 14.1691 80.6622C17.5066 79.9879 20.8747 79.5895 24.2428 79.4363C25.4675 91.8789 25.4675 104.444 24.2428 116.887C23.906 120.319 23.5079 124.027 25.2532 127C26.7229 126.847 28.1926 126.724 29.693 126.571C27.9477 124.793 28.162 121.514 30.091 119.982C30.3666 120.779 29.8154 121.606 29.6011 122.434C29.3868 123.261 30.0298 124.456 30.7952 124.089V124.119ZM71.1205 64.7565C71.4573 64.7872 71.4573 65.4001 71.1205 65.4307C70.7837 65.4307 70.7837 64.7872 71.1205 64.7565ZM63.772 33.313C63.8638 33.6807 63.6189 34.0485 63.3433 34.355C62.9759 34.1098 62.8227 33.5888 62.9758 33.1904H62.9146C62.9759 32.792 63.6494 32.9146 63.7413 33.313H63.772ZM59.5771 41.465C60.0364 42.4151 60.0058 43.5796 59.5159 44.5297V44.6523C59.5159 44.6523 59.424 44.6523 59.3934 44.6523C58.7504 44.6523 58.2605 43.8554 58.383 43.1812C58.5055 42.4763 59.0566 41.9247 59.5771 41.4344V41.465ZM46.6253 79.0992C46.2885 79.6202 45.4005 79.5895 45.0637 79.0992C45.4005 78.5782 46.2885 78.5782 46.6253 79.0992ZM38.1744 106.007C37.8989 104.659 37.9907 103.218 38.45 101.9C38.9705 103.279 39.3686 105.118 38.1744 106.007ZM43.5634 84.493C43.6859 84.1252 44.3595 84.3398 44.2676 84.6769C44.0226 84.6769 43.7777 84.7075 43.5328 84.7382L43.594 84.493H43.5634ZM43.5021 88.4158H43.3797C43.349 88.6609 43.1347 88.7835 42.8898 88.7835C42.4917 88.7835 42.0324 88.5077 42.0018 88.0787C41.9712 87.3738 42.6142 86.8528 43.2266 86.485C43.5634 87.0367 43.6859 87.7722 43.5328 88.4158H43.5021ZM42.3386 49.188L42.5836 49.1267C42.5836 49.7703 42.1243 50.3832 41.5425 50.6284C40.8077 50.1993 41.5732 48.7896 42.3386 49.188ZM41.91 90.8982L40.8383 91.2659L40.5933 91.2046C40.3178 90.4691 41.8181 90.132 41.91 90.8982ZM40.9914 94.4532C41.3588 94.8209 41.267 95.5258 40.8077 95.8016C40.4096 95.4339 40.0422 95.0355 39.6441 94.6677C39.8891 94.208 40.624 94.1161 40.9914 94.4838V94.4532ZM38.7868 58.903C38.2357 59.5159 37.562 59.9756 36.8578 60.4353C36.521 60.6498 36.1229 60.8337 35.7555 60.8337C35.5412 60.8337 35.3268 60.7724 35.1737 60.5886C34.7451 60.0676 35.235 59.3014 35.7249 58.8417C37.1946 57.4319 38.6643 55.9915 40.1341 54.5818C40.3484 56.1448 39.8279 57.7691 38.7868 58.903ZM36.9497 46.062C37.2558 46.062 37.2865 46.7056 36.9497 46.7362C36.6128 46.7362 36.6128 46.0927 36.9497 46.062ZM29.3255 25.59C32.1119 29.5434 34.8676 33.5275 37.6539 37.4809C37.9295 37.8487 38.205 38.2777 38.205 38.7374C38.205 39.2584 37.9295 39.7181 37.6539 40.1472C36.3373 42.0473 34.8063 43.7329 33.0304 45.2039C32.1425 44.8055 31.9588 43.6409 31.8669 42.6602C31.4689 38.2165 30.5809 33.8033 29.2337 29.5434C28.805 28.2256 28.407 26.632 29.3255 25.6207V25.59ZM24.7939 22.8624C24.8551 22.1269 25.1613 21.3914 24.8551 20.7172H24.8857C24.9776 20.0736 24.5796 19.3994 23.9978 19.1542C24.4571 18.388 25.6818 19.1542 25.988 19.9817C26.2942 20.8398 26.4167 21.943 27.2741 22.2495C26.478 22.3721 26.7535 23.8431 26.0187 24.2109C25.9268 24.2722 25.835 24.2722 25.7431 24.2722C25.192 24.2722 24.7633 23.506 24.7939 22.8931V22.8624ZM29.1724 117.53C28.8356 117.53 28.8356 116.887 29.1724 116.856C29.5093 116.856 29.5093 117.5 29.1724 117.53ZM29.1112 48.2686C28.4682 46.9508 28.6213 45.3265 29.448 44.1006C28.4682 43.0893 28.162 41.6182 27.9171 40.2391C27.519 38.0019 27.121 35.7954 26.7229 33.5582C26.4167 31.9032 26.1412 30.2483 25.835 28.5934C25.7431 28.0111 25.8962 27.0917 26.5086 27.2143C26.876 27.2756 26.9985 27.7353 27.0597 28.103C27.7946 32.4242 28.56 36.7148 29.2949 41.0053C29.4174 41.7715 30.2135 42.2312 30.7034 42.8441C31.1933 43.457 31.1321 44.7136 30.336 44.6829C31.0402 45.02 31.1627 46.0314 30.7952 46.7056C30.4278 47.3798 29.7542 47.8089 29.1112 48.2379V48.2686Z" fill="#1FCCE8"/>
</svg>
