<svg width="144" height="147" viewBox="0 0 144 147" fill="none" xmlns="http://www.w3.org/2000/svg">
<path d="M10.4922 78.7221C11.8795 74.7286 13.1738 70.7075 14.6705 66.7719C15.1663 65.4422 16.0971 64.2669 16.8883 63.0503C17.4962 62.1103 18.3228 61.2861 18.8213 60.2882C19.6376 58.6461 20.803 57.3622 22.243 56.2617C23.7876 55.0649 25.0948 53.6449 25.8967 51.7949C26.3488 50.7831 27.0077 49.7564 27.8461 49.0631C33.4922 44.4489 38.6353 39.2271 44.7844 35.2205C45.7252 34.6085 46.4167 33.6424 47.2621 32.9256C47.8682 32.4179 48.4859 31.7863 49.2087 31.5679C53.0762 30.4747 56.1188 28.0673 58.8657 25.292C60.2356 23.916 61.8065 23.3127 63.6059 23.1336C64.938 22.9941 66.0676 22.7691 66.9821 21.5635C68.059 20.1516 69.8192 20.19 71.4162 19.9254C74.0988 19.4991 76.6977 19.0989 79.2674 17.7734C82.109 16.2994 85.3936 15.7207 88.6875 16.9017C89.4412 17.1763 90.2737 17.2705 91.0736 17.3041C93.6267 17.3996 95.7718 18.4434 97.7246 19.965C99.2677 21.1613 100.862 22.2709 102.226 23.6433C103.337 24.7622 104.408 26.0985 104.961 27.5612C105.815 29.8007 106.994 31.6274 109.095 32.7346C114.421 35.5116 117.517 40.1733 119.554 45.5903C120.819 48.9192 121.879 52.3403 122.923 55.731C123.794 58.5103 124.354 61.4009 125.308 64.1541C126.279 66.9375 127.004 69.6988 126.975 72.695C126.937 75.128 127.252 77.5641 127.367 79.9917C127.407 80.7931 127.534 81.6455 127.381 82.4151C126.652 86.0689 125.899 89.7159 125.046 93.3586C124.821 94.2851 124.469 95.3011 123.831 96.0028C122.25 97.749 121.471 99.8607 120.593 101.968C120.037 103.331 119.355 104.605 117.91 105.297C117.35 105.564 116.788 106.008 116.458 106.521C113.579 110.938 109.441 113.453 104.54 115.131C101.5 116.164 98.5979 117.671 95.6445 119.01C93.2744 120.09 90.855 120.823 88.2304 121.139C85.7058 121.46 83.1888 122.266 80.8069 123.215C75.5712 125.251 70.1755 125.866 64.6392 125.674C59.3029 125.492 54.0138 125.832 48.791 127.058C46.6712 127.549 44.6336 126.996 42.6169 126.372C41.2515 125.941 39.7772 125.708 38.4836 125.12C35.6476 123.846 32.5342 123.762 29.6336 122.876C25.1048 121.507 21.0142 119.173 17.5037 115.992C16.3257 114.93 15.3613 113.574 14.4899 112.246C11.5286 107.727 9.62695 102.706 8.39458 97.4771C7.45452 93.4806 7.64903 89.4133 8.73642 85.4072C9.33567 83.2169 10.0349 81.0309 10.6807 78.8544C10.6015 78.78 10.555 78.7662 10.4922 78.7221ZM85.5721 27.4867C81.5808 26.3534 77.7564 26.6191 73.9819 27.74C68.8688 29.2785 64.0356 31.4093 59.2026 33.7948C48.131 39.2945 38.9855 47.1736 30.4269 55.889C28.3953 57.9598 26.4848 60.2193 24.8558 62.6388C22.6908 65.8414 20.2817 69.0988 19.0193 72.6711C17.3469 77.3693 15.8771 82.1531 15.184 87.2183C14.2053 94.1849 15.885 100.209 20.2259 105.367C24.7019 110.667 30.8467 113.84 37.304 115.96C41.4096 117.305 45.8301 117.675 50.1325 118.442C51.0674 118.618 52.0673 118.66 53.0415 118.618C62.2578 118.347 71.2511 116.611 80.1696 114.444C83.577 113.622 86.746 111.812 90.3659 111.639C91.2936 111.583 92.1903 111.034 93.0756 110.609C94.9833 109.724 96.9074 108.869 98.7498 107.862C101.884 106.169 105.018 104.477 108.031 102.595C109.372 101.745 110.626 100.59 111.561 99.3138C113.499 96.7059 115.076 93.8636 116.991 91.2488C119.112 88.3643 119.938 85.0699 120.191 81.6567C120.759 73.6007 118.973 65.8899 116.3 58.3493C116.074 57.7474 115.734 57.1882 115.454 56.5959C112.323 50.5999 107.788 45.8421 102.4 41.8244C99.6462 39.7598 96.4984 38.342 93.3257 37.3497C90.4786 36.4541 87.2839 36.4738 84.2448 36.3105C82.1288 36.1919 80.0385 36.1574 78.1399 35.1357C77.6396 34.86 77.0109 34.1642 77.0428 33.7153C77.121 33.0255 77.5942 32.1983 78.1563 31.754C78.7555 31.2697 79.6109 31.1161 80.3802 30.9115C81.6213 30.5668 82.9139 30.3901 84.1387 30.0151C85.0684 29.7817 85.9116 29.2425 85.5721 27.4867ZM84.6215 19.0055C84.5677 18.7603 84.5395 18.5992 84.4881 18.4312C84.4138 18.511 84.2791 18.6238 84.3118 18.6844C84.3305 18.7919 84.4632 18.8567 84.6215 19.0055Z" fill="#1FCCE8"/>
<path d="M84.6214 19.0052C84.4631 18.8563 84.3304 18.7915 84.3117 18.6841C84.3023 18.6304 84.437 18.5176 84.488 18.4309C84.5161 18.592 84.5676 18.76 84.6214 19.0052Z" fill="#1FCCE8"/>
<path d="M83.3703 94.8706C78.9601 102.143 72.0934 105.071 63.9513 105.303C59.7616 105.435 55.6546 104.777 51.7459 102.853C46.8158 100.448 44.8221 96.1647 43.8924 91.28C43.3092 88.1278 43.9908 84.8925 44.9487 81.4082C45.8097 81.9183 46.4842 82.1185 46.7824 82.5634C47.5069 83.6187 48.0665 84.8032 48.64 85.941C49.2368 87.0856 49.7359 88.3032 50.3397 89.4245C52.6611 93.6272 55.9918 96.2196 60.9105 97.0424C65.8292 97.8652 70.5351 97.7846 75.1406 95.739C76.9206 94.9431 78.6935 94.1705 80.5412 93.5728C81.5987 93.25 82.7822 93.2702 83.3703 94.8706Z" fill="#1FCCE8"/>
<path d="M71.9557 46.0833C72.2147 46.7458 72.59 47.4428 72.7514 48.1782C73.7078 52.2051 73.3505 56.2241 72.5933 60.2263C71.843 64.2051 70.9764 68.1494 70.1029 72.1171C69.9272 72.8798 69.5679 73.6643 69.0874 74.2602C68.7322 74.6896 68.0004 75.109 67.4911 75.0343C67.0051 74.9665 66.3229 74.2802 66.285 73.8107C66.0969 72.2271 66.076 70.5912 66.1483 68.983C66.2695 65.7597 66.6976 62.5257 66.6421 59.3008C66.5703 54.3397 68.918 50.351 71.2097 46.2949C71.2608 46.2081 71.5141 46.2069 71.9557 46.0833Z" fill="#1FCCE8"/>
<path d="M74.8878 80.5139C74.5782 80.1928 73.929 79.8219 73.8213 79.3316C73.6599 78.5962 73.6774 77.6848 73.9624 76.98C75.3154 73.3583 76.745 69.7338 78.2539 66.1838C79.0767 64.2636 80.0623 62.3916 81.041 60.5431C81.3958 59.859 81.9694 59.2908 82.4034 58.6811C84.7398 60.1892 85.7649 61.7665 84.8928 63.341C81.7592 68.9553 79.8611 75.2672 75.6176 80.272C75.5364 80.3752 75.3131 80.3599 74.8878 80.5139Z" fill="#1FCCE8"/>
</svg>
