<svg width="116" height="60" viewBox="0 0 116 60" fill="none" xmlns="http://www.w3.org/2000/svg">
<path d="M6.70296 18.1053C9.18461 16.6911 11.3057 16.037 13.8085 15.8426C16.6296 15.6305 19.0476 14.2693 21.3595 12.9082C22.2716 12.3779 23.1624 11.7592 23.9897 11.1405C25.9623 9.69097 28.2318 8.84247 31.0104 8.61267C31.6467 9.24904 32.3679 9.95612 33.0466 10.6632C33.0042 10.893 33.0678 11.1935 32.9194 11.2996C31.074 12.7314 30.6074 14.4108 31.3286 16.4259C31.5831 17.1861 31.6255 18.0346 31.5195 18.83C31.3073 20.4917 30.8831 22.1533 32.7497 23.1963C32.3891 24.1332 32.1346 24.7872 31.9012 25.3882C34.2768 27.5095 36.9706 27.0322 39.325 25.9362C41.4248 24.964 43.4399 24.5751 45.7518 24.6458C47.0033 24.6988 48.2971 24.5751 49.5061 24.3453C52.5392 23.7796 55.5512 23.7443 58.6903 23.8857C61.8507 24.0271 65.1172 24.8756 68.32 23.8857C68.6806 23.7796 69.2108 23.7973 69.5502 23.9387C70.9501 24.5928 72.2652 24.1508 73.6439 23.8857C74.8741 23.6559 76.2104 23.3554 77.3982 23.5498C81.513 24.1685 85.5643 23.6205 89.6579 23.4791C92.6274 23.373 95.5757 23.1786 98.5452 23.0725C98.927 23.0549 99.33 23.2493 99.7966 23.373C99.7966 24.7872 100.072 26.2191 99.733 27.5448C99.1603 29.8252 98.9694 32.1586 98.0998 34.4389C97.1453 36.9667 96.3605 39.6183 96.2332 42.3406C96.1908 43.1007 95.6393 43.8608 95.3636 44.4618C93.7092 45.2043 92.4153 44.727 91.0791 44.3027C88.0459 43.3658 85.0128 42.3759 81.9372 41.5451C79.2647 40.8203 76.5073 40.29 73.7923 39.636C69.4654 38.5753 65.096 37.6561 60.6629 36.9137C59.56 36.7369 58.4358 36.5955 57.3329 36.4187C55.6784 36.1536 54.0452 35.8531 52.3696 35.6233C50.6939 35.3935 49.0183 35.146 47.3426 35.0753C46.2821 35.0223 45.4337 35.4995 45.5821 36.843C46.2821 36.9667 47.0457 37.1965 47.8305 37.2496C49.294 37.3379 50.6091 37.5677 51.606 38.5753C51.9453 38.9112 52.5392 39.2294 53.0059 39.2471C55.4027 39.2648 57.5874 40.3254 60.0902 40.0956C61.3629 39.9895 62.8264 40.5552 64.0779 41.0325C69.7623 43.136 73.1348 44.4265 78.7556 45.0982C79.4344 45.1866 80.2404 45.2219 80.7282 45.5401C82.5948 46.7598 84.8431 47.0073 87.0278 47.4669C87.8338 47.6437 88.661 47.7851 89.4246 48.0503C91.9699 48.9518 94.6424 48.8988 97.2938 48.9341C98.4392 48.9518 99.1179 48.4038 99.3724 47.4846C99.7118 46.2119 100.051 44.9568 100.327 43.684C100.921 40.8027 101.472 37.9036 102.045 35.0046C102.13 34.545 102.215 34.05 102.448 33.6434C103.657 31.4868 103.699 29.1004 104.484 26.8731C104.951 25.5473 105.524 24.2215 105.948 23.1256C107.517 22.3124 108.854 22.0119 110.296 22.0649C112.481 22.1356 114.008 21.075 115.493 19.979C116.426 19.2896 116.002 17.8931 114.793 17.7517C112.841 17.5396 110.869 17.5219 108.917 17.4866C108.366 17.4689 107.687 17.8224 107.284 17.6633C104.718 16.5674 102.49 17.4866 100.009 18.0346C97.4635 18.5825 94.6849 18.4411 92.0123 18.4588C89.6155 18.4765 87.2611 18.5118 84.8643 18.777C80.6858 19.2366 76.4437 19.272 72.2228 19.4841C71.6501 19.5194 71.0774 19.4664 70.5259 19.5194C66.0504 20.0144 61.5538 20.1381 57.0571 20.3503C51.0333 20.6331 45.0307 21.4993 39.028 22.171C38.0948 22.2771 37.2039 22.719 36.3131 22.9841C35.2313 22.2947 35.698 21.4286 35.7828 20.6685C36.2282 17.0446 36.6524 13.4208 37.2463 9.81471C37.5221 8.08235 38.0736 6.35 38.6675 4.65299C39.0492 3.57469 38.9856 2.56709 38.6675 1.52415C38.3281 0.428166 36.9282 -0.331947 35.7616 0.145334C32.9194 1.34738 29.9074 2.12517 27.4894 4.21107C25.1987 6.1909 21.9322 7.37527 19.0688 8.87783C17.881 9.49652 16.6932 10.0975 15.463 10.6632C14.2327 11.2289 12.9813 11.7238 11.7299 12.2541C8.44223 13.6153 5.15458 14.9587 1.86693 16.3022C-0.0632437 17.0977 -0.317777 17.7871 0.297333 19.7316C0.976075 21.9058 1.63361 24.0624 3.988 25.4766C4.28495 25.6534 4.60311 26.06 4.60311 26.3428C4.49706 28.2519 6.42721 29.1004 7.4029 30.4616C9.05734 32.7596 12.1329 34.1384 13.0237 36.9137C13.3631 37.9567 14.8266 38.593 15.6751 39.5299C18.4537 42.6411 20.9353 45.929 23.3958 49.1993C25.6441 52.169 27.9349 55.1211 30.2256 58.0732C30.6498 58.6212 31.2013 59.0808 32.1133 60C32.5588 58.1793 33.5133 56.8711 33.0042 55.5277C32.177 53.3357 33.0891 51.3912 34.5102 49.8887C37.2676 46.9896 38.0523 43.5603 39.3462 40.2724C38.6462 38.9289 37.5645 38.0804 36.1222 37.4794C34.1496 38.2218 33.5133 39.5829 33.1315 41.1385C32.5588 43.5603 31.9013 45.9644 31.2225 48.3685C31.0316 49.0225 30.5862 49.6235 30.0983 50.5604C28.2954 48.8634 26.7895 47.3078 25.8138 45.5755C23.8412 42.0224 21.1262 38.8935 18.5385 35.694C17.4356 34.3328 16.5871 32.848 15.4418 31.5045C14.1479 29.9843 12.748 28.4817 11.2208 27.1029C9.14218 25.2645 8.14529 22.9134 6.70296 20.7745C6.29996 20.1205 6.70296 19.0068 6.70296 18.1053ZM32.6012 5.9611C32.8557 5.60756 33.0042 5.32473 33.2375 5.11261C33.2799 5.07725 33.8102 5.25402 33.8102 5.34241C33.8102 5.55453 33.7042 5.81968 33.5133 5.94342C33.386 6.04948 33.0678 5.9611 32.6012 5.9611Z" fill="#1FCCE8"/>
</svg>
