<svg width="656" height="217" viewBox="0 0 656 217" fill="none" xmlns="http://www.w3.org/2000/svg">
<path d="M163.73 12.9181C162.612 13.9228 161.493 14.9276 160.547 15.8366C154.524 14.497 149.448 12.9181 144.028 12.2961C138.865 11.722 134.133 11.0521 129.573 9.6168C127.852 9.09051 124.927 9.1862 123.034 9.6168C115.291 11.3392 107.375 11.2914 99.2879 10.9565C97.5672 10.9086 95.33 10.7172 94.2975 11.1957C86.382 14.784 77.8642 12.7267 69.6906 12.1047C63.754 11.6263 58.5058 11.8655 53.4296 14.0664C51.2786 12.344 49.644 10.8129 47.493 9.42542C45.6862 8.27715 43.4493 7.32025 40.1798 5.64568C45.6002 5.07155 49.8161 4.64094 54.032 4.21034C58.5059 3.77974 63.2378 2.72715 67.5397 3.06207C79.4129 4.06681 90.2538 2.2487 101.267 0.478448C103.332 0.143534 105.655 0.143534 107.719 0C109.784 3.87543 100.578 1.77026 101.353 4.35388C116.84 4.97586 132.585 5.64568 149.62 6.36336C153.578 4.5931 158.482 2.44008 163.73 0.0956896C168.376 0.478448 173.452 0.909051 178.701 1.3875C178.098 2.29655 177.582 3.06207 176.636 4.40172C192.467 2.775 207.781 0.717672 226.796 1.8181C219.999 3.6362 216.041 4.64094 212.083 5.69353C212.771 5.83706 213.546 6.17198 214.32 6.17198C223.956 5.88491 233.507 3.73189 243.831 5.74137C246.413 4.64094 248.821 3.25344 251.747 2.44008C255.79 1.29181 260.179 0.143534 263.104 3.68405C264.48 5.35862 268.18 5.78922 270.503 4.73663C275.063 2.72715 279.279 2.53577 284.785 3.58836C288.313 4.30603 292.615 3.82758 296.572 3.87543C310.252 4.06681 323.158 6.17198 336.15 8.2293C338.215 8.56422 340.624 8.65991 342.775 8.42068C363.682 6.4112 383.557 8.99482 403.345 12.5832C408.164 13.4444 413.326 14.497 418.23 14.3056C433.114 13.8271 446.192 17.0806 459.786 19.4728C463.572 20.1427 467.185 21.2431 471.057 21.7215C477.166 22.4392 484.049 22.0086 489.555 23.3483C517.345 30.0944 547.631 33.2521 574.044 42.0077C582.906 44.9741 590.65 48.706 599.081 51.9116C613.622 57.4616 620.849 66.5999 635.131 72.0542C639.519 78.7047 652.597 83.3456 650.016 91.6706C649.671 92.8189 650.446 94.3021 651.651 95.259C657.587 99.9956 656.813 104.78 653.113 109.804C652.081 111.239 651.306 112.914 651.478 114.445C652.339 122.052 646.746 128.655 641.154 135.209C638.745 138.08 635.992 140.903 630.399 142.434C628.506 142.96 626.097 144.013 625.667 145.065C623.086 150.902 613.45 152.29 606.051 155.161L606.222 155.113C604.243 156.165 602.093 157.122 600.286 158.223C597.361 160.041 594.177 160.998 589.875 159.993C586.606 161.38 580.583 159.227 578.863 162.816C584.025 163.533 586.778 161.428 589.961 159.945C587.122 163.151 583.25 165.447 576.883 167.026C564.924 169.945 553.309 173.389 542.21 177.169C536.618 179.083 531.025 180.04 524.917 180.949C519.496 181.762 513.732 182.671 509.172 184.394C503.063 186.786 496.352 188.413 489.9 190.327C466.067 197.455 440.342 201.666 414.1 204.776C409.626 205.302 404.98 205.254 400.506 205.685C392.676 206.45 384.331 206.689 377.104 208.412C368.844 210.373 361.273 211.522 352.411 210.182C349.314 209.704 345.012 209.799 342.345 210.661C329.955 214.727 315.587 213.292 302.423 215.349C292.442 216.928 281.172 215.78 270.417 215.876C264.825 215.923 259.318 215.254 253.554 216.498C250.026 217.263 245.638 216.976 241.68 216.785C228.689 216.115 215.697 215.206 202.705 214.536C199.436 214.345 195.994 214.536 192.725 214.823C183.174 215.636 173.538 216.306 163.472 215.636C162.784 214.249 162.268 213.101 161.665 211.905C160.633 211.713 159.6 211.378 158.568 211.426C142.565 211.713 126.734 211.474 110.903 209.656C106.257 209.13 102.041 208.747 98.8578 206.594C94.6419 203.723 89.5655 202.096 82.3383 203.005C80.6176 203.197 78.1226 202.288 76.4018 201.522C64.8727 196.259 52.6553 191.762 36.3081 191.283C37.1685 188.987 39.1475 186.93 38.2011 185.494C36.3083 182.767 30.8017 181.427 27.7043 178.892C25.9836 177.504 21.5096 177.265 19.1006 176.021C14.2824 173.533 7.48529 171.284 11.1849 166.548C6.71095 161.859 7.48537 156.787 6.96915 151.764C6.79707 150.376 4.47405 149.036 3.09744 147.553C7.48537 144.348 11.7013 141.381 10.927 137.123C10.6689 135.736 12.3895 134.157 13.422 132.721C14.7986 130.951 17.2077 129.372 17.81 127.554C19.7028 121.526 24.8649 116.98 34.4151 113.823C36.6521 113.057 38.5452 111.526 39.4056 110.091C42.0727 105.498 48.4394 103.01 55.1503 100.522C63.0658 97.5555 72.9603 95.7374 75.1112 89.1348C79.2411 90.1396 81.6501 90.7616 85.0056 91.5749C86.3822 89.6133 87.8446 87.6516 89.4793 85.3072C92.2325 84.7331 95.33 83.537 98.5994 83.4413C109.268 83.1542 117.184 79.5659 125.787 76.8387C127.766 76.2167 129.659 75.4512 131.724 75.1642C136.886 74.4943 143.683 76.3603 146.179 72.0064C151.513 70.7624 155.901 68.8965 159.428 66.265C162.526 63.9685 166.397 61.8633 172.506 63.0594C173.452 62.9637 174.399 62.9159 175.345 62.8202C174.313 62.868 173.28 62.9637 172.334 63.0116C176.894 59.806 183.347 58.1792 190.23 58.0357C202.275 57.8443 212.944 54.2081 223.87 54.5909C228.344 52.6771 223.956 51.2896 224.989 49.8543C225.849 49.5193 226.71 48.9931 227.656 48.8974C245.208 47.6534 261.469 43.7301 278.16 40.8116C284.957 39.6155 292.787 40.9551 298.896 37.7974C300.272 37.0797 304.488 37.6538 307.069 38.0844C310.855 38.7064 314.382 39.759 319.286 40.9073C323.072 38.85 327.03 36.6491 330.988 34.4961L330.73 34.6396C339.247 33.8741 347.679 32.8694 356.196 32.3909C367.553 31.7689 378.997 31.5776 390.44 31.2426C392.161 31.1948 394.311 31.0991 395.516 31.6254C404.12 35.3094 414.96 34.7353 424.596 36.6013C433.717 38.3715 443.353 39.1849 452.731 40.5245C454.194 40.7159 455.398 41.5771 457.721 42.5819C455.398 43.3952 453.764 44.5435 452.043 44.5913C442.407 44.7349 432.512 45.8831 423.478 42.9168C422.102 42.4862 419.52 42.1034 418.66 42.534C411.519 45.8353 404.292 42.7254 397.151 42.6297C390.44 42.534 383.557 41.6728 377.018 40.7638C369.102 39.6633 361.359 39.2806 353.271 40.4288C338.903 42.4862 324.449 44.2564 309.908 46.0267C297.089 47.5577 284.269 49.2801 270.847 48.9452C265.857 48.8495 260.867 49.2323 256.049 49.3758C255.79 53.0599 261.125 52.5814 263.104 53.3469C250.628 56.2176 237.722 59.3754 224.559 62.1982C215.611 64.1598 206.233 65.4038 198.145 68.7051C195.392 69.8534 190.402 69.3749 186.444 69.5185C179.733 69.7098 173.022 69.8055 163.558 69.9969C168.462 71.6715 170.957 72.5327 173.882 73.5374C172.936 74.3986 172.42 75.4512 171.301 75.834C158.74 80.2357 146.522 85.0202 133.359 88.7042C126.906 90.5223 121.399 92.9624 115.033 94.7805C109.354 96.4072 103.934 98.0818 100.148 101.048C98.8578 102.053 96.9648 103.058 94.8999 103.488C75.1973 107.842 63.9262 118.081 47.493 124.683C44.9119 125.736 41.7284 127.698 41.8145 129.229C41.9865 134.3 35.4477 137.219 31.1458 140.855C31.9202 145.927 32.5223 150.95 33.5547 155.974C33.8989 157.84 35.0175 159.706 36.222 161.476C44.3956 173.533 61.0868 183.198 82.5963 187.886C92.1465 189.992 102.127 191.475 111.935 193.197C115.721 193.867 120.023 194.154 123.206 195.35C128.369 197.264 133.445 197.886 139.381 196.881C140.93 196.594 143.167 196.546 144.372 196.977C154.696 200.757 166.225 199.178 177.324 199.465C206.405 200.278 235.4 201.044 264.481 201.761C271.88 201.953 279.365 201.714 286.764 201.857C292.099 201.953 296.745 201.283 301.391 199.704C313.522 195.494 327.288 194.489 341.054 194.537C347.077 194.585 351.981 193.867 357.229 192.767C370.565 189.992 384.847 188.891 397.581 185.064C401.711 183.82 407.045 183.724 412.379 183.628C422.36 183.437 432.856 183.006 441.976 179.992C444.385 179.179 447.053 178.413 449.806 178.126C471.573 175.83 490.071 169.418 509 163.725C517.603 161.141 526.121 158.701 535.757 157.457C543.415 156.452 550.298 154.874 555.804 150.902C560.45 147.505 568.366 145.448 574.905 142.912C593.661 135.688 608.029 126.645 617.666 114.923C631.001 98.7516 620.161 83.3456 601.663 75.2598C594.521 72.1499 588.155 68.4659 581.53 64.9732C572.41 60.1409 562.773 55.787 551.33 52.5814C544.878 50.7633 539.371 47.9405 533.434 45.5482C525.519 46.6008 519.066 43.8258 511.925 42.8689C499.191 41.1944 486.028 40.2853 473.724 37.4625C471.143 36.8883 467.788 36.3142 465.293 36.6969C456.087 38.1801 448.515 35.8836 440.6 34.0176C430.103 31.5776 419.434 29.281 408.68 27.128C406.184 26.6017 403.173 26.6974 400.42 26.7931C389.321 27.3194 380.115 26.3146 367.812 23.2526C365.833 22.7741 363.51 22.3914 361.359 22.3435C353.959 22.1521 346.474 22.1043 339.075 22.1043C333.827 22.1043 328.923 22.0086 324.965 19.5685C321.523 17.4633 316.533 17.559 312.059 18.1332C296.056 20.2862 280.311 18.5638 264.308 17.7504C251.489 17.1284 238.583 14.5927 225.505 16.8414C224.473 17.0327 223.096 16.9371 222.15 16.65C210.707 13.0616 198.661 15.1668 186.444 15.7409C183.863 12.0569 179.475 11.0521 172.85 12.344C169.753 12.9181 166.139 12.7267 162.87 12.8702C163.386 11.1478 163.816 9.47327 164.418 7.27241C159.256 9.37758 159.256 9.37758 161.063 11.2914C162.095 12.0569 163.042 12.4875 163.73 12.9181ZM138.091 79.1831C127.336 78.9917 127.25 78.9439 127.508 83.8241C130.433 82.5323 132.928 81.4318 138.091 79.1831ZM196.769 63.8728C194.532 63.4422 193.069 62.9637 191.864 63.0594C190.746 63.1551 189.8 63.9685 188.767 64.4469C189.886 64.7818 191.09 65.4995 192.123 65.4038C193.413 65.3081 194.704 64.6383 196.769 63.8728ZM69.7767 8.99482C70.6371 8.2293 71.4116 7.55948 72.0999 6.93749C70.6373 6.60258 69.0886 5.93275 67.798 6.02844C66.6795 6.12413 65.8192 7.12887 64.8728 7.75085C66.2494 8.13361 67.7118 8.46853 69.7767 8.99482ZM96.1905 89.709C95.8464 89.5176 95.4159 89.3741 95.0718 89.1827C94.6416 89.5654 94.1253 89.996 93.7812 90.4266C93.6952 90.4745 94.4697 90.7615 94.8138 90.9529C95.244 90.5223 95.6743 90.1396 96.1905 89.709ZM25.1232 125.305C25.7255 125.593 26.4139 125.88 27.0162 126.167C27.2743 125.975 27.8766 125.593 27.8766 125.545C27.3604 125.21 26.672 124.923 26.0697 124.636C25.7256 124.875 25.4674 125.114 25.1232 125.305ZM127.078 208.412C126.906 208.603 126.476 208.89 126.648 208.986C126.906 209.177 127.422 209.273 127.852 209.417C128.11 209.082 128.368 208.747 128.626 208.412C128.024 208.412 127.594 208.412 127.078 208.412ZM53.0855 113.153C52.2251 112.962 51.623 112.866 51.1068 112.77C51.1928 113.009 51.2787 113.201 51.3647 113.44C51.7949 113.344 52.2251 113.249 53.0855 113.153ZM397.151 195.446C397.581 195.542 398.097 195.685 398.527 195.685C398.699 195.685 398.871 195.255 399.044 195.063C398.613 194.967 398.097 194.824 397.667 194.824C397.409 194.824 397.237 195.207 397.151 195.446Z" fill="#1FCCE8"/>
<path d="M34.6735 11.1959C23.8327 13.2532 13.8522 13.2532 3.95782 11.9135C2.06499 11.6743 0.946416 9.76052 0 8.08595C8.08755 11.7222 16.6055 10.5739 25.1232 9.61699C28.4787 9.23423 28.4788 9.28207 34.6735 11.1959Z" fill="#1FCCE8"/>
<path d="M279.365 198.365C282.978 197.886 286.592 197.36 290.636 196.834C291.324 198.987 288.055 198.891 286.592 199.369C284.785 199.896 282.462 199.8 280.397 199.944C279.967 199.417 279.709 198.891 279.365 198.365Z" fill="#1FCCE8"/>
</svg>
