<svg width="315" height="307" viewBox="0 0 315 307" fill="none" xmlns="http://www.w3.org/2000/svg">
<path d="M186.803 265.549C186.79 265.666 186.434 265.674 185.586 265.489C190.648 267.647 188.44 266.484 187.849 265.968C190.391 266.974 192.94 267.972 195.489 268.919C195.673 269.152 195.572 269.279 193.328 268.52C197.483 270.349 198.214 270.298 198.776 270.118C203.573 271.853 208.383 273.471 213.218 274.854C214.09 275.254 214.835 275.603 215.385 275.888C219.218 276.906 221.506 277.305 222.888 277.324C222.993 277.33 223.075 277.328 223.172 277.327C225.657 277.753 228.107 277.94 230.491 277.732C230.326 277.774 230.161 277.815 230.013 277.873C229.345 277.994 229.007 278.173 229.219 278.444C230.374 278.345 231.556 278.027 232.626 277.709C233.768 277.365 235.268 277.029 236.147 276.278C236.795 275.779 236.839 275.176 236.603 274.342L236.609 274.335C235.896 271.906 233.646 269.663 231.879 267.759C229.561 265.261 227.555 262.612 225.487 259.945C220.597 253.647 215.78 247.34 211.44 240.737C209.264 237.442 207.188 234.073 205.229 230.681C204.114 228.758 203.469 226.584 201.167 225.889C197.858 224.888 193.766 225.486 191.096 226.769C189.921 227.339 189.633 227.757 190.386 229.103C192.155 232.269 194.009 235.396 195.954 238.492C199.936 244.844 204.333 250.934 208.959 256.912C198.564 250.38 188.626 242.724 179.26 234.652C179.278 234.668 179.303 234.692 179.321 234.707C176.12 231.387 175.141 230.773 174.255 230.231C172.859 228.963 171.477 227.697 170.106 226.401C171.598 227.461 172.91 228.058 174.352 229.085C170.435 226.008 169.154 225.065 167.435 223.837C166.276 222.71 165.129 221.568 163.997 220.428C163.683 219.973 164.09 220.153 164.007 219.897C162.898 218.957 161.808 217.997 160.695 217.079C157.397 213.656 154.156 210.171 151.052 206.605C151.151 206.619 150.695 206.059 148.206 203.262C143.052 197.096 138.182 190.638 133.643 183.993C134.223 184.036 134.807 184.057 135.4 184.086C136.23 184.204 136.895 184.311 137.338 184.382C137.591 184.435 137.755 184.482 137.882 184.534C137.988 184.297 138.342 184.223 138.576 184.141C143.152 184.09 147.443 183.431 151.446 182.289C151.792 182.206 152.152 182.125 152.513 182.044C155.027 181.364 157.391 180.38 159.741 179.394C160.626 179.33 160.13 179.75 159.733 179.992C158.804 180.555 157.777 181.016 156.752 181.441C154.724 182.283 152.603 182.951 150.508 183.693C153.016 183.072 155.526 182.362 157.77 181.215C159.82 180.174 161.585 178.769 163.415 177.449C163.741 177.181 164.098 176.878 164.481 176.547C166.158 175.55 168.007 173.758 169.683 171.86C172.204 169.474 174.467 166.815 176.446 163.894C176.355 164.08 176.27 164.26 176.185 164.439C177.109 162.997 178.069 161.586 179.179 160.288C180.505 158.738 181.285 156.969 181.966 154.995C181.429 155.892 180.664 156.953 179.836 158.15C181.719 154.485 183.17 150.579 184.26 146.495C184.672 145.265 184.947 144.758 185.062 145.828C185.571 143.349 186.309 140.654 185.97 137.938C186.279 135.712 186.463 133.449 186.575 131.159C186.681 132.015 186.717 132.859 186.769 133.704C186.764 133.918 186.502 136.508 186.875 136.76C186.974 136.826 187.548 133.981 187.571 133.834C187.446 131.648 187.323 129.477 187.099 127.277C187.188 127.024 187.265 126.194 187.317 125.097C187.342 123.267 187.361 121.444 187.347 119.605C187.346 119.398 187.435 116.302 187.687 116.494C187.148 112.784 186.758 112.169 186.07 109.158C186.043 106.328 185.583 103.5 184.496 100.664C184.695 101.644 184.867 102.548 185.028 103.378C185.972 109.248 186.425 114.977 186.723 120.77C186.749 121.938 186.769 123.321 186.808 124.977C186.747 124.87 186.707 124.602 186.677 124.253C186.409 113.174 184.233 101.645 180.706 90.5502C180.651 89.4316 182.139 93.0605 182.593 93.6054C181.549 89.509 180.548 87.3944 179.68 85.4284C178.725 83.4717 177.927 81.6207 176.578 78.0817C177.03 79.0104 177.484 79.9541 177.929 80.8898C178.036 81.1031 178.25 81.7883 178.489 81.9433C178.34 81.8456 177.849 79.9027 177.76 79.6535C177.372 78.6031 176.941 77.5649 176.495 76.5257C175.634 74.501 174.685 72.4856 173.845 70.4548C174.218 72.4052 175.006 74.3886 175.703 76.3146C176.588 78.747 177.465 81.1714 178.298 83.608C174.259 72.8287 168.523 62.2184 160.803 52.8891C153.236 43.7392 143.307 35.6921 132.067 33.1843C124.463 31.4761 117.484 32.8489 111.924 36.6426C111.839 36.6669 111.793 36.6641 111.793 36.6124C111.71 36.7033 111.62 36.8011 111.533 36.9139C108.863 38.8028 106.519 41.1695 104.464 43.8273C104.788 43.0054 105.436 41.9005 106.788 40.4771C102.728 43.7796 99.8105 48.4004 97.6031 53.1831C95.4554 57.866 93.687 63.1926 93.4104 68.6773C93.2863 69.194 93.1622 69.7108 93.0468 70.2354C93.032 70.2862 92.6342 71.4654 92.4983 71.3537C92.2459 71.1609 92.5064 70.0101 92.5139 69.8112C92.6284 68.681 92.8116 67.5623 92.9648 66.4419C93.4372 64.3145 93.9869 62.2067 94.3473 60.0281C92.1561 66.2666 90.6175 72.8332 89.871 79.6627C89.1495 86.3608 89.3805 93.1986 89.8291 100.146C90.4035 104.841 90.9842 109.529 91.9583 114.256C92.9456 119.021 94.242 123.761 95.5621 128.509C96.1145 130.212 96.665 131.952 97.2499 133.724C97.848 133.886 98.234 134.574 98.7383 135.706C99.2791 136.832 99.951 138.387 101.013 140.262L101.52 142.708C101.361 141.893 102.228 143.253 102.319 142.668C105.953 151.931 110.321 161.069 115.168 169.874C111.694 168.619 108.281 167.124 104.91 165.462C106.689 165.897 108.494 166.303 110.265 166.833C109.671 166.649 109.075 166.45 108.476 166.236C106.418 165.43 104.336 164.511 102.354 163.415C99.6614 162.053 97.2817 160.54 94.8742 159.041C90.1184 155.89 85.372 152.453 78.758 147.238C80.0285 147.811 81.2242 148.882 82.3735 149.691C84.12 150.906 85.8409 152.149 87.6108 153.321C90.4738 155.225 93.386 157.11 96.366 158.8C93.9995 157.325 90.6953 155.261 88.0385 153.34C87.0769 152.69 86.1365 151.983 85.2196 151.232C84.8204 150.905 83.3374 149.957 83.2851 149.407C82.838 149.358 82.4081 149.324 81.9674 149.267C74.271 142.893 83.3829 149.613 81.168 147.158C78.6826 145.136 76.2933 143.01 73.8335 140.961C73.1279 140.379 71.9662 139.236 71.0599 139.306C70.7958 139.334 70.5924 139.469 70.3043 139.437C69.6293 139.359 68.9494 138.748 68.4143 138.309C66.1613 135.948 63.996 133.525 61.94 131.036C61.4791 130.394 60.8908 129.649 60.197 128.846C58.6724 126.921 57.1949 124.961 55.8032 122.978C56.045 123.2 56.2218 123.336 56.3402 123.38C56.7168 123.507 56.574 122.9 56.4688 122.494C54.7344 120.711 53.1969 118.8 52.015 116.675C50.7181 114.328 49.7324 111.919 48.5578 109.542C47.6876 107.458 46.5275 104.979 45.2453 101.732C45.442 101.552 46.1607 103.022 46.9315 104.59C47.784 106.157 48.7378 107.803 49.1453 108.087C46.161 102.675 44.3249 97.0157 42.3212 91.3833C41.8758 89.9971 41.4946 88.9915 41.181 88.5882C40.4535 85.0134 40.0441 81.473 39.6411 77.9256L39.5969 77.6792C39.5749 77.5819 39.5225 77.4309 39.4724 77.2949C39.3744 77.0378 39.2095 76.7323 38.8452 76.4883C38.677 76.3598 38.492 76.3189 38.3198 76.264C38.1672 76.2399 38.0254 76.2385 37.8836 76.2372C36.8831 76.3751 36.1027 77.0877 35.5197 77.7756L35.4958 77.7151L35.4913 77.6853L35.4977 77.6783C35.4668 77.5213 35.4913 77.6853 35.5027 77.8115C35.4707 77.8465 35.4386 77.8814 35.4066 77.9164C35.3977 77.8567 35.3843 77.7673 35.3754 77.7077L35.3865 77.7822L35.398 77.9085C34.1237 79.5065 33.1393 81.499 33.009 83.7212C32.8598 86.0161 33.3872 88.6998 33.8314 91.0755C33.5706 89.6785 33.3592 88.2623 32.9716 86.8649C32.9037 86.6096 32.813 86.1019 32.5071 85.9501C32.3628 85.8822 32.2146 85.8878 31.9977 85.4831C31.6933 84.7924 31.548 84.1188 31.4886 83.4209C31.4833 83.236 31.478 83.0511 31.4814 82.874C31.4755 83.3832 31.4996 83.8943 31.5624 84.4151C31.5894 84.6457 31.6248 84.8325 31.6707 84.9904L31.7787 85.5139C33.638 94.372 35.8663 103.157 40.0122 111.757C42.0775 116.854 44.797 121.74 47.8209 126.519C47.641 126.612 47.2877 126.442 46.5869 125.941C50.7615 133.036 51.8571 133.835 52.6946 134.603C54.6882 136.224 56.2921 138.531 57.8941 140.476C57.2324 139.638 56.577 138.792 55.9153 137.954C55.5649 137.504 55.1984 136.847 54.7753 136.459C54.8575 136.56 54.9461 136.654 55.0346 136.748C59.7126 142.722 64.9409 148.338 70.5707 153.499C70.0651 153.358 69.3152 152.927 71.0675 154.431C73.8174 156.077 76.2102 158.477 78.7364 160.471C79.5714 161.172 80.4174 161.896 81.2655 162.635C83.2975 164.215 85.3381 165.802 87.1868 167.253C89.091 168.625 90.8843 169.755 92.2743 170.579L90.2425 169.449C90.2425 169.449 92.2996 170.898 94.3929 172.289C96.5459 173.581 98.6924 174.88 98.6924 174.88C98.7701 174.951 98.6668 174.908 98.7186 174.955C98.8927 174.973 99.0668 174.992 99.1914 174.977C101.586 176.838 104.558 178.224 107.222 179.496C110.336 180.987 113.903 182.366 117.129 183.059C118.526 183.13 120.028 183.606 121.435 183.892C121.672 184.084 121.852 184.442 122.077 184.751C124.323 188.161 126.586 191.586 128.992 194.925C130.955 197.637 132.86 200.517 135.215 202.958C132.91 200.15 130.845 197.254 128.872 194.223L129.931 194.421C132.164 197.601 132.088 197.788 132.024 197.91C131.982 198.025 131.907 198.124 134.354 200.985C134.403 200.065 133.249 198.775 132.699 197.988C131.863 196.785 130.968 195.629 130.073 194.474C128.364 192.264 126.672 190.019 125.182 187.675C126.952 189.748 128.547 191.943 130.187 194.09C129.135 192.637 128.167 191.144 127.199 189.652C128.437 191.508 129.712 193.359 131.015 195.197C130.736 194.825 130.466 194.461 130.187 194.09C131.647 196.137 133.048 198.231 134.625 200.204C135.65 201.582 136.669 202.966 137.714 204.323C137.32 204.077 137.282 204.274 138.042 205.473C140.113 208.31 142.211 211.083 144.719 213.601C145.578 214.414 146.316 215.117 147.176 215.93C148.808 217.825 150.465 219.692 152.15 221.546C152.92 222.959 151.801 222.448 158.05 229.065L152.524 223.895C156.834 229.854 157.615 228.742 161.421 232.772C159.751 230.572 157.943 228.644 156.031 226.622C155.86 225.924 159.283 229.332 160.992 230.9L159.962 229.839C160.07 229.913 160.16 229.97 160.26 230.035C164.803 234.612 169.495 239.029 174.321 243.299C174.338 243.315 174.381 243.354 174.399 243.37C173.844 242.952 173.29 242.534 172.748 242.102C176.71 245.322 180.538 248.703 184.523 251.88L184.446 251.86C184.571 251.949 184.685 252.015 184.801 252.096C186.9 253.776 189.016 255.42 191.169 257.007C190.598 256.78 190.809 257.14 193.264 258.761C192.421 258.606 191.409 257.82 190.693 257.318C189.652 256.582 188.643 255.811 187.631 255.025C185.409 253.323 183.192 251.598 181.062 249.762C182.553 251.013 184.459 252.4 185.612 253.985C185.948 254.434 185.254 254.029 185.114 253.94C183.989 253.243 182.925 252.409 181.873 251.599C183.246 253.359 187.849 255.983 191.006 258.711C190.489 258.147 191.689 258.745 191.522 258.425C191.433 258.729 193.499 260.238 195.998 261.898C187.567 258.44 179.133 254.864 170.778 251.116C166.648 249.259 162.534 247.315 158.484 245.198C156.414 244.111 154.358 242.972 152.326 241.791C150.439 240.678 148.834 239.812 146.777 239.611C146.825 239.385 147.16 239.332 147.292 239.17C147.578 238.841 146.152 238.576 146.045 238.555C144.609 238.422 143.514 238.525 142.634 238.618C141.672 238.766 140.783 238.955 139.969 239.392C139.286 239.756 139.242 240.012 139.181 240.754C139.175 240.761 139.169 240.768 139.169 240.768C138.624 241.015 137.945 241.306 137.636 241.833C137.225 242.524 138.364 243.015 138.888 243.328C141.049 244.628 143.238 245.863 145.445 247.062C149.915 249.501 154.453 251.744 159.028 253.879C168.183 258.142 177.464 261.903 186.76 265.613C186.748 265.73 170.514 259.134 186.76 265.613L186.803 265.549ZM35.7901 78.5381C35.9757 78.2837 36.1721 78.0521 36.3881 77.8512L36.414 77.8749L36.4011 77.8889C36.181 78.1117 35.9932 78.3512 35.8163 78.6136C35.799 78.5978 35.7945 78.568 35.7923 78.5531C35.9779 78.2986 35.8031 78.5759 35.7923 78.5531L35.7901 78.5381ZM126.854 172.572C127.007 172.544 127.157 172.502 127.301 172.466C127.837 172.765 127.631 173.077 127.092 173.163C126.915 173.13 126.739 173.096 126.554 173.056C126.073 172.28 125.626 171.485 125.152 170.702C125.589 171.335 126.141 172.188 126.848 172.579C127 172.551 126.751 172.529 126.848 172.579L126.854 172.572ZM161.764 170.236C163.012 169.707 164.219 169.153 165.406 168.517C164.438 169.123 163.442 169.689 162.407 170.194C162.235 170.191 162.035 170.201 161.764 170.236ZM127.107 173.163C127.932 173.148 128.263 173.271 128.565 173.445C128.075 173.356 127.591 173.26 127.107 173.163ZM36.4076 77.8819C36.4076 77.8819 36.3967 77.8591 36.4009 77.8372C36.4009 77.8372 36.4073 77.8302 36.4137 77.8232L36.4118 77.86L36.4053 77.867L36.4076 77.8819ZM37.9963 76.8423C37.9963 76.8423 38.0328 76.8372 38.0542 76.8311C38.0414 76.8451 38.0113 76.8433 37.9963 76.8423ZM36.7539 77.5561C36.7539 77.5561 36.7174 77.5612 36.7046 77.5752C36.8971 77.4172 37.0983 77.2671 37.3254 77.1408C37.1284 77.269 36.9336 77.4121 36.7539 77.5561C36.9314 77.3972 36.7475 77.5631 36.7539 77.5561ZM36.4427 77.6182C36.3547 77.6276 36.4277 77.6173 36.6444 77.5716L36.4427 77.6182ZM179.516 85.6768C180.829 89.5312 180.178 88.2136 180.55 90.0089C180.013 88.3069 179.411 86.623 178.818 84.9471L179.525 85.6847L179.516 85.6768ZM161.124 67.915L160.61 67.8687C159.805 66.7188 160.314 67.0825 160.02 66.3628C160.394 66.8732 160.762 67.3906 161.115 67.9071L161.124 67.915ZM159.964 66.2855C160.033 66.7993 158.926 65.9263 158.583 65.92C160.036 68.2691 160.961 67.9198 162.04 70.1056C159.434 67.2277 162.465 71.4094 162.684 72.6266C162.936 71.7632 162.587 70.479 161.323 68.2006C167.018 76.4969 171.341 85.5803 174.516 94.667C174.493 94.7099 174.458 94.7299 174.402 94.7043C174.463 94.7597 174.523 94.8151 174.588 94.9004C174.989 96.0402 175.369 97.186 175.734 98.3309C175.432 98.0539 175.161 97.6385 174.908 96.9435C175.015 100.052 176.717 105.562 178.269 107.821C178.289 107.904 178.311 108.001 178.324 108.091C178.18 110.223 177.036 106.202 176.207 104.992C177.73 112.795 178.924 120.593 179.452 128.321C180.555 128.625 180.172 129.303 180.952 130.636L180.561 131.306C180.691 131.078 181.099 131.62 181.404 131.461C181.478 135.454 181.243 139.42 180.627 143.229C180.312 142.568 179.994 141.839 179.831 140.943C180.079 142.753 179.656 144.462 179.217 146.067C178.689 147.77 178.262 149.45 177.828 151.188C177.42 150.454 177.748 149.056 177.815 148.359C177.9 147.33 178.164 146.349 178.195 145.31C177.826 146.735 177.497 149.469 176.916 149.323L177.603 149.978C176.795 152.454 177.034 149.315 176.251 149.858C175.943 150.696 175.404 151.874 175.744 152.906C176.028 153.758 177.135 153.885 177.203 154.886C176.871 155.612 176.501 156.328 176.122 157.036C175.893 157.199 175.753 157.508 175.626 157.906C175.33 158.419 175.028 158.94 174.691 159.429C174.646 158.924 174.157 158.85 173.861 158.809C173.979 160.153 173.57 160.652 172.87 161.156C171.752 161.855 170.879 162.651 169.984 163.593C169.758 163.424 169.951 163.022 170.146 162.583C170.316 162.121 170.502 161.623 170.333 161.339C169.406 163.166 167.179 165.318 167.407 166.299C166.047 167.42 164.647 168.079 163.493 168.732C162.258 169.299 161.18 169.764 160.252 170.29C160.563 170.073 161.45 169.626 161.163 169.054C160.888 168.505 161.075 168.162 161.389 167.768C160.857 168.4 160.299 169.008 159.673 169.553C158.92 170.149 158.064 170.857 157.109 171.5C156.323 171.976 155.525 172.518 154.693 172.991C153.258 173.361 151.775 173.661 150.275 173.894C150.19 173.674 150.184 173.438 150.257 173.029C145.563 173.035 149.262 174.149 144.8 174.266L146.88 174.268C146.785 174.285 146.717 174.325 146.637 174.342C144.563 174.525 142.464 174.595 140.32 174.559C140.4 174.298 140.638 174.091 139.97 174.109C138.517 175.312 134.152 173.382 132.33 173.256L132.989 173.23L130.099 172.291C130.099 172.291 130.101 172.255 130.082 172.224C130.03 172.28 129.994 172.337 129.969 172.416C129.546 172.132 129.087 171.904 128.622 171.684L128.45 171.577C128.351 171.512 128.237 171.446 128.122 171.38C127.928 171.227 127.658 171.262 127.587 170.941C127.531 170.812 127.476 170.697 127.398 170.574L127.29 170.398L127.119 170.151C125.999 169.536 125.038 167.394 124.412 166.396C123.712 165.252 122.924 163.269 121.792 162.424C122.46 163.307 122.913 164.095 123.403 165.329L122.583 165.427C121.425 163.31 123.172 165.027 121.622 163.181C120.843 163.909 123.22 166.101 124.001 167.589C123.466 167.15 122.818 166.504 122.21 165.625C122.486 166.122 122.767 166.612 123.036 167.116C122.646 166.45 122.262 165.776 121.887 165.11C121.996 165.287 122.104 165.464 122.219 165.633C121.848 164.946 121.47 164.265 121.05 163.597C120.786 163.123 120.53 162.656 120.265 162.182C120.497 162.241 120.609 162.137 120.516 161.718C119.584 159.319 118.897 158.908 118.059 158.14C117.695 157.446 117.347 156.767 116.989 156.066C117.115 155.512 117.748 155.654 116.5 153.185L118.005 155.079C117.954 152.794 116.646 153.319 116.062 151.755C116.065 152.324 115.817 152.404 116.728 154.115C116.465 154.401 115.636 153.139 115.267 152.518L115.448 152.928C115.448 152.928 115.366 152.879 115.325 152.854C114.443 151.094 113.601 149.344 112.765 147.586C112.76 147.557 112.756 147.527 112.751 147.497L113.151 148.031C112.306 146.665 111.639 145.243 110.994 143.815L111.104 143.851C111.026 143.728 110.941 143.612 110.851 143.503C110.54 142.819 110.229 142.135 109.933 141.453C110.239 141.656 110.372 141.598 109.916 140.691C110.986 141.015 111.792 144.019 112.061 144.818C111.886 144.298 111.62 143.513 111.8 143.022C112.007 142.466 112.733 143.981 112.779 144.087C113.086 143.352 111.658 142.12 111.426 140.917C111.343 141.163 110.989 140.838 110.852 140.97C111.592 140.735 109.097 136.749 108.521 136.787L109.868 138.82C109.532 139.013 108.788 138.074 108.289 137.578C106.004 132.009 104.009 126.385 102.362 120.745C102.697 120.743 103.235 121.197 103.3 120.485C102.902 117.92 102.219 118.336 101.638 118.19C100.114 112.624 98.9139 107.033 98.0987 101.474C98.2296 101.453 98.3957 101.566 98.6098 101.853C98.5497 100.202 98.3261 101.001 98.0583 101.154C97.9404 100.364 97.816 99.5809 97.7282 98.7927C97.9104 98.7153 98.1285 98.5293 98.3523 99.4293C98.459 98.0475 98.037 97.8665 97.5977 97.6696C97.4247 96.2115 97.2882 94.7483 97.1668 93.286C97.2877 92.998 97.4368 92.7487 97.5842 92.5879C97.4563 91.1326 97.2205 90.4018 96.9325 89.9705C96.8942 89.2149 96.8796 88.4681 96.8564 87.7134C97.0176 88.1443 97.2254 88.4377 97.597 88.431C96.9323 87.0239 96.8248 85.7545 96.8089 84.3503C96.8165 82.5046 96.8327 80.6667 96.9242 78.8335C97.087 75.4317 97.4348 72.0708 97.9956 68.7894C99.1171 62.175 101.107 55.6879 104.902 50.508C105.026 50.3901 105.12 50.2704 105.175 50.1408C105.747 49.3784 106.364 48.6705 107.016 47.9942C107.003 48.0082 107.001 48.045 106.991 48.0739C107.537 47.79 107.815 47.556 107.962 47.3435C108.11 47.1827 108.148 47.0373 108.171 46.891C108.545 46.5522 108.943 46.2221 109.351 45.9149C109.204 46.4745 109.267 47.047 109.1 47.5241C109.804 46.5483 109.859 45.9683 110.04 45.3887C110.398 45.1374 110.758 44.9011 111.126 44.6726C111.352 44.6865 111.376 44.9022 111.534 45.0078C111.848 44.6653 112.04 44.3522 112.206 44.067C113.296 43.4842 114.462 43.0094 115.709 42.6208C115.76 42.6683 116.011 42.6024 116.953 42.2689C119.232 41.7075 121.639 41.4567 124.132 41.6321C124.515 41.8034 124.756 41.9733 124.848 42.134C124.892 41.9817 125.029 41.8497 125.213 41.7355C126.533 41.8905 127.862 42.1569 129.198 42.5197C129.529 42.6434 129.887 42.7909 130.253 42.9464C131.346 43.3829 132.406 43.9428 132.406 43.9428C132.71 44.5302 132.177 44.4013 131.419 44.1184C130.642 43.8565 129.607 43.4605 128.928 43.5074C129.853 43.8154 130.805 44.1989 131.734 44.3815C132.586 44.5447 133.411 44.5289 134.278 44.7447C134.792 44.9979 135.481 45.2174 136.215 45.4398C136.432 45.4975 136.658 45.5631 136.877 45.6357C138.049 46.2468 139.202 46.9306 140.345 47.6434C140.243 47.615 140.14 47.5717 140.026 47.5573C141.246 48.2379 141.422 48.6697 141.645 49.0157C141.862 49.3687 142.1 49.664 143.329 50.2639C143.089 49.9021 142.771 49.4172 142.36 48.9637C143.665 49.8636 144.946 50.8064 146.188 51.7911C146.558 52.1683 146.673 52.4413 146.198 52.4564C147.32 53.3303 148.253 53.8382 148.711 53.9106C149.352 54.4596 149.971 55.0146 150.576 55.5687C149.487 55.2138 147.75 53.8146 149.275 55.7398C149.975 56.0856 150.675 56.4315 151.353 56.8351C151.405 57.3331 153.934 59.8961 153.294 60.1964C154.205 61.0574 154.546 61.0488 155.353 61.7114C155.702 62.6485 155.957 63.3067 157.118 63.9984C154.004 59.664 155.253 60.6935 152.097 57.2205C152.279 57.1948 152.672 57.6325 153.066 58.0702L152.819 57.7671C155.428 60.4162 157.8 63.2723 159.977 66.2715C157.8 63.2723 160.046 66.7853 159.977 66.2715L159.964 66.2855ZM37.8096 76.8899C37.8096 76.8899 37.7046 76.9352 37.6552 76.9543C37.7023 76.9203 37.7517 76.9011 37.8096 76.8899ZM33.7539 85.6649C33.4415 83.0241 34.2248 80.7829 35.5811 78.8355C35.5855 78.8653 35.59 78.8951 35.5944 78.9249C34.5285 80.521 33.6865 82.6182 33.839 84.688C33.8005 85.1287 33.7862 85.6817 33.8328 86.3935C33.8328 86.3935 33.8014 86.1331 33.7539 85.6649C33.6935 85.2108 33.7928 86.1252 33.7539 85.6649ZM105.004 176.42C106.106 176.916 107.22 177.383 108.33 177.836C108.307 177.827 108.277 177.825 108.268 177.817C107.168 177.388 106.077 176.966 105.004 176.42C106.106 176.916 105.18 176.505 105.004 176.42ZM114.519 180.203C112.475 179.59 110.552 179.087 108.76 178.719C107.352 178.071 107.041 177.683 107.313 177.662C107.489 177.644 107.907 177.743 108.442 177.887C111.235 179.019 114.048 179.989 116.877 180.82C116.066 180.63 115.268 180.478 114.513 180.21C115.268 180.478 112.469 179.597 114.513 180.21L114.519 180.203ZM199.509 263.199C199.065 263.024 198.637 262.85 198.193 262.675C198.436 262.705 198.906 262.904 199.509 263.199Z" fill="#1FCCE8"/>
<path d="M113.15 148.083C113.525 148.697 113.932 149.275 114.403 149.784L113.15 148.083Z" fill="#1FCCE8"/>
<path d="M111.433 140.976C111.465 140.89 111.46 140.756 111.407 140.502C111.393 140.656 111.402 140.819 111.433 140.976Z" fill="#1FCCE8"/>
<path d="M176.897 149.344L176.577 149.051C176.694 149.236 176.804 149.324 176.897 149.344Z" fill="#1FCCE8"/>
<path d="M115.268 152.57L115.225 152.479C114.995 152.088 115.071 152.248 115.268 152.57Z" fill="#1FCCE8"/>
<path d="M115.853 150.664C115.879 151.138 115.95 151.512 116.046 151.805C116.055 151.57 116.03 151.251 115.853 150.664Z" fill="#1FCCE8"/>
<path d="M174.382 94.7253C174.313 94.662 174.235 94.5907 174.162 94.5493C174.265 94.6443 174.326 94.6997 174.382 94.7253Z" fill="#1FCCE8"/>
<path d="M130.078 172.261C130.138 172.161 130.23 172.078 130.317 172.017C130.083 172.047 129.991 172.13 130.078 172.261Z" fill="#1FCCE8"/>
<path d="M131.346 171.364C131.696 171.762 130.853 171.658 130.318 172.017C131.185 171.886 133.389 172.169 131.346 171.364Z" fill="#1FCCE8"/>
<path d="M170.632 88.9707L169.272 86.5018L169.299 87.4265C169.679 87.7748 170.65 89.437 170.641 88.9786L170.632 88.9707Z" fill="#1FCCE8"/>
<path d="M167.762 82.1849C167.456 81.3391 167.181 80.4951 166.833 79.6613L165.039 78.3768C166.412 80.9351 166.491 79.5664 167.762 82.1849Z" fill="#1FCCE8"/>
<path d="M164.717 75.2109L165.26 75.6579C164.871 75.1982 164.74 75.1163 164.717 75.2109Z" fill="#1FCCE8"/>
<path d="M164.269 75.2643L163.06 74.6066C163.06 74.6066 163.644 75.3219 164.213 76.0363C164.756 76.7786 165.297 77.5061 165.297 77.5061L164.79 76.2564C165.034 76.1459 164.669 75.348 164.713 75.1956L163.548 74.2304C163.773 74.488 164.225 75.0179 164.269 75.2643Z" fill="#1FCCE8"/>
<path d="M162.67 72.6406C162.647 72.7351 162.643 72.8604 162.603 72.9392C162.691 72.9298 162.712 72.8204 162.67 72.6406Z" fill="#1FCCE8"/>
<path d="M135.009 45.506L136.506 46.3513L137.12 46.2709C136.425 46.0066 135.717 45.7563 135.024 45.5069L135.009 45.506Z" fill="#1FCCE8"/>
<path d="M124.831 42.1847C124.805 42.2644 124.786 42.3371 124.8 42.4265C124.887 42.3654 124.889 42.2769 124.831 42.1847Z" fill="#1FCCE8"/>
<path d="M109.099 47.5762C108.95 47.7738 108.835 47.9513 108.656 48.1988C108.88 48.0058 109.015 47.8073 109.099 47.5762Z" fill="#1FCCE8"/>
<path d="M125.477 42.7633L124.593 42.8787L125.245 43.2069L125.477 42.7633Z" fill="#1FCCE8"/>
<path d="M108.261 48.957L108.15 49.8068L108.405 49.3203C108.732 49.0155 108.595 48.6452 108.261 48.957Z" fill="#1FCCE8"/>
<path d="M105.304 51.8029L106.515 50.3782L105.343 50.9117L105.304 51.8029Z" fill="#1FCCE8"/>
<path d="M107.89 133.107C107.612 131.141 106.291 129.531 105.673 127.639C105.918 129.382 107.021 131.629 107.89 133.107Z" fill="#1FCCE8"/>
<path d="M115.921 146.518C115.505 146.123 115.102 145.522 115.498 146.529L113.555 145.043C114.491 147.818 115.491 146.727 115.913 146.51C115.496 146.115 115.491 146.727 115.913 146.51L115.921 146.518Z" fill="#1FCCE8"/>
<path d="M124.03 161.904L122.259 159.572L122.942 160.855C122.177 160.372 121.726 159.997 120.867 159.184C122.113 160.944 123.486 162.55 124.03 161.904Z" fill="#1FCCE8"/>
<path d="M119.483 157.002C119.644 157.277 119.839 157.585 120.021 157.906C119.996 157.587 120.074 157.363 119.483 157.002Z" fill="#1FCCE8"/>
<path d="M120.571 158.9C120.692 159.011 120.778 159.09 120.875 159.192C120.566 158.767 120.284 158.329 120.029 157.914C120.049 158.152 120.094 158.45 120.58 158.908C120.094 158.45 120.701 159.019 120.58 158.908L120.571 158.9Z" fill="#1FCCE8"/>
<path d="M124.554 163.953C125.369 165.369 126.27 166.761 127.147 168.144L126.389 166.458C125.555 166.362 125.589 164.349 124.56 163.946L124.554 163.953Z" fill="#1FCCE8"/>
<path d="M148.736 170.941C147.705 171.823 143.686 172.255 141.65 172.049L142.262 172.751C143.661 172.837 144.935 172.436 146.188 172.092C147.256 171.81 148.566 171.3 149.812 171.709C149.302 171.382 151.668 170.708 148.736 170.941C151.659 170.7 147.705 171.823 148.736 170.941Z" fill="#1FCCE8"/>
<path d="M149.814 171.709C149.864 171.741 149.943 171.776 150.066 171.798C149.986 171.764 149.9 171.736 149.814 171.709Z" fill="#1FCCE8"/>
<path d="M152.094 172.012C151.751 172.315 152.452 172.314 152.88 172.437C153.885 172.328 154.758 171.74 154.124 171.583C153.751 172.682 152.841 171.23 152.094 172.012C152.833 171.222 151.751 172.315 152.094 172.012Z" fill="#1FCCE8"/>
<path d="M163.47 167.697C162.856 168.124 161.95 168.645 163.033 168.312C164.939 167.1 163.901 166.689 164.512 165.693C162.681 166.253 162.024 168.095 163.464 167.704C162.849 168.131 162.024 168.095 163.464 167.704L163.47 167.697Z" fill="#1FCCE8"/>
<path d="M175.655 156.504L175.565 154.8L175.144 155.277L175.655 156.504Z" fill="#1FCCE8"/>
<path d="M178.619 141.659C178.779 141.484 178.933 141.316 178.933 141.316L178.516 139.326C178.516 139.326 178.354 142.034 178.292 142.015C178.292 142.015 178.452 141.84 178.612 141.666C178.773 141.491 178.446 141.847 178.612 141.666L178.619 141.659Z" fill="#1FCCE8"/>
<path d="M179.379 138.626C179.379 138.626 179.438 138.024 179.476 137.428C179.49 136.823 179.502 136.204 179.502 136.204L179.225 136.992C178.949 138.09 179.431 137.824 179.371 138.618L179.379 138.626Z" fill="#1FCCE8"/>
<path d="M179.586 133.115C179.671 133.681 179.757 134.262 179.757 134.262C179.757 134.262 179.715 133.529 179.679 132.788C179.591 132.051 179.51 131.308 179.51 131.308C179.58 131.63 179.48 131.808 179.385 131.965C179.385 131.965 179.523 132.542 179.595 133.122C179.516 132.549 179.679 133.689 179.595 133.122L179.586 133.115Z" fill="#1FCCE8"/>
<path d="M172.77 242.007C171.057 240.513 169.328 239.07 167.693 237.803L172.77 242.007Z" fill="#1FCCE8"/>
<path d="M192.255 259.688C191.881 259.333 191.456 258.982 191.025 258.638C191.21 258.834 191.571 259.152 192.255 259.688Z" fill="#1FCCE8"/>
<path d="M83.2862 149.37L83.8838 149.429C83.4317 149.246 83.2684 149.251 83.2862 149.37Z" fill="#1FCCE8"/>
<path d="M161.016 230.805L161.245 231.041C162.29 232.05 161.895 231.65 161.016 230.805Z" fill="#1FCCE8"/>
<path d="M161.444 232.678C161.922 233.283 162.562 234.127 163.988 235.589C162.961 234.403 162.176 233.439 161.444 232.678Z" fill="#1FCCE8"/>
<path d="M111.779 36.5741C111.935 36.3697 112.074 36.2011 112.174 36.0744C111.901 36.3383 111.783 36.5008 111.779 36.5741Z" fill="#1FCCE8"/>
<path d="M59.311 142.084C58.8462 141.517 58.39 140.957 57.9187 140.396C58.3685 140.963 58.8398 141.524 59.311 142.084Z" fill="#1FCCE8"/>
<path d="M98.736 174.868C98.4953 174.853 98.1964 174.798 97.8521 174.688C98.6251 175.023 98.9585 175.11 98.736 174.868Z" fill="#1FCCE8"/>
<path d="M93.8236 172.771C93.8236 172.771 91.8495 171.579 91.7687 171.736C91.6731 171.945 94.0313 173.463 94.1737 173.568C93.2712 172.715 95.9749 174.151 97.8597 174.696C96.5031 174.095 95.1655 173.422 93.8323 172.779C94.2738 172.991 93.4013 172.538 93.8323 172.779L93.8236 172.771Z" fill="#1FCCE8"/>
<path d="M131.005 31.2579C131.847 31.3614 132.961 31.6367 134.086 31.8831C136.326 32.4565 138.534 33.2717 138.534 33.2717C137.869 32.6622 136.46 32.2063 135.64 31.853C135.274 31.801 134.622 31.628 133.863 31.4853C133.459 31.4235 129.396 30.967 129.376 30.9362C129.443 30.9846 129.523 31.0191 129.607 31.0316C129.607 31.0316 130.164 31.1175 130.996 31.2499C131.839 31.3534 130.157 31.1245 130.996 31.2499L131.005 31.2579Z" fill="#1FCCE8"/>
<path d="M162.467 51.9427L163.192 52.6076C160.037 48.7508 158.86 47.9029 157.809 47.0038C156.696 46.1378 155.69 45.1897 151.892 41.9653C154.204 44.0202 156.372 46.2139 158.401 48.5246C159.782 49.636 161.122 50.7745 162.467 51.9427C162.907 52.3464 162.02 51.546 162.467 51.9427Z" fill="#1FCCE8"/>
<path d="M168.216 61.6679L166.883 60.072C168.012 61.5963 168.289 61.9013 168.216 61.6679Z" fill="#1FCCE8"/>
<path d="M171.293 64.5008C171.485 64.291 168.15 59.9726 167.888 59.6167C166.785 58.1162 165.595 56.1895 164.196 54.9071C165.207 55.8333 166.017 57.5151 166.753 58.6534C166.593 58.8282 168.111 61.2626 168.223 61.6608C169.166 62.8339 170.115 64 171.002 65.1992C170.396 64.2831 169.127 62.4771 168.793 61.7845C169.033 62.043 171.357 64.4308 171.299 64.4938L171.293 64.5008Z" fill="#1FCCE8"/>
<path d="M173.836 70.41C173.792 70.1636 173.689 69.825 173.675 69.6321C173.563 69.5809 173.632 69.8879 173.836 70.41Z" fill="#1FCCE8"/>
<path d="M169.006 173.31C167.901 174.343 166.795 175.375 166.795 175.375C166.795 175.375 170.422 172.511 170.342 172.425L171.07 171.111C170.397 171.845 169.765 172.655 169.006 173.31C169.573 172.813 167.901 174.343 169.006 173.31Z" fill="#1FCCE8"/>
<path d="M137.947 184.775C138.151 184.691 138.108 184.6 137.856 184.51C137.815 184.589 137.837 184.687 137.947 184.775Z" fill="#1FCCE8"/>
<path d="M174.352 229.085C175.105 229.685 175.756 230.205 176.717 230.995C175.842 230.181 175.077 229.594 174.352 229.085Z" fill="#1FCCE8"/>
<path d="M139.462 185.532C139.462 185.532 139.822 185.052 139.844 185.046L137.722 185.263L139.462 185.532Z" fill="#1FCCE8"/>
<path d="M181.681 234.594C181.681 234.594 181.246 234.272 180.801 233.942C180.378 233.606 179.947 233.262 179.947 233.262C178.598 232.012 177.916 231.785 179.282 233.051C179.282 233.051 179.871 233.449 180.466 233.84C181.073 234.217 181.688 234.587 181.688 234.587L181.681 234.594Z" fill="#1FCCE8"/>
<path d="M191.752 243.699C189.789 242.182 187.89 240.596 185.998 239.002L189.25 242.319L191.752 243.699Z" fill="#1FCCE8"/>
<path d="M168.711 248.951C173.97 251.726 181.287 254.613 186.285 256.39C180.288 253.414 174.635 251.693 168.711 248.951Z" fill="#1FCCE8"/>
<path d="M172.68 245.989C174.098 246.955 175.955 248.414 173.186 245.939L178.887 249.428C171.616 242.711 172.724 245.438 172.671 245.981C172.722 245.423 174.09 246.947 172.671 245.981L172.68 245.989Z" fill="#1FCCE8"/>
<path d="M135.388 205.213C133.784 203.461 132.742 202.569 132.834 203.336C134.838 205.778 136.879 208.163 138.958 210.558L135.95 206.732C137.812 208.376 139.039 209.603 141.547 212.172C139.288 209.522 137.006 206.967 135.396 205.221C133.793 203.468 137.006 206.967 135.396 205.221L135.388 205.213Z" fill="#1FCCE8"/>
<path d="M147.168 218.47C146.451 217.71 145.69 216.806 144.867 215.884C145.443 216.747 145.697 217.353 147.168 218.47Z" fill="#1FCCE8"/>
<path d="M142.434 213.039C142.085 212.693 141.841 212.456 141.536 212.164C142.664 213.43 143.792 214.696 144.864 215.884C144.457 215.253 143.866 214.442 142.443 213.047C142.093 212.701 143.875 214.45 142.443 213.047L142.434 213.039Z" fill="#1FCCE8"/>
<path d="M129.136 197.385C126.284 193.407 123.491 189.38 120.853 185.289C120.808 185.234 120.769 185.173 120.724 185.119C120.724 185.119 120.745 185.164 120.763 185.232L120.778 185.284C121.567 186.625 122.375 187.945 123.192 189.273C124.365 189.988 125.198 191.922 125.852 193.011C126.758 194.484 127.757 196.237 129.136 197.385Z" fill="#1FCCE8"/>
<path d="M52.2874 136.468C49.1334 132.714 46.6522 129.024 45.3659 126.25C45.519 126.776 44.5651 125.529 43.949 124.797C43.2393 123.837 42.9187 123.736 46.1407 128.993C48.861 132.387 51.3823 135.947 54.2439 139.239C57.6151 143.449 61.5616 147.569 64.0981 150.332L63.3956 148.671C59.7624 144.903 55.7076 140.607 52.2874 136.468C49.1334 132.714 55.7076 140.607 52.2874 136.468Z" fill="#1FCCE8"/>
<path d="M45.3755 126.258C45.3404 126.123 45.236 125.873 45.019 125.468C45.1235 125.718 45.2538 125.992 45.3755 126.258Z" fill="#1FCCE8"/>
<path d="M41.6089 117.172C41.3658 116.692 39.2496 111.702 38.7707 111.739C38.6612 111.755 38.8098 112.251 38.8098 112.251C39.8326 113.511 40.0586 114.425 40.3175 115.46C40.4508 115.904 42.2032 119.904 42.4384 119.682C42.6735 119.46 41.7117 117.511 41.6003 117.164C40.8014 115.557 42.0085 118.4 41.6003 117.164L41.6089 117.172Z" fill="#1FCCE8"/>
<path d="M67.3598 135.335C67.3598 135.335 66.9685 134.86 66.5621 134.385C66.1836 133.896 65.8051 133.408 65.8051 133.408L63.2009 131.689C64.5758 132.911 65.9336 134.169 67.3598 135.335Z" fill="#1FCCE8"/>
<path d="M107.664 164.59C107.983 164.883 108.417 165.19 108.417 165.19C108.417 165.19 109.131 165.33 109.576 165.365C109.81 165.387 110.01 165.377 110.218 165.323C110.222 165.301 110.133 165.207 110.151 165.223C110.116 165.191 110.25 165.34 110.136 165.274C109.045 164.904 107.981 164.469 106.919 163.998C107.001 164.047 107.187 164.14 107.245 164.232C107.349 164.327 107.487 164.454 107.651 164.604C107.97 164.897 107.48 164.461 107.651 164.604L107.664 164.59Z" fill="#1FCCE8"/>
<path d="M109.564 163.245C109.936 163.844 110.454 164.319 110.795 164.953C110.795 164.953 110.229 163.906 109.663 162.86C108.792 161.122 107.913 159.377 107.913 159.377L109.066 162.21C109.208 162.558 109.343 162.914 109.549 163.244C109.488 163.137 109.668 163.443 109.549 163.244L109.564 163.245Z" fill="#1FCCE8"/>
<path d="M103.248 149.298C104.119 151.087 105.047 152.865 105.047 152.865C103.547 149.752 102.16 146.602 100.779 143.445C101.253 144.471 101.413 145.094 101.564 145.709C101.564 145.709 102.407 147.511 103.25 149.313C102.407 147.511 104.121 151.102 103.25 149.313L103.248 149.298Z" fill="#1FCCE8"/>
</svg>
