<svg width="68" height="68" viewBox="0 0 68 68" fill="none" xmlns="http://www.w3.org/2000/svg">
<path d="M20.0185 6.65353C20.9321 12.8624 26.6519 16.8677 32.0135 19.8844C38.5142 23.5286 45.2261 26.7895 51.9226 30.042C55.4523 31.7578 59.1865 33.5029 63.1456 33.1647C63.5636 32.7703 63.3724 32.0611 62.981 31.6789C62.7545 31.4708 62.4774 31.3181 62.2003 31.1654C61.9848 31.0467 61.7847 30.9364 61.6021 30.7942C60.4586 29.9559 60.2325 28.2904 60.3604 26.82C60.4883 25.3495 60.8713 23.8531 60.5373 22.4197C60.0824 20.4407 58.4244 19.1523 56.6232 18.1599C56.1152 17.88 55.6138 17.6246 55.1036 17.3851C52.7703 16.2661 50.4281 15.163 48.0794 14.0354C46.8588 13.4462 45.0906 13.0133 44.3359 14.2009C43.7487 14.2105 43.2187 13.7519 43.0671 13.1894C43.3266 13.374 43.9468 13.341 43.9865 12.9047C44.0614 12.2589 43.3863 11.8452 42.8057 11.5878C40.3514 10.5062 37.8882 9.44054 35.4339 8.35894C34.0946 7.76675 32.5727 7.1781 31.1716 7.71793C31.1564 6.68924 30.0107 5.89138 29.0473 6.25593C29.2737 6.60977 29.5002 6.96358 29.7266 7.31741C26.9184 5.45775 23.1266 5.20096 20.0031 6.64504L20.0185 6.65353ZM40.1686 11.5299C40.4919 11.708 40.8679 11.9361 40.8788 12.3169C40.9052 12.7062 40.2343 12.9404 40.1838 12.5586L39.966 12.626C39.5878 12.0012 39.1107 11.4468 38.5565 10.9957C39.1284 10.9776 39.6606 11.25 40.1774 11.5139L40.1686 11.5299ZM37.3712 10.0511C37.7627 10.1418 38.0948 10.4497 38.2487 10.826C37.8264 10.7183 37.3667 10.7149 36.9246 10.8253C36.7751 10.5139 37.0369 10.0751 37.3712 10.0511Z" fill="#1FCCE8"/>
<path d="M36.4364 42.7068C36.868 40.1752 36.1142 37.5734 34.8368 35.412C33.5594 33.2505 31.8025 31.4496 30.061 29.6571C29.1902 28.7608 28.3194 27.8645 27.4332 26.9598C25.5268 24.9931 23.3938 22.9642 21.0231 21.6579C19.2528 20.6825 17.3328 20.1244 15.2609 20.3154C15.0058 20.3415 14.7176 20.3909 14.5482 20.5891C14.3788 20.7873 14.3633 21.0703 14.3655 21.3213C14.4434 27.1531 18.4893 31.9019 22.3109 36.1107C26.8582 41.115 31.6804 46.3124 38.0451 48.5282C38.3795 48.067 38.9932 47.8637 39.5144 48.0468C39.5149 45.8606 36.0334 44.8586 36.4122 42.7143L36.4364 42.7068ZM23.4769 25.0714C23.3076 24.9781 23.4924 24.6427 23.6705 24.72C23.8398 24.8133 23.655 25.1488 23.4769 25.0714ZM33.348 34.5084C33.4448 34.3327 33.7681 34.5108 33.6867 34.695C33.5899 34.8707 33.2754 34.6766 33.348 34.5084ZM37.421 46.0188C37.5859 46.3387 37.3395 46.786 36.9809 46.8175C36.8161 46.4976 37.0713 46.0343 37.421 46.0188Z" fill="#1FCCE8"/>
<path d="M9.48845 41.207C9.96976 42.8465 10.6204 44.4336 11.4845 45.8884C11.7967 46.4144 12.2189 46.9593 12.8105 47.0146C14.8287 51.1459 18.8574 54.1778 23.3682 54.9141C23.7927 54.9814 24.2744 55.0177 24.6219 54.7511C24.9695 54.4845 24.9521 53.7878 24.5276 53.7205C23.5379 53.55 23.0477 52.3637 23.0171 51.3265C22.9866 50.2893 23.2353 49.2186 22.9408 48.2235C22.6881 47.3346 21.9822 46.6125 21.1421 46.3162C19.8493 44.4378 18.5322 42.5668 17.2394 40.6884C17.0261 40.3834 16.8063 40.0541 16.8349 39.6742C16.8482 39.2859 17.2486 38.9235 17.574 39.0612C17.3652 38.6754 17.141 38.2811 16.9233 37.9113L15.7223 38.2699C15.5539 34.3873 12.3719 31.5305 9.40102 29.1647C9.37023 29.1478 9.3394 29.1308 9.30861 29.1138C9.12388 29.012 8.87979 28.9817 8.83796 29.1668C7.99248 33.178 8.35224 37.3325 9.51267 41.1995L9.48845 41.207Z" fill="#1FCCE8"/>
</svg>
