<svg width="85" height="89" viewBox="0 0 85 89" fill="none" xmlns="http://www.w3.org/2000/svg">
<path d="M25.384 53.2907C22.4222 50.4196 19.4542 47.5592 16.4923 44.6881C17.0152 45.5123 17.5274 46.3303 18.0418 47.1567L11.7645 40.9817C12.9975 41.8695 14.2414 42.7635 15.4767 43.6598C15.4416 44.2064 15.9146 44.7436 16.4766 44.7652C16.2211 44.3242 15.8788 43.9338 15.4823 43.6128L15.4767 43.6598C13.4374 41.5052 10.9045 39.8204 8.13705 38.7541C7.80162 38.626 7.44918 38.5024 7.09603 38.5793C6.0938 38.7856 6.05708 40.2066 6.33079 41.1889C7.36225 44.9168 9.30834 48.3164 11.1773 51.7004C16.1328 60.6531 20.7162 69.8153 24.9097 79.1553C25.243 79.8848 25.5832 80.6399 26.1882 81.1597C26.8018 81.6772 27.7578 81.8749 28.3942 81.394C28.0883 82.0863 27.7807 82.8065 27.8005 83.5568C27.8225 84.3156 28.2574 85.1179 28.9973 85.2919C29.7287 85.4682 30.4446 85.0113 31.0561 84.5735C39.1844 78.7972 47.7882 73.7031 56.7577 69.3571C52.9048 68.8654 48.9804 69.1577 45.2219 70.1337C45.2412 70.1376 45.252 70.1438 45.2713 70.1477L45.2759 70.1647C45.13 70.3678 44.8301 70.4395 44.6104 70.3348C44.6229 70.3132 44.6376 70.3002 44.6523 70.2871C38.4279 72.0274 32.711 75.652 28.6593 80.6853C27.9568 76.7231 26.2976 73.0004 24.6118 69.3486C20.7253 60.9456 16.61 52.6406 12.2725 44.4591C15.0619 46.7576 17.6759 49.2854 20.0669 52.0008C21.1197 53.2011 22.1584 54.4508 23.4981 55.3281C24.8378 56.2054 26.5627 56.6512 28.0582 56.0754C30.5039 55.1345 31.2467 52.1031 31.628 49.5241C32.703 42.3429 33.6815 35.1421 34.5658 27.9303C33.885 28.0773 33.4358 28.8811 33.6652 29.5294C32.8667 28.4608 33.0928 26.7612 34.1459 25.9313C34.0571 26.5834 33.9706 27.244 33.8818 27.8961C35.0954 26.0033 35.6418 23.6985 35.4035 21.4594C34.9757 21.9024 34.7587 22.5526 34.8314 23.1612L33.6548 22.686C34.3454 22.3725 34.8168 21.6174 34.784 20.8524C35.1493 20.8542 35.5131 21.0202 35.7468 21.3123C36.0286 19.3792 36.6059 17.4939 37.4609 15.7251C38.7455 23.3723 40.3176 30.9695 42.1726 38.4995C42.6605 40.4802 43.1961 42.5027 44.4273 44.1284C45.6585 45.7541 47.7609 46.8903 49.738 46.376C51.749 45.8525 52.9891 43.8889 54.0271 42.0889C57.6175 35.8507 61.2056 29.604 64.7875 23.368C63.0923 32.5462 61.5129 41.7478 60.0493 50.9728C58.9102 58.1531 57.8614 65.6004 59.7691 72.6155C59.9589 71.9999 60.1488 71.3843 60.3386 70.7688C60.3762 70.8406 60.437 70.897 60.5266 70.8911C60.7227 70.8747 60.8516 70.6761 60.9403 70.4975C63.4997 65.3745 64.6481 59.6847 65.7723 54.0743C67.9365 43.2859 70.1023 32.4697 71.1529 21.5079C71.3743 19.1813 69.7362 16.8914 67.5415 16.0896C59.6191 23.2398 55.4817 33.6766 48.3311 41.593C45.7436 31.4107 43.156 21.2285 40.56 11.0485C40.3399 10.1974 39.6156 9.09972 38.8549 9.55952C38.0626 10.037 37.669 8.44052 36.852 8.01419C36.6301 7.90101 36.4055 7.87957 36.1929 7.93682C35.5468 8.11086 34.9956 8.94212 34.7351 9.66776C30.2142 22.2016 29.8377 35.7677 27.5826 48.8931C27.2917 50.5555 26.8442 52.4149 25.388 53.2714L25.384 53.2907ZM50.495 71.2261C50.5408 71.1591 50.6235 71.1277 50.7062 71.0963C50.8632 71.0359 51.0417 70.9878 51.1944 71.0468C51.3471 71.1058 51.4304 71.3474 51.2911 71.4395L51.2519 71.3955C51.1443 71.47 51.0305 71.5552 50.9029 71.5896C50.8519 71.6033 50.8094 71.6148 50.7515 71.6031C50.574 71.5872 50.408 71.377 50.5058 71.2323L50.495 71.2261ZM10.3809 43.5302C10.3456 43.4669 10.3081 43.395 10.3176 43.3288C10.3274 43.1622 10.5632 43.0896 10.7142 43.1764C10.863 43.2547 10.9365 43.4261 11.0054 43.5805L11.7863 45.464C11.8331 45.5698 11.8929 45.6903 12.0024 45.7245C12.1976 45.7721 12.5164 45.5678 12.535 45.7722C12.2714 45.8432 12.02 45.9929 11.8508 46.2114C11.3567 45.3248 10.8711 44.436 10.377 43.5494L10.3809 43.5302ZM27.0563 78.0855C27.0997 78.2467 27.1919 78.3858 27.2863 78.5333C27.6249 79.0794 27.7902 79.7268 27.7524 80.3652C27.4354 79.5948 27.1185 78.8243 26.7908 78.0477C26.6323 77.6625 26.5014 77.1425 26.8343 76.8889C27.2282 77.065 26.9612 77.665 27.0563 78.0855ZM25.4402 73.3042C25.9869 74.386 26.3959 75.5322 26.6519 76.7196C26.2004 76.6682 26.0262 76.1233 25.9159 75.6797C25.6905 74.7754 25.3184 73.9015 24.8301 73.1044C24.8576 72.9695 25.0532 72.9168 25.1803 72.9827C25.3075 73.0486 25.3804 73.1838 25.4402 73.3042ZM22.0674 64.8447L22.1027 64.908C22.0347 64.9264 21.9644 64.9362 21.8941 64.946C21.8411 64.851 22.0144 64.7497 22.0759 64.8424L22.0674 64.8447ZM19.865 60.1212L19.8833 60.1891C19.8323 60.2029 19.7643 60.2212 19.6855 60.2333C19.6325 60.1383 19.8059 60.037 19.8673 60.1297L19.865 60.1212ZM18.5616 59.2433C18.9884 59.9477 19.413 60.6436 19.8483 61.3457C19.9803 61.565 20.1215 61.8183 20.0596 62.0626C20.0079 62.2768 20.1376 62.4877 20.2605 62.673C20.6331 63.21 21.008 63.7554 21.3806 64.2923C21.4597 65.2633 21.9846 66.1962 22.7825 66.7551C22.5571 67.4076 22.96 68.0911 23.3123 68.6881C23.9332 69.7408 24.459 70.8464 24.868 71.9926C24.9108 72.1176 24.8846 72.325 24.7826 72.3524C24.7656 72.357 24.7401 72.3639 24.7162 72.343C24.6754 72.3267 24.6531 72.2781 24.6332 72.2379C23.9862 70.9191 23.3369 69.5919 22.6899 68.2731C22.2001 67.2671 21.7102 66.261 21.2142 65.2657L18.5504 59.8108C18.4638 59.6247 18.3952 59.37 18.5577 59.2625L18.5616 59.2433ZM18.1475 58.8905C18.1475 58.8905 18.105 58.902 18.0749 58.8919C18.0085 58.8824 17.9585 58.8322 17.9193 58.7881C17.7647 58.6204 17.5993 58.4464 17.5313 58.228C17.4719 58.0073 17.5246 57.7291 17.7234 57.6209C17.8708 57.8635 18.0267 58.1037 18.1741 58.3462C18.2862 58.5254 18.309 58.847 18.1475 58.8905ZM16.3007 54.7085C16.6503 55.3973 17.0023 56.0945 17.485 56.7019C17.5834 56.8302 17.6949 56.9731 17.702 57.1351C17.7062 57.2523 17.6123 57.3777 17.5103 57.4052C17.4678 57.4167 17.4207 57.4111 17.3884 57.3926C17.3344 57.3616 17.2991 57.2982 17.2661 57.2434C16.8044 56.3754 16.3488 55.4967 15.8871 54.6287C15.4845 53.845 15.0734 53.0635 14.6708 52.2798C14.4607 51.8721 14.2431 51.4027 14.4191 50.9729L16.3115 54.7147L16.3007 54.7085ZM14.1326 50.1124C14.0894 50.3243 14.0524 50.5254 14.0091 50.7374C13.7974 50.3574 13.5748 49.9713 13.3608 49.5828C12.9265 48.8167 12.5471 48.0176 12.2334 47.1917C12.1799 47.0605 12.1488 46.8776 12.2757 46.8071C12.3392 46.7718 12.4078 46.7897 12.4765 46.8076C12.7796 46.9172 12.9629 47.2593 12.9108 47.5737C12.8463 47.9097 13.025 48.2348 13.2032 48.5237C13.5179 49.0489 13.8241 49.5764 14.1388 50.1016L14.1326 50.1124ZM20.1463 49.0115C20.0933 48.9165 20.2666 48.8152 20.3281 48.9079C20.3349 48.9334 20.3395 48.9504 20.3549 48.9735C20.2869 48.9919 20.2166 49.0017 20.1463 49.0115ZM22.5203 51.4947C22.2856 51.2666 22.0486 51.03 21.8139 50.8019C21.7711 50.6769 22.0055 50.7685 22.0291 50.8896C22.3436 50.8049 22.6688 51.1998 22.5203 51.4947ZM64.8496 52.9846C64.7293 52.9442 64.6502 52.8198 64.6607 52.6895C64.4953 52.5156 64.7991 52.1879 64.9792 52.3488C64.936 52.5607 64.8843 52.775 64.8411 52.9869L64.8496 52.9846ZM65.0651 51.652C65.0651 51.652 65.0386 51.7229 64.9961 51.7343C64.9366 51.7503 64.8464 51.72 64.8196 51.6544C64.7728 51.5486 64.8327 51.4324 64.8864 51.3269C64.9501 51.4281 65.0223 51.527 65.0946 51.6259L65.0736 51.6497L65.0651 51.652ZM65.5054 47.7006C65.4119 47.7258 65.3639 47.5476 65.4551 47.5139C65.5487 47.4887 65.5967 47.667 65.5054 47.7006ZM66.2482 43.5859C66.0785 43.5314 66.0122 43.2853 66.1339 43.1615L66.1395 43.1144C66.2529 43.1294 66.3772 43.1506 66.4906 43.1655C66.4098 43.3056 66.329 43.4458 66.2567 43.5836L66.2482 43.5859ZM66.8639 41.572C66.6942 41.5175 66.6279 41.2714 66.7496 41.1475C66.9192 41.202 66.9855 41.4481 66.8639 41.572ZM69.7223 18.634C69.8661 18.7955 70.0167 18.9825 70.0121 19.2023C70.0062 19.3496 69.8868 19.4819 69.7508 19.5185C69.6827 19.5368 69.6164 19.5274 69.5579 19.4794L69.5958 19.451C69.4353 19.1938 69.493 18.8323 69.72 18.6255L69.7223 18.634ZM69.8526 19.9645C70.1674 20.2529 70.1941 20.792 69.9072 21.115C69.5924 20.8266 69.5635 20.279 69.8526 19.9645ZM69.4697 22.3345C69.4711 21.9335 69.6135 21.4127 70.0167 21.386C70.1582 21.5391 70.2998 21.6921 70.456 21.8321C70.1555 21.8675 69.8729 22.0711 69.7584 22.3569C70.0385 22.855 69.9905 23.5234 69.6268 23.9673C69.5276 23.4296 69.4709 22.8804 69.4674 22.326L69.4697 22.3345ZM68.1229 34.2956C67.986 34.1596 67.8994 33.9735 67.8939 33.7838L67.8834 33.6773C68.1489 33.7151 68.2858 34.0879 68.1144 34.2979L68.1229 34.2956ZM64.8912 22.2294C65.037 22.263 65.1173 22.4598 65.0428 22.5892C64.9682 22.7185 64.7658 22.7457 64.655 22.639C64.738 22.5074 64.8104 22.3695 64.8912 22.2294ZM63.2978 24.5067C63.4478 24.6575 63.3242 24.9093 63.1992 25.0886C62.999 25.361 62.7965 25.6249 62.5963 25.8973C62.5234 25.9989 62.3995 26.1142 62.2804 26.1463C62.2124 26.1646 62.146 26.1552 62.096 26.1049C62.4232 25.5252 62.8258 24.9889 63.2893 24.509L63.2978 24.5067ZM61.1585 27.6684L61.162 27.7494C61.2797 27.8816 61.14 28.074 60.987 28.1152C60.9275 28.1312 60.8611 28.1218 60.8111 28.0715C60.8334 27.8834 60.9714 27.7188 61.1499 27.6707L61.1585 27.6684ZM60.1977 30.0939C59.9044 30.2913 59.6679 30.5644 59.5262 30.8848L59.4576 30.8668C59.4821 30.924 59.5089 30.9896 59.4778 31.0435C59.4716 31.0543 59.4569 31.0673 59.4399 31.0719C59.3974 31.0833 59.3457 31.0608 59.3536 31.0223C59.3661 30.764 59.3848 30.495 59.5284 30.2833C59.672 30.0717 59.9944 29.9484 60.2 30.1024L60.1977 30.0939ZM58.669 28.3116C58.7648 28.2949 58.8106 28.4647 58.7193 28.4984C58.632 28.5128 58.5863 28.343 58.669 28.3116ZM58.6683 31.7622C58.8141 31.7958 58.8922 31.9841 58.8199 32.122C58.7453 32.2513 58.5429 32.2785 58.4321 32.1718C58.5152 32.0402 58.5875 31.9023 58.6706 31.7707L58.6683 31.7622ZM58.4872 32.7487C58.617 32.7228 58.5467 32.9694 58.4123 32.9783L58.4515 33.0223C58.3082 33.1338 58.3422 33.3613 58.3091 33.5432C58.2917 33.648 58.1887 33.7395 58.0952 33.7647C58.0272 33.783 57.9585 33.7651 57.938 33.6887C58.1182 33.3761 58.307 33.0613 58.498 32.7549L58.4872 32.7487ZM56.8223 35.81C56.9094 35.6591 57.1876 35.8117 57.1414 35.9789C57.1172 36.0583 57.0498 36.1128 56.9648 36.1357C56.8798 36.1586 56.7771 36.1499 56.7078 36.0957C56.7638 35.9987 56.8135 35.9125 56.8694 35.8155L56.8223 35.81ZM47.3749 42.1054C47.3307 42.3813 47.3142 42.6589 47.3001 42.9449C46.9384 42.1775 46.7143 41.3457 46.6502 40.4981C46.8472 40.8911 47.0528 41.2818 47.2498 41.6748C47.3227 41.81 47.3893 41.9559 47.3664 42.1077L47.3749 42.1054ZM45.9389 37.7218C46.0758 37.8578 46.1624 38.0439 46.1679 38.2336L46.1783 38.3401C45.9128 38.3023 45.776 37.9295 45.9473 37.7195L45.9389 37.7218ZM45.9401 36.7109L45.816 37.2996C45.6957 37.2592 45.6143 37.1264 45.6271 37.0046L45.6186 37.0069C45.53 36.9488 45.4437 36.8992 45.3659 36.8473C45.4082 36.6994 45.4589 36.5492 45.5812 36.4616C45.7035 36.374 45.9088 36.3916 45.9562 36.5336C45.9722 36.593 45.9627 36.6593 45.9509 36.7171L45.9401 36.7109ZM45.0031 33.1305C45.0031 33.1305 44.9606 33.142 44.9305 33.1319C44.8704 33.1116 44.8289 33.0591 44.7874 33.0065C44.4586 32.5307 44.1204 31.8843 44.471 31.4257C44.6641 31.838 44.8657 32.248 45.0589 32.6603C45.1386 32.8209 45.1306 33.0962 44.9946 33.1328L45.0031 33.1305ZM43.706 29.8383C43.9009 29.7494 44.0605 29.5972 44.1639 29.4054C44.3731 29.6404 44.4646 29.9799 44.4017 30.2882L44.3559 30.3552C44.0875 30.2727 43.8534 30.0808 43.7145 29.836L43.706 29.8383ZM47.3757 40.5849C47.1325 40.359 47.0427 39.9918 47.1396 39.6743C47.2118 39.7732 47.2925 39.8698 47.3648 39.9687L47.3268 39.9972C47.4281 40.1702 47.4513 40.3915 47.3734 40.5764L47.3757 40.5849ZM45.5025 32.7502C45.3328 32.6958 45.2665 32.4496 45.3882 32.3258C45.5579 32.3802 45.6242 32.6264 45.5025 32.7502ZM39.294 10.9525C39.211 10.8474 39.2293 10.6786 39.3261 10.5979C39.5667 10.9155 39.6702 11.3337 39.6001 11.7167C39.4086 11.5134 39.2991 11.2425 39.2963 10.961L39.294 10.9525ZM40.3165 15.0197C40.311 14.83 40.331 14.6334 40.3703 14.4407C40.6739 15.06 40.8568 15.739 40.9161 16.4332C40.515 16.0951 40.3216 15.5463 40.3165 15.0197ZM41.1844 18.0724C41.2095 18.1658 41.031 18.2139 40.9973 18.1228C40.9744 18.0379 41.1507 17.9814 41.1844 18.0724ZM39.7854 13.2509C39.9551 13.3054 40.0214 13.5515 39.8997 13.6753C39.73 13.6209 39.6637 13.3747 39.7854 13.2509ZM41.2174 18.9739C41.3162 18.7652 41.6618 18.8633 41.7553 19.0749C41.8572 19.2841 41.8146 19.5323 41.8826 19.7507C41.942 19.9714 42.2232 20.1688 42.4021 20.0204C42.281 20.1805 42.1515 20.3428 42.1508 20.5433C42.1478 20.7353 42.3331 20.9494 42.5179 20.8905C42.7111 20.8294 42.7323 21.1787 42.5743 21.3032C42.4164 21.4277 42.1835 21.545 42.2083 21.7386L42.4695 21.8959C42.3887 22.036 42.3141 22.1653 42.2395 22.2947C41.5681 21.7654 42.1619 20.4493 41.4758 19.9331C41.1901 19.7187 41.0865 19.3005 41.2197 18.9824L41.2174 18.9739ZM42.4117 23.8142C42.3837 23.4394 42.3557 23.0645 42.3254 22.6812C42.8553 23.0574 43.1239 23.7498 42.9942 24.3856C42.9307 24.6576 43.119 24.9164 43.2408 25.1658C43.3627 25.4152 43.4055 25.777 43.1733 25.9306C42.8893 25.4517 42.5945 24.9667 42.4822 24.4143C42.4466 24.2145 42.428 24.0101 42.4117 23.8142ZM43.2879 27.3381L43.7489 27.5599C43.6907 27.6484 43.6432 27.7431 43.5935 27.8293C44.1238 28.1053 44.1546 28.9983 43.6346 29.3022C43.5051 29.2278 43.378 29.1619 43.2485 29.0876C43.4543 28.5314 43.4666 27.8999 43.2794 27.3404L43.2879 27.3381ZM44.506 33.5193C44.614 33.3446 44.8834 33.363 45.0373 33.4945C45.1913 33.6261 45.257 33.836 45.3095 34.0312C45.4696 34.6254 45.6388 35.2535 45.429 35.8289C44.9848 35.4661 45.1341 34.7339 44.8076 34.2665C44.6432 34.0286 44.3546 33.7695 44.4975 33.5216L44.506 33.5193ZM36.7257 12.9279C36.8832 13.1404 36.9711 13.399 36.9972 13.6651L36.9671 13.655C36.9177 13.8777 36.8659 14.0919 36.808 14.3169C36.5106 13.9236 36.4748 13.3506 36.7257 12.9279ZM35.764 17.3474C35.9524 17.3696 36.1256 17.505 36.1929 17.6871L36.0824 17.7169C36.1085 17.983 36.028 18.2596 35.8651 18.4673C35.7248 18.3868 35.5846 18.3062 35.4551 18.2318C35.6622 17.9849 35.7675 17.6651 35.7725 17.3452L35.764 17.3474ZM34.6361 20.3369C34.6793 20.125 34.9991 20.0935 35.094 19.9041C35.1951 19.7039 35.0182 19.4875 34.8953 19.3021C34.7725 19.1167 34.7876 18.7666 35.0077 18.7711C35.5372 19.2475 35.414 20.2458 34.792 20.5772C34.687 20.5599 34.6187 20.4417 34.6384 20.3454L34.6361 20.3369ZM34.0507 23.8175C34.1868 23.7809 34.1448 24.0653 34.0036 24.0487L33.9911 24.0703C34.0627 24.1329 33.979 24.2283 33.9025 24.2489C33.8685 24.2581 33.8299 24.2503 33.81 24.2101C33.9277 24.1056 34.017 23.9632 34.0399 23.8113L34.0507 23.8175ZM34.3521 25.2749C34.405 25.3699 34.3645 25.4901 34.3108 25.5956C34.1905 25.5551 34.1091 25.4223 34.1219 25.3005L34.1134 25.3028C34.1007 25.1879 34.2969 25.1714 34.3521 25.2749ZM32.2298 23.8619C32.3171 23.8475 32.3628 24.0172 32.2801 24.0486C32.1866 24.0738 32.1386 23.8956 32.2298 23.8619ZM33.1861 29.8496C33.3156 29.6873 33.5378 29.9369 33.5927 30.1407C33.6384 30.3104 33.6842 30.4802 33.7299 30.65C33.7756 30.8197 33.7903 31.0434 33.6379 31.1208C33.6209 31.1254 33.6124 31.1277 33.5954 31.1323C33.4933 31.1598 33.377 31.1001 33.2923 31.0227C32.9667 30.7281 32.9185 30.1766 33.2008 29.8366L33.1861 29.8496ZM32.9076 31.4905C32.9799 31.5894 33.0606 31.686 33.1328 31.7849L33.0949 31.8133C33.1962 31.9863 33.2193 32.2077 33.1415 32.3925C32.8983 32.1667 32.8062 31.7909 32.9054 31.482L32.9076 31.4905ZM32.4196 33.2333C32.4579 33.1047 32.5302 32.9668 32.66 32.941C32.9406 32.8654 33.0447 33.3199 32.9041 33.5762C32.7611 33.8241 32.5093 34.0741 32.5932 34.3519C32.6298 34.4877 32.7599 34.5983 32.9011 34.6149C32.8494 34.8291 32.8085 35.0495 32.7568 35.2637C32.3217 34.6981 32.1902 33.9051 32.4196 33.2333ZM32.6197 36.4477C32.7106 36.5143 32.8061 36.5978 32.8165 36.7043C32.8155 36.7683 32.7566 36.8205 32.6971 36.8366C32.6546 36.848 32.6075 36.8425 32.5938 36.7916L32.6108 36.787C32.5386 36.6881 32.5422 36.5324 32.6259 36.437L32.6197 36.4477ZM31.9246 38.4375C31.9463 38.2132 31.9787 37.9951 32.0174 37.7662C32.0442 37.5951 32.0796 37.4217 32.1905 37.2917C32.3014 37.1617 32.5247 37.1106 32.6486 37.232C32.5582 37.6751 32.4678 38.1183 32.3837 38.5506C32.3539 38.677 32.3054 38.8357 32.1779 38.87C32.1694 38.8723 32.1524 38.8769 32.1439 38.8792C31.9539 38.8848 31.9108 38.6233 31.9331 38.4353L31.9246 38.4375ZM32.2265 39.3212L32.2435 39.3167C32.4468 39.4622 32.5184 39.7616 32.4133 39.981C32.21 39.8355 32.1323 39.5469 32.235 39.319L32.2265 39.3212ZM31.9775 40.0893C32.1233 40.1229 32.2036 40.3197 32.1291 40.4491C32.0545 40.5784 31.8521 40.6056 31.7413 40.4989C31.8243 40.3673 31.8966 40.2295 31.9775 40.0893ZM31.8721 41.2557C31.9905 41.1874 32.1563 41.2611 32.1906 41.3884C32.2089 41.4563 32.2016 41.5311 32.1836 41.5997C32.1421 41.7839 32.1113 41.9742 32.0697 42.1584C31.9095 42.0377 31.8183 41.8346 31.8191 41.6341L31.8292 41.6041C31.74 41.5098 31.756 41.3325 31.8744 41.2642L31.8721 41.2557ZM31.5477 43.6737C31.7174 43.7281 31.7837 43.9743 31.662 44.0981C31.4923 44.0436 31.426 43.7975 31.5477 43.6737ZM31.4238 44.8724C31.6111 44.9585 31.6237 45.3101 31.4105 45.3311L31.3981 45.3527C31.5243 45.4826 31.4987 45.7262 31.3532 45.8291C31.2686 45.515 31.2883 45.182 31.4175 44.8832L31.4238 44.8724ZM30.4606 51.2496C30.4278 51.3313 30.3605 51.3859 30.2754 51.4088C30.1904 51.4317 30.0963 51.4206 30.0332 51.3557C30.0878 51.1862 30.3344 51.1198 30.4583 51.2412L30.4606 51.2496ZM29.2963 54.2398C29.3898 54.2146 29.4378 54.3929 29.3466 54.4265C29.2593 54.4409 29.2136 54.2712 29.2963 54.2398Z" fill="#1FCCE8"/>
</svg>
