<svg width="168" height="160" viewBox="0 0 168 160" fill="none" xmlns="http://www.w3.org/2000/svg">
<path d="M0 110.406C0.286041 104.727 0.429061 99.0491 0.893878 93.4038C1.0369 91.5001 1.85923 89.6293 2.46707 87.7584C2.93188 86.3143 3.75422 84.9357 4.04026 83.4587C4.50507 81.0299 5.61341 78.9293 7.18664 76.96C8.86713 74.8266 10.1186 72.4963 10.4762 69.8049C10.6907 68.3279 11.1913 66.7525 12.0852 65.5381C18.1278 57.4311 23.2051 48.7332 30.2131 41.217C31.2857 40.0683 31.8577 38.5585 32.7515 37.3113C33.3951 36.4251 34.003 35.3748 34.9326 34.8168C39.9383 31.9285 43.2279 27.6617 45.9453 23.0338C47.304 20.7362 49.2704 19.3577 51.7375 18.4387C53.561 17.7495 55.0628 17.0273 55.8494 15.1237C56.779 12.8918 59.2819 12.2681 61.4272 11.3163C65.0385 9.74086 68.5425 8.2311 71.6174 5.53971C75.0141 2.55292 79.4121 0.550744 84.5608 0.813319C85.7407 0.878963 86.9564 0.682047 88.1005 0.419473C91.7476 -0.433895 95.2158 0.0912382 98.6125 1.30565C101.294 2.25748 104.012 3.07809 106.514 4.32532C108.552 5.3428 110.626 6.65566 112.021 8.32957C114.166 10.8897 116.597 12.7933 120.03 13.417C128.718 14.9596 135.047 19.7844 140.196 25.9877C143.378 29.7951 146.31 33.7993 149.206 37.7707C151.602 41.0201 153.604 44.5321 156.107 47.7158C158.645 50.9323 160.826 54.2145 162.042 58.0874C163.007 61.2383 164.473 64.258 165.653 67.3433C166.047 68.3607 166.583 69.411 166.69 70.4613C167.191 75.4503 167.656 80.4392 167.977 85.4609C168.049 86.741 167.977 88.1851 167.37 89.3339C165.868 92.1894 165.653 95.209 165.296 98.2614C165.081 100.231 164.652 102.134 162.9 103.579C162.221 104.137 161.613 104.924 161.363 105.712C159.146 112.506 154.355 117.331 148.133 121.368C144.272 123.862 140.803 126.915 137.192 129.77C134.296 132.068 131.185 133.939 127.61 135.35C124.177 136.729 120.96 138.731 117.992 140.864C111.449 145.492 104.083 148.348 96.1812 150.218C88.5654 152.024 81.2356 154.485 74.3706 158.063C71.5817 159.507 68.471 159.573 65.3603 159.54C63.2507 159.507 61.0697 159.77 58.9959 159.507C54.455 158.949 50.0214 160.032 45.552 159.999C38.5797 159.966 31.822 158.522 25.5291 155.765C23.4196 154.846 21.4887 153.468 19.7009 152.089C13.6226 147.396 8.83141 141.652 4.89834 135.383C1.89492 130.591 0.464781 125.274 0.321761 119.694C0.250251 116.642 0.321761 113.556 0.321761 110.504C0.178741 110.438 0.107265 110.438 0 110.406ZM84.5964 15.6489C78.4823 15.7145 73.1906 17.5197 68.3279 20.408C61.7489 24.3466 55.8136 28.9417 49.9856 33.865C36.6489 45.1885 27.0309 58.8423 18.5927 73.3496C16.5904 76.7959 14.8383 80.4391 13.5511 84.1808C11.8349 89.1369 9.79676 94.2572 9.51072 99.3446C9.11741 106.04 9.04604 112.769 10.1902 119.563C11.7277 128.917 16.626 136.039 24.9212 141.028C33.4667 146.149 43.4781 147.888 53.4895 148.151C59.8539 148.315 66.2541 147.1 72.6543 146.444C74.0487 146.313 75.479 145.984 76.8377 145.558C89.7453 141.685 101.723 136.007 113.415 129.803C117.884 127.44 121.603 123.895 126.644 122.287C127.932 121.86 128.969 120.81 130.041 119.924C132.365 118.053 134.725 116.215 136.906 114.213C140.625 110.832 144.343 107.451 147.812 103.874C149.349 102.266 150.636 100.296 151.423 98.2942C153.068 94.1915 154.104 89.9246 155.713 85.8219C157.501 81.2925 157.287 76.7303 156.214 72.2337C153.64 61.6322 147.883 52.3765 140.947 43.6787C140.374 42.9894 139.659 42.3987 139.016 41.7422C132.079 35.2107 123.677 30.8125 114.381 27.6945C109.625 26.0862 104.584 25.4626 99.6852 25.3969C95.2873 25.3313 90.7821 26.5785 86.42 27.5303C83.3808 28.1868 80.4131 28.9417 77.3024 28.3509C76.4801 28.1868 75.3001 27.5303 75.1571 26.9395C74.9783 26.0205 75.3002 24.7733 75.908 23.9856C76.5516 23.1322 77.6957 22.6071 78.6968 22.0491C80.3058 21.1301 82.0579 20.408 83.6311 19.4561C84.8468 18.7997 85.8121 17.7823 84.5964 15.6489ZM79.6981 5.08016C79.5193 4.78476 79.412 4.58788 79.269 4.39095C79.1974 4.52224 79.0545 4.71915 79.126 4.78479C79.1975 4.91608 79.412 4.94887 79.6981 5.08016Z" fill="#1FCCE8"/>
<path d="M79.6978 5.07977C79.4118 4.94849 79.1972 4.9157 79.1257 4.78441C79.09 4.71877 79.233 4.52185 79.2687 4.39056C79.376 4.58749 79.5191 4.78438 79.6978 5.07977Z" fill="#1FCCE8"/>
<path d="M109.732 103.349C106.55 114.41 98.0759 120.81 86.67 124.223C80.8062 125.996 74.7277 126.718 68.3991 125.733C60.4257 124.519 55.8133 119.759 52.4523 113.819C50.307 109.979 49.9137 105.548 49.8064 100.69C51.2366 101.018 52.2736 101.018 52.8814 101.478C54.3474 102.561 55.6345 103.874 56.9217 105.121C58.2446 106.368 59.4602 107.747 60.7832 108.961C65.8246 113.491 71.617 115.558 78.9111 114.738C86.2051 113.917 92.8199 112.014 98.4692 107.615C100.65 105.909 102.831 104.235 105.191 102.758C106.55 101.937 108.23 101.511 109.732 103.349Z" fill="#1FCCE8"/>
<path d="M73.1545 44.8275C73.7981 45.5824 74.6205 46.3373 75.1568 47.2235C78.196 52.0483 79.3759 57.3654 79.9838 62.8139C80.5916 68.2295 81.0207 73.6451 81.4498 79.0935C81.5213 80.1438 81.3425 81.2925 80.9134 82.2444C80.5916 82.9336 79.7336 83.7542 78.9827 83.8527C78.2676 83.9511 77.0161 83.3275 76.7658 82.7367C75.8362 80.7674 75.121 78.6668 74.5489 76.5662C73.369 72.365 72.6182 68.0325 71.188 63.897C69.0069 57.5295 70.6518 51.4903 72.1892 45.3854C72.225 45.2541 72.5824 45.1557 73.1545 44.8275Z" fill="#1FCCE8"/>
<path d="M91.7298 88.0869C91.1577 87.7915 90.0851 87.5617 89.7275 86.9709C89.1912 86.0847 88.8337 84.9032 88.941 83.8857C89.3343 78.6998 89.8348 73.4812 90.4784 68.3282C90.836 65.5383 91.4437 62.7484 92.0516 59.9914C92.2661 58.9739 92.8383 58.0221 93.1958 57.0703C97.1289 58.1206 99.2384 59.7616 98.6663 62.1248C96.5925 70.56 96.5568 79.4219 92.6595 87.4961C92.588 87.6602 92.2662 87.7259 91.7298 88.0869Z" fill="#1FCCE8"/>
</svg>
