<svg width="85" height="82" viewBox="0 0 85 82" fill="none" xmlns="http://www.w3.org/2000/svg">
<path d="M69.5629 12.8139C66.8579 12.6522 64.183 13.4887 61.7028 14.593C57.1534 16.6276 53.0358 19.6231 49.6757 23.3116C47.358 19.026 45.0168 14.7032 41.8275 11.0315C38.7312 7.46607 34.7331 4.50765 30.1343 3.46077C30.2438 3.63471 30.2699 3.89644 30.0816 4.0246C29.7074 4.27077 29.2168 4.04296 28.8126 3.85595C25.5974 2.37457 21.8569 4.02641 18.7726 5.7835C17.8463 6.3104 16.938 6.852 16.1024 7.49527C11.5125 11.0773 10.1032 17.6148 11.1281 23.3468C12.153 29.0787 15.184 34.2073 18.1694 39.2083C21.6096 44.9728 25.0521 50.7272 28.4924 56.4917C30.73 60.2368 32.9653 63.9921 35.3021 67.6742C36.4862 69.5402 37.7269 71.9093 36.6055 73.8208C41.6565 73.6156 45.8216 69.9379 49.5238 66.4757C58.9797 57.6148 68.4749 48.7202 76.5254 38.5511C78.5137 36.0461 80.443 33.3784 81.228 30.2717C82.0029 27.1627 81.3797 23.5149 78.9143 21.4881C77.4972 20.3266 77.2269 18.2721 76.3331 16.6741C75.0069 14.3071 72.2657 12.9858 69.5629 12.8139ZM79.0494 30.6977C78.9381 30.6726 78.9861 30.4595 79.0997 30.4745C79.2109 30.4995 79.1528 30.7103 79.0494 30.6977ZM80.6987 26.7729C80.9916 26.9349 81.0744 27.3693 80.8665 27.6316L80.8421 27.5515C80.5626 27.4245 80.4798 26.9901 80.6886 26.7707L80.6987 26.7729ZM79.844 27.124C80.0413 27.2858 79.7903 27.645 79.5679 27.5949C79.5375 27.588 79.5072 27.5812 79.4814 27.5541C79.2482 27.3629 79.6232 26.925 79.8338 27.1218L79.844 27.124ZM79.713 23.5551C80.0118 23.6437 80.106 24.0274 80.0903 24.3331C80.084 24.5022 80.053 24.6871 79.93 24.8087C79.8589 24.8886 79.7339 24.9244 79.6227 24.8993C79.562 24.8857 79.516 24.854 79.4847 24.8043C79.3618 24.5953 79.6134 24.3749 79.8297 24.2637C79.647 24.0839 79.6076 23.7872 79.7232 23.5574L79.713 23.5551ZM77.8162 33.6714C77.9173 33.6942 77.8931 33.8487 77.8399 33.9433C77.6382 34.3669 77.4388 34.7804 77.227 35.2018C77.0333 34.6464 77.2922 33.9691 77.8061 33.6691L77.8162 33.6714ZM78.3303 21.9109C78.6105 21.8461 78.7503 22.3574 78.4857 22.447C78.3018 22.3203 78.2059 22.0854 78.2539 21.8724L78.3404 21.9132L78.3303 21.9109ZM62.8866 20.2328L62.9257 20.295C62.8755 20.1877 63.1143 20.0709 63.1499 20.1962C62.958 20.3875 62.7537 20.5867 62.4914 20.6662C62.2268 20.7558 61.9009 20.6931 61.7646 20.4491C62.1326 20.3721 62.5085 20.3076 62.8765 20.2306L62.8866 20.2328ZM59.187 22.363L58.8057 22.405L58.7394 22.3688C58.7033 22.1048 59.224 22.1048 59.1971 22.3653L59.187 22.363ZM57.5152 23.1804C57.6923 23.3375 57.6091 23.6599 57.4052 23.7632C57.2835 23.8318 57.1451 23.8326 57.0036 23.8007C56.9126 23.7802 56.816 23.7371 56.742 23.6884L57.0813 23.4557L57.1263 23.4445C57.0112 23.248 57.3505 23.0153 57.5299 23.1623L57.5152 23.1804ZM53.2505 26.1213L53.2909 26.1304C53.3715 25.9141 53.7633 26.1089 53.7208 26.3446C53.6783 26.5802 53.4271 26.7048 53.1974 26.781C53.1273 26.5733 53.1418 26.3207 53.2505 26.1213ZM52.7086 27.2999C52.9713 27.1245 53.3957 26.9856 53.5431 27.2747C53.1816 27.4171 52.8759 27.6894 52.7104 28.0466L52.6566 28.0025C52.6566 28.0025 52.5766 28.0271 52.5463 28.0202C52.425 27.9929 52.3232 27.8314 52.3529 27.6995C52.3941 27.5169 52.5576 27.4044 52.7086 27.2999ZM49.3934 23.9516C49.2629 23.9649 49.1324 23.9781 49.012 23.9936L48.9412 23.9777C48.9074 23.7035 49.4303 23.6934 49.4035 23.9539L49.3934 23.9516ZM48.6259 22.2648C48.6389 22.3957 48.6542 22.5164 48.6672 22.6473L48.6287 22.7239C48.6287 22.7239 48.586 22.7249 48.5657 22.7204C48.3635 22.6748 48.3763 22.2406 48.6158 22.2625L48.6259 22.2648ZM33.4196 5.14984C33.5697 5.00243 33.8629 5.06851 33.9252 5.26377C33.7751 5.41119 33.4818 5.34511 33.4095 5.14756L33.4196 5.14984ZM26.9246 6.01048L26.9659 6.39293L26.9297 6.4594C26.9297 6.4594 26.887 6.46043 26.8667 6.45587C26.6645 6.4103 26.6773 5.97609 26.9168 5.99806L26.9246 6.01048ZM25.801 3.59315C25.9122 3.61821 25.8642 3.83127 25.7507 3.81636C25.6395 3.79129 25.6875 3.57823 25.801 3.59315ZM24.4001 3.82121C24.5114 3.84628 24.4634 4.05934 24.3499 4.04442C24.2386 4.01935 24.2866 3.8063 24.4001 3.82121ZM19.1049 11.8072C19.128 11.9403 19.1612 12.0757 19.1821 12.219L19.1371 12.2302C19.0581 12.2977 18.9456 12.3257 18.8444 12.3029C18.7433 12.2801 18.6513 12.2167 18.6213 12.114C18.7825 12.0117 18.9437 11.9095 19.1026 11.8173L19.1049 11.8072ZM14.385 21.4367C14.4073 20.866 14.4342 20.275 14.6486 19.7477C14.8132 19.3476 15.0681 18.8294 14.7396 18.5422C14.8884 18.4478 15.0349 18.3635 15.1837 18.2691C15.5467 18.6387 15.4399 19.2543 15.2267 19.7287C15.0136 20.203 14.7228 20.6919 14.8121 21.1917C14.9971 22.2569 14.9639 23.3475 14.7261 24.4027C14.3179 23.4791 14.3498 22.4415 14.385 21.4367ZM16.1776 16.1689C15.7798 16.7083 15.4896 17.3359 15.3511 17.9976C15.0918 17.8752 14.9784 17.5299 15.1187 17.2843C15.6791 16.2592 16.2519 15.2262 16.8246 14.1932C17.0327 14.4959 16.9895 14.9233 16.8286 15.2602C16.6677 15.5971 16.4047 15.8683 16.1877 16.1712L16.1776 16.1689ZM15.5499 22.68L15.2234 22.4785C15.2633 22.3488 15.4254 22.2894 15.55 22.3495C15.6645 22.4073 15.7111 22.5777 15.6331 22.688L15.5522 22.6698L15.5499 22.68ZM15.5292 25.8843C15.3303 25.8714 15.1829 25.5823 15.3408 25.4473L15.3767 25.4767C15.5359 25.2887 15.6975 25.0906 15.8567 24.9026C15.919 25.0979 15.9688 25.301 15.9332 25.5062C15.8898 25.699 15.7282 25.8971 15.5292 25.8843ZM16.3682 27.7257C16.0322 27.3302 15.8024 26.8413 15.7278 26.3235C15.8779 26.176 16.1382 26.3413 16.2556 26.5277C16.4623 26.8834 16.5079 27.3414 16.3682 27.7257ZM37.5777 66.865C37.4766 66.8422 37.3846 66.7789 37.3445 66.6739L37.3514 66.6434C37.1224 66.5279 37.1284 66.1241 37.3571 66.0051C37.5215 66.266 37.6936 66.5393 37.858 66.8002C37.7891 66.87 37.6766 66.8979 37.5755 66.8752L37.5777 66.865ZM38.3909 68.6794C38.2265 68.4184 38.0544 68.1451 37.8799 67.8819L37.8642 67.8571C38.076 67.7662 38.3546 67.8503 38.4798 68.0491C38.605 68.2479 38.5612 68.5365 38.3886 68.6895L38.3909 68.6794ZM39.9444 72.5369L39.9398 72.5572C39.6736 72.4652 39.4675 72.2482 39.4011 71.9773C39.7534 71.8755 40.1579 71.9666 40.4201 72.2176C40.2589 72.3199 40.0977 72.4222 39.9467 72.5267L39.9444 72.5369ZM44.5093 69.6315L44.5295 69.6361C44.5087 69.4928 44.5981 69.3317 44.7378 69.2779C44.7958 69.3976 44.8493 69.5376 44.8016 69.6547C44.7438 69.7697 44.5122 69.7601 44.5217 69.6237L44.5093 69.6315ZM45.4879 68.6367C45.2478 68.476 45.1129 68.179 45.1566 67.8904L45.187 67.8972C45.1661 67.7539 45.2533 67.603 45.3727 67.5446C45.5661 67.8654 45.6106 68.2805 45.4879 68.6367ZM46.2849 67.1745C46.1737 67.1494 46.2217 66.9363 46.3352 66.9513C46.4464 66.9763 46.3984 67.1894 46.2849 67.1745ZM47.8894 66.6085C47.8206 66.6783 47.7204 66.6983 47.6294 66.6778C47.5384 66.6573 47.4262 66.5894 47.3838 66.4945C47.4931 66.4339 47.5946 66.3608 47.7062 66.29L47.6602 66.2583C47.8337 66.1482 48.0395 66.4611 47.8995 66.6108L47.8894 66.6085ZM73.9283 27.0171C73.493 28.5715 72.6344 29.9772 71.7366 31.3207C62.6489 45.0087 49.4362 55.3579 38.9029 67.9632C33.6073 57.5589 27.9635 47.332 21.9772 37.3051C20.1945 34.3235 18.3612 31.3304 17.2329 28.0378C16.1047 24.7453 15.7177 21.0866 16.8531 17.7924C17.9578 14.5871 20.5236 11.9243 23.6778 10.7054C26.8321 9.48643 30.5173 9.73045 33.4745 11.3669C34.4856 11.9252 35.4018 12.6221 36.2965 13.3674C38.8549 15.5003 41.1613 17.9496 43.134 20.6542C45.5162 23.8989 47.4762 27.9333 46.5487 31.8608C46.262 33.0861 47.888 34.0282 49.0892 33.6485C50.2928 33.2587 51.0672 32.1326 51.8063 31.1158C54.6611 27.2174 58.3929 23.9538 62.6295 21.6568C64.3962 20.7009 66.2996 19.8931 68.3105 19.8345C70.319 19.786 72.438 20.6152 73.4854 22.3331C74.3238 23.7054 74.3713 25.4752 73.9361 27.0295L73.9283 27.0171Z" fill="#1FCCE8"/>
</svg>
