<svg width="46" height="54" viewBox="0 0 46 54" fill="none" xmlns="http://www.w3.org/2000/svg">
<path d="M43.0848 36.3361C47.0385 29.2722 45.3299 19.557 39.2272 14.2562C38.4409 13.577 37.5605 12.9539 36.5469 12.7621C35.9838 12.666 35.3639 12.6823 34.7439 12.6987C33.5416 12.7315 32.3581 12.7644 31.6667 11.8603C31.1926 12.9851 29.8013 13.3177 28.6354 13.6511C25.7018 14.4845 23.0091 16.1452 20.9528 18.3906C20.0285 14.6124 19.0857 10.7779 17.2018 7.39035C15.3181 3.98402 12.3243 1.024 8.5526 0.0326606C6.81829 1.60322 5.49551 3.60731 4.71665 5.82011C3.19865 4.93154 1.14634 6.16283 0.538682 7.83173C-0.0689062 9.48184 0.318302 11.3237 0.724737 13.0529C3.20025 23.5974 5.65706 34.123 8.13257 44.6675C8.32774 42.8092 8.54168 40.951 8.73684 39.0927C8.54664 39.6928 7.6854 38.9759 7.57521 38.337C7.33605 37.0591 7.11568 35.7813 6.87645 34.5222C7.32836 34.2423 7.92952 34.2259 8.41693 34.4719C9.35493 34.7761 9.16169 36.1461 8.85746 37.0838C8.572 38.0216 8.79156 39.506 9.76883 39.3784C9.14106 41.3852 9.35758 43.6395 10.3835 45.4651C10.7939 46.199 11.3359 46.896 11.4453 47.7227C11.5359 48.5681 10.931 49.5422 10.1049 49.445C10.0728 48.0365 9.43959 46.6632 8.37247 45.7576C8.81744 47.2429 9.07442 48.7649 9.18105 50.3052C10.084 49.9707 11.0984 49.9559 11.9988 50.2599C11.6401 50.728 11.1315 51.0828 10.5673 51.2683C10.3395 51.8684 10.8251 52.5651 11.4253 52.7928C12.0255 53.0205 12.721 52.9106 13.3601 52.8004C19.5069 51.6604 25.4883 49.6183 31.0408 46.7483C35.8405 44.2696 40.4742 41.0204 43.1037 36.3174L43.0848 36.3361ZM5.59406 26.2734C5.80061 26.2929 5.79913 26.6685 5.59243 26.6865C5.38581 26.6857 5.38737 26.2913 5.59406 26.2734ZM5.16485 20.7883C5.05082 21.1259 4.73009 21.4814 4.42955 21.4802C4.35442 21.48 4.27936 21.4609 4.20444 21.4042C4.0734 21.2911 4.01779 21.1031 3.98089 20.9339L3.11463 16.7241C2.56169 14.0366 1.99005 11.3302 2.01963 8.5887C2.02156 8.10047 2.84819 8.06617 3.09075 8.48025C3.33331 8.89433 3.16211 9.43823 2.97257 9.86939C2.78296 10.3193 2.57434 10.8255 2.7604 11.2769C3.48579 13.1013 3.75963 15.1117 3.52654 17.0637C4.46173 18.0815 5.03877 19.417 5.18364 20.7884L5.16485 20.7883ZM5.11175 24.7316C4.88679 24.6181 4.81284 24.3173 4.92643 24.0924C4.96562 23.6794 4.74185 23.2654 4.38562 23.095C4.81883 22.7963 5.53187 22.9869 5.73657 23.4759C5.96005 23.965 5.63814 24.621 5.11175 24.7316ZM7.20686 31.7067C7.37355 32.3083 7.27697 32.9839 6.93687 33.4896C6.13361 32.3597 5.97062 30.8192 6.5203 29.5632C7.17588 30.0353 7.45401 30.9565 7.18808 31.7066L7.20686 31.7067ZM10.7879 42.9503C11.1064 43.1582 11.1043 43.6839 10.7842 43.8893C10.4657 43.6814 10.4678 43.1369 10.7879 42.9503ZM10.0514 10.5733L9.97675 10.4416C9.43246 10.3267 9.11602 9.59314 9.41841 9.12487C10 9.29616 10.3164 10.0485 10.0514 10.5733ZM13.5409 16.4272C13.465 16.6334 13.258 16.7265 13.0326 16.7256C12.9386 16.7252 12.826 16.706 12.751 16.6682C12.4698 16.5356 12.3018 16.2533 12.1338 15.9897L12.0963 15.9896C12.3786 15.8405 12.6985 15.6915 13.0364 15.7491C13.3556 15.788 13.6548 16.1272 13.5409 16.4272ZM14.9457 17.4467L14.2291 18.1575C13.948 17.9874 13.8934 17.5553 14.1197 17.3308C14.3459 17.1064 14.7777 17.1644 14.9457 17.4467ZM16.2245 21.8459C16.1115 21.9018 15.9988 21.9202 15.8861 21.9197C15.4916 21.9182 15.0982 21.6349 15.0247 21.2403L14.9307 21.2399C14.6691 20.9009 15.2907 20.4527 15.6844 20.6608C16.0592 20.8876 16.1699 21.395 16.2245 21.8272L16.2245 21.8459ZM15.6396 22.5009C15.8462 22.5017 15.8446 22.896 15.6379 22.914C15.4314 22.8944 15.4329 22.5188 15.6396 22.5009ZM37.3133 23.2623L37.3509 23.2624C37.3123 23.5064 36.8994 23.4297 36.844 23.1853C36.7885 22.9598 36.9397 22.735 37.1095 22.5479C37.3343 22.699 37.427 23.0186 37.3321 23.2624L37.3133 23.2623ZM37.7435 33.2541C36.2621 37.3984 32.0072 39.8604 27.8317 41.2335C22.5089 42.9965 17.5019 45.6621 13.0742 49.0811C13.6598 43.4687 12.8181 37.7942 11.9572 32.2136C10.8951 25.2802 9.8329 18.3467 8.77074 11.4133C11.6462 15.8 13.7495 20.6907 14.9128 25.803C15.1193 25.8226 15.3447 25.8235 15.5513 25.8243C19.8716 25.8414 23.5307 22.025 27.8913 21.3285C30.955 20.8524 34.2374 22.0859 36.219 24.4786C38.2007 26.8713 38.807 30.3289 37.7436 33.2354L37.7435 33.2541ZM40.1778 25.6584C40.0833 25.8083 39.8951 25.9015 39.7073 25.9007C39.5194 25.9 39.3319 25.8241 39.2198 25.6547L39.1448 25.6168C39.2397 25.3918 39.3532 25.167 39.4481 24.9232C39.6913 25.1683 39.9346 25.4134 40.1778 25.6584ZM39.9137 30.7088C39.578 30.1066 39.5622 29.3366 39.9027 28.737C40.1464 28.8694 40.2577 29.2079 40.1629 29.4516C40.2739 29.884 40.1969 30.3531 39.9326 30.6901L39.9137 30.7088ZM39.5093 33.2235L39.3223 33.0162C39.5126 32.3973 39.703 31.7596 39.8932 31.1406C40.4732 31.7251 40.2621 32.8697 39.5281 33.2236L39.5093 33.2235Z" fill="#1FCCE8"/>
</svg>
