<svg width="473" height="191" viewBox="0 0 473 191" fill="none" xmlns="http://www.w3.org/2000/svg">
<path d="M118.055 11.3703C117.249 12.2547 116.442 13.139 115.76 13.9391C111.417 12.76 107.757 11.3703 103.849 10.8228C100.127 10.3175 96.7148 9.72792 93.4269 8.46456C92.1862 8.00132 90.0769 8.08555 88.7121 8.46456C83.1288 9.9806 77.4217 9.93849 71.5902 9.6437C70.3495 9.60159 68.7364 9.43314 67.992 9.85426C62.2846 13.0127 56.1429 11.2019 50.2495 10.6544C45.969 10.2333 42.1848 10.4438 38.5247 12.381C36.9738 10.865 35.7951 9.51736 34.2442 8.29611C32.9415 7.28541 31.3285 6.44317 28.9711 4.96924C32.8794 4.4639 35.9193 4.08489 38.959 3.70588C42.1849 3.32687 45.5968 2.4004 48.6986 2.69518C57.2596 3.57954 65.0763 1.97927 73.017 0.421122C74.5058 0.126337 76.1808 0.126337 77.6697 0C79.1586 3.41109 72.5207 1.55815 73.0791 3.83221C84.2456 4.37967 95.5983 4.96924 107.882 5.60093C110.735 4.04277 114.271 2.14772 118.055 0.0842245C121.405 0.421122 125.066 0.800132 128.85 1.22125C128.415 2.02139 128.043 2.69518 127.361 3.87433C138.776 2.44251 149.818 0.631683 163.528 1.60026C158.627 3.20053 155.773 4.08489 152.92 5.01135C153.416 5.13769 153.974 5.43248 154.533 5.43248C161.481 5.1798 168.367 3.28475 175.811 5.05347C177.672 4.08489 179.409 2.86363 181.519 2.14772C184.434 1.13703 187.598 0.126337 189.707 3.24264C190.7 4.71657 193.368 5.09558 195.043 4.16911C198.331 2.4004 201.37 2.23195 205.34 3.15842C207.884 3.7901 210.986 3.36898 213.84 3.41109C223.703 3.57954 233.009 5.43248 242.376 7.2433C243.865 7.53809 245.602 7.62231 247.153 7.41175C262.228 5.64304 276.558 7.9171 290.827 11.0755C294.301 11.8335 298.023 12.76 301.559 12.5916C312.291 12.1704 321.721 15.0341 331.523 17.1397C334.252 17.7292 336.858 18.6978 339.649 19.1189C344.054 19.7506 349.017 19.3716 352.987 20.5508C373.025 26.4886 394.862 29.268 413.907 36.9745C420.297 39.5855 425.88 42.8702 431.96 45.6918C442.444 50.5768 447.655 58.6202 457.953 63.421C461.117 69.2746 470.546 73.3595 468.685 80.687C468.437 81.6977 468.995 83.0032 469.864 83.8454C474.144 88.0146 473.586 92.2258 470.918 96.6476C470.174 97.9109 469.616 99.3849 469.74 100.732C470.36 107.428 466.328 113.24 462.295 119.009C460.558 121.536 458.573 124.021 454.541 125.368C453.176 125.831 451.439 126.758 451.129 127.684C449.268 132.822 442.32 134.043 436.985 136.57L437.109 136.528C435.682 137.454 434.131 138.297 432.828 139.265C430.719 140.865 428.423 141.708 425.322 140.823C422.964 142.045 418.622 140.149 417.381 143.308C421.103 143.94 423.088 142.087 425.384 140.781C423.337 143.603 420.545 145.624 415.954 147.014C407.331 149.583 398.956 152.615 390.954 155.942C386.921 157.626 382.889 158.468 378.484 159.268C374.576 159.984 370.42 160.784 367.132 162.301C362.727 164.406 357.888 165.838 353.236 167.522C336.051 173.797 317.502 177.503 298.581 180.24C295.356 180.704 292.005 180.661 288.779 181.04C283.134 181.714 277.117 181.925 271.906 183.441C265.95 185.167 260.491 186.178 254.101 184.999C251.868 184.578 248.766 184.662 246.843 185.42C237.91 189 227.55 187.736 218.058 189.547C210.862 190.937 202.735 189.926 194.981 190.01C190.948 190.052 186.978 189.463 182.821 190.558C180.278 191.232 177.114 190.979 174.261 190.811C164.893 190.221 155.525 189.421 146.158 188.831C143.8 188.663 141.319 188.831 138.962 189.084C132.075 189.8 125.127 190.389 117.869 189.8C117.373 188.579 117.001 187.568 116.567 186.515C115.822 186.347 115.078 186.052 114.333 186.094C102.795 186.347 91.3799 186.136 79.9652 184.536C76.6152 184.073 73.5754 183.736 71.2801 181.841C68.2403 179.314 64.58 177.882 59.369 178.682C58.1282 178.851 56.3292 178.05 55.0885 177.377C46.7756 172.744 37.9664 168.786 26.1795 168.365C26.7998 166.343 28.2268 164.532 27.5444 163.269C26.1796 160.869 22.2092 159.69 19.9758 157.458C18.7351 156.236 15.5092 156.026 13.7722 154.931C10.2982 152.741 5.39717 150.762 8.06473 146.593C4.83884 142.466 5.39723 138.002 5.02501 133.58C4.90094 132.359 3.22595 131.18 2.23337 129.874C5.39723 127.053 8.43707 124.442 7.87874 120.694C7.69263 119.472 8.9333 118.083 9.67774 116.819C10.6703 115.261 12.4074 113.871 12.8417 112.271C14.2065 106.965 17.9285 102.964 24.8146 100.185C26.4275 99.5112 27.7925 98.1636 28.4129 96.9002C30.336 92.8575 34.9266 90.6676 39.7654 88.4778C45.4727 85.8668 52.6071 84.2666 54.158 78.4551C57.1357 79.3394 58.8727 79.8869 61.2921 80.6028C62.2847 78.8762 63.3392 77.1496 64.5179 75.0861C66.503 74.5808 68.7364 73.528 71.0938 73.4437C78.7863 73.1911 84.4937 70.0326 90.6973 67.6322C92.1242 67.0848 93.4889 66.411 94.9778 66.1583C98.7 65.5687 103.601 67.2111 105.4 63.3789C109.246 62.284 112.41 60.6416 114.954 58.3254C117.187 56.304 119.978 54.4511 124.383 55.5039C125.065 55.4197 125.748 55.3776 126.43 55.2934C125.686 55.3355 124.941 55.4197 124.259 55.4618C127.547 52.6403 132.2 51.2085 137.163 51.0821C145.848 50.9137 153.54 47.7132 161.419 48.05C164.645 46.3656 161.481 45.1443 162.225 43.8809C162.846 43.5862 163.466 43.1229 164.148 43.0387C176.804 41.9438 188.529 38.4906 200.564 35.9217C205.465 34.8689 211.11 36.0481 215.515 33.2687C216.507 32.637 219.547 33.1423 221.408 33.5213C224.138 34.0688 226.681 34.9953 230.217 36.006C232.947 34.1951 235.8 32.258 238.654 30.3629L238.468 30.4893C244.61 29.8155 250.689 28.9311 256.831 28.51C265.02 27.9625 273.271 27.7941 281.521 27.4993C282.762 27.4572 284.313 27.3729 285.181 27.8362C291.385 31.0788 299.202 30.5735 306.15 32.2159C312.725 33.774 319.674 34.4899 326.436 35.6691C327.49 35.8375 328.359 36.5955 330.034 37.4799C328.359 38.1958 327.18 39.2065 325.939 39.2486C318.991 39.3749 311.857 40.3856 305.343 37.7747C304.351 37.3957 302.49 37.0588 301.869 37.4378C296.72 40.3435 291.509 37.6062 286.36 37.522C281.521 37.4378 276.558 36.6797 271.844 35.8796C266.136 34.911 260.553 34.5741 254.722 35.5848C244.361 37.3957 233.939 38.9538 223.455 40.512C214.212 41.8596 204.968 43.3756 195.291 43.0808C191.693 42.9966 188.094 43.3335 184.62 43.4598C184.434 46.7025 188.281 46.2813 189.707 46.9551C180.712 49.4819 171.407 52.2613 161.915 54.7459C155.463 56.4725 148.701 57.5674 142.87 60.4732C140.885 61.4839 137.287 61.0627 134.433 61.1891C129.594 61.3575 124.755 61.4417 117.931 61.6102C121.467 63.0841 123.266 63.8421 125.376 64.7265C124.693 65.4845 124.321 66.411 123.515 66.7479C114.457 70.6222 105.648 74.8334 96.1564 78.0761C91.5037 79.6763 87.5335 81.8241 82.9428 83.4243C78.8484 84.8561 74.9402 86.3301 72.2106 88.941C71.2801 89.8254 69.9152 90.7097 68.4263 91.0887C54.22 94.921 46.0932 103.933 34.2442 109.744C32.3831 110.671 30.0877 112.398 30.1498 113.745C30.2738 118.209 25.5591 120.778 22.4573 123.978C23.0156 128.442 23.4498 132.864 24.1942 137.286C24.4423 138.928 25.2489 140.571 26.1174 142.129C32.0108 152.741 44.0458 161.248 59.5549 165.375C66.441 167.228 73.6373 168.533 80.7094 170.049C83.439 170.639 86.5409 170.891 88.8363 171.944C92.5584 173.629 96.2185 174.176 100.499 173.292C101.616 173.039 103.229 172.997 104.097 173.376C111.542 176.703 119.854 175.313 127.857 175.566C148.825 176.282 169.732 176.956 190.7 177.587C196.035 177.756 201.432 177.545 206.768 177.671C210.614 177.756 213.964 177.166 217.314 175.776C226.061 172.071 235.987 171.186 245.913 171.228C250.255 171.27 253.791 170.639 257.575 169.67C267.191 167.228 277.489 166.259 286.67 162.89C289.648 161.795 293.494 161.711 297.341 161.627C304.537 161.458 312.105 161.079 318.681 158.426C320.418 157.71 322.341 157.037 324.326 156.784C340.022 154.762 353.359 149.119 367.007 144.108C373.211 141.834 379.353 139.686 386.301 138.591C391.822 137.707 396.785 136.317 400.755 132.822C404.105 129.832 409.813 128.021 414.527 125.789C428.051 119.43 438.412 111.471 445.36 101.154C454.975 86.9196 447.159 73.3595 433.821 66.2425C428.672 63.5052 424.081 60.2626 419.304 57.1884C412.728 52.9351 405.78 49.1029 397.529 46.2813C392.877 44.6811 388.906 42.1964 384.626 40.0908C378.918 41.0173 374.266 38.5748 369.117 37.7326C359.935 36.2586 350.444 35.4585 341.572 32.9739C339.711 32.4685 337.292 31.9632 335.493 32.3001C328.855 33.6056 323.396 31.5842 317.688 29.9418C310.12 27.7941 302.427 25.7727 294.673 23.8776C292.874 23.4144 290.703 23.4986 288.718 23.5828C280.715 24.0461 274.077 23.1617 265.206 20.4665C263.779 20.0454 262.104 19.7085 260.553 19.6664C255.218 19.498 249.821 19.4558 244.486 19.4558C240.701 19.4558 237.165 19.3716 234.312 17.2239C231.83 15.371 228.232 15.4552 225.006 15.9605C213.467 17.8556 202.115 16.3395 190.576 15.6236C181.333 15.0762 172.027 12.8442 162.597 14.8235C161.853 14.992 160.861 14.9077 160.178 14.6551C151.927 11.4966 143.242 13.3496 134.433 13.8549C132.572 10.6123 129.408 9.72792 124.631 10.865C122.398 11.3703 119.792 11.2019 117.435 11.3282C117.807 9.81215 118.117 8.33822 118.552 6.40106C114.829 8.254 114.83 8.254 116.132 9.93849C116.877 10.6123 117.559 10.9913 118.055 11.3703ZM99.5684 69.6957C91.8139 69.5273 91.752 69.4852 91.9381 73.7806C94.0473 72.6436 95.8462 71.675 99.5684 69.6957ZM141.877 56.2198C140.264 55.8408 139.21 55.4197 138.341 55.5039C137.535 55.5881 136.853 56.3041 136.108 56.7252C136.915 57.02 137.783 57.6516 138.527 57.5674C139.458 57.4832 140.388 56.8936 141.877 56.2198ZM50.3116 7.9171C50.9319 7.2433 51.4904 6.65373 51.9867 6.10627C50.9321 5.81149 49.8154 5.22192 48.8849 5.30614C48.0784 5.39036 47.4581 6.27472 46.7757 6.82218C47.7683 7.15908 48.8227 7.45386 50.3116 7.9171ZM69.3569 78.9604C69.1087 78.792 68.7984 78.6656 68.5502 78.4972C68.24 78.8341 67.8678 79.2131 67.6197 79.5921C67.5576 79.6342 68.1161 79.8869 68.3642 80.0553C68.6744 79.6763 68.9847 79.3394 69.3569 78.9604ZM18.1148 110.292C18.549 110.545 19.0454 110.797 19.4797 111.05C19.6658 110.881 20.1 110.545 20.1 110.502C19.7278 110.208 19.2315 109.955 18.7972 109.702C18.5491 109.913 18.3629 110.123 18.1148 110.292ZM91.6279 183.441C91.5038 183.609 91.1936 183.862 91.3177 183.946C91.5038 184.115 91.876 184.199 92.1862 184.325C92.3723 184.03 92.5583 183.736 92.7444 183.441C92.3102 183.441 92.0001 183.441 91.6279 183.441ZM38.2766 99.5954C37.6562 99.427 37.2221 99.3427 36.8499 99.2585C36.9119 99.4691 36.9738 99.6375 37.0359 99.8481C37.346 99.7639 37.6562 99.6796 38.2766 99.5954ZM286.36 172.028C286.67 172.113 287.043 172.239 287.353 172.239C287.477 172.239 287.601 171.86 287.725 171.692C287.415 171.607 287.043 171.481 286.732 171.481C286.546 171.481 286.422 171.818 286.36 172.028Z" fill="#1FCCE8"/>
<path d="M25.0009 9.85443C17.1843 11.6653 9.98792 11.6653 2.85374 10.4861C1.48893 10.2755 0.6824 8.59106 0 7.11713C5.83142 10.3177 11.9731 9.30697 18.1148 8.46472C20.5342 8.12782 20.5342 8.16994 25.0009 9.85443Z" fill="#1FCCE8"/>
<path d="M201.432 174.597C204.038 174.176 206.643 173.713 209.559 173.25C210.055 175.145 207.698 175.061 206.643 175.482C205.341 175.945 203.666 175.861 202.177 175.987C201.867 175.524 201.68 175.061 201.432 174.597Z" fill="#1FCCE8"/>
</svg>
